SplineFontDB: 3.0
FontName: arial-black-hollow
FullName: arial-black-hollow
FamilyName: Arial-Hollow
Weight: Black
Copyright: 
Version: 
ItalicAngle: 0
UnderlinePosition: 0
UnderlineWidth: 0
Ascent: 800
Descent: 200
InvalidEm: 0
LayerCount: 2
Layer: 0 0 "Back" 1
Layer: 1 0 "Fore" 0
XUID: [1021 575 -53711584 14727247]
FSType: 0
OS2Version: 0
OS2_WeightWidthSlopeOnly: 0
OS2_UseTypoMetrics: 0
CreationTime: 1530566282
ModificationTime: 1530773274
PfmFamily: 17
TTFWeight: 700
TTFWidth: 5
LineGap: 90
VLineGap: 90
Panose: 2 0 8 3 0 0 0 0 0 0
OS2TypoAscent: 0
OS2TypoAOffset: 1
OS2TypoDescent: 0
OS2TypoDOffset: 1
OS2TypoLinegap: 90
OS2WinAscent: 0
OS2WinAOffset: 1
OS2WinDescent: 0
OS2WinDOffset: 1
HheadAscent: 0
HheadAOffset: 1
HheadDescent: 0
HheadDOffset: 1
OS2Vendor: 'PfEd'
Lookup: 258 0 0 "Pairwise Positioning (kerning) in Latin lookup 0" { "Pairwise Positioning (kerning) in Latin lookup 0-1" [150,15,0] "Pairwise Positioning (kerning) in Latin lookup 0-2" [150,15,0] "Pairwise Positioning (kerning) in Latin lookup 0-3" [150,15,0] "Pairwise Positioning (kerning) in Latin lookup 0-4" [150,15,0] "Pairwise Positioning (kerning) in Latin lookup 0-5" [150,15,0] } ['    ' ('DFLT' <'dflt' > 'latn' <'dflt' > ) ]
MarkAttachClasses: 1
DEI: 91125
KernClass2: 1 1 "Pairwise Positioning (kerning) in Latin lookup 0-5"
 0 {}
KernClass2: 1 1 "Pairwise Positioning (kerning) in Latin lookup 0-4"
 0 {}
KernClass2: 1 1 "Pairwise Positioning (kerning) in Latin lookup 0-3"
 0 {}
KernClass2: 1 1 "Pairwise Positioning (kerning) in Latin lookup 0-2"
 0 {}
LangName: 1033
Encoding: ISO8859-1
UnicodeInterp: none
NameList: AGL For New Fonts
DisplaySize: -48
AntiAlias: 1
FitToEm: 0
WidthSeparation: 150
WinInfo: 70 10 7
BeginPrivate: 0
EndPrivate
TeXData: 1 0 0 314572 157286 104857 534097 1048576 104857 783286 444596 497025 792723 393216 433062 380633 303038 157286 324010 404750 52429 2506097 1059062 262144
BeginChars: 256 95

StartChar: y
Encoding: 121 121 0
Width: 687
Flags: W
HStem: -168 69<131.402 325.607> 527 54<108.113 218.271 487.353 563.215>
VStem: 55 76<-94.1387 -16.5> 214 64<36.9446 124.605> 564 93<477.346 562.5>
LayerCount: 2
Fore
SplineSet
99 -150 m 0
 73 -134 55 -93 55 -49 c 0
 55 16 64 26 126 26 c 0
 166 26 203 33 212 40 c 0
 214 42 214 43 214 44 c 0
 214 69 177 174 128 293 c 0
 74 423 30 542 30 556 c 0
 30 571 64 577 118 577 c 0
 131 577 145 577 159 576 c 0
 287 568 290 567 317 467 c 0
 331 418 342 392 353 392 c 0
 366 392 378 427 394 498 c 0
 410 577 416 581 535 581 c 0
 602 581 657 569 657 556 c 0
 657 506 428 -89 396 -121 c 0
 368 -150 277 -168 201 -168 c 0
 158 -168 119 -163 99 -150 c 0
321 -81 m 0
 362 -54 396 20 493 290 c 0
 542 425 564 484 564 510 c 0
 564 523 558 527 546 527 c 0
 541 527 535 527 527 525 c 0
 484 519 463 487 432 379 c 0
 404 282 378 233 351 233 c 0
 325 233 298 282 269 378 c 0
 231 507 214 531 165 531 c 2
 106 531 l 1
 194 322 l 2
 250 188 278 108 278 56 c 0
 278 9 254 -14 206 -32 c 0
 165 -48 131 -70 131 -81 c 0
 131 -94 170 -99 212 -99 c 0
 255 -99 303 -94 321 -81 c 0
EndSplineSet
Validated: 1
EndChar

StartChar: braceleft
Encoding: 123 123 1
Width: 449
Flags: W
HStem: -150 72<228.019 369.518> 701 49<255.812 364.832>
VStem: 30 74<261.244 369.137> 128 48<457.368 605.065> 225 96<260.418 365.639> 370 49<-72.2842 -12.4979 605.98 695.797>
LayerCount: 2
Fore
SplineSet
225 -135 m 4
 160 -112 128 -47 128 60 c 4
 128 138 115 172 79 195 c 4
 45 216 30 252 30 316 c 4
 30 382 44 414 79 433 c 4
 116 453 128 484 128 564 c 4
 128 698 181 750 318 750 c 6
 419 750 l 5
 419 655 l 6
 419 597 406 555 385 547 c 4
 357 536 325 423 321 323 c 5
 321 309 l 6
 321 211 358 67 386 67 c 4
 409 67 419 34 419 -42 c 4
 419 -139 418 -150 362 -150 c 6
 340 -150 l 5
 297 -149 245 -142 225 -135 c 4
370 -54 m 4
 370 -41 348 -8 322 19 c 4
 295 46 273 100 273 141 c 4
 273 181 260 236 243 263 c 4
 231 282 225 296 225 311 c 4
 225 326 231 340 243 359 c 4
 260 386 273 434 273 467 c 4
 273 552 297 603 337 603 c 4
 355 603 370 625 370 652 c 4
 370 685 354 701 322 701 c 4
 242 701 176 614 176 509 c 4
 176 455 161 402 140 384 c 4
 116 364 104 335 104 310 c 4
 104 285 115 263 137 255 c 4
 157 247 174 190 181 104 c 4
 188 22 207 -43 227 -56 c 4
 249 -71 284 -78 314 -78 c 4
 345 -78 370 -70 370 -54 c 4
EndSplineSet
Validated: 1
EndChar

StartChar: braceright
Encoding: 125 125 2
Width: 451
Flags: W
HStem: -152 73<109.741 236.066> 696 54<106.109 213.469>
VStem: 30 75<-70.7675 0.524584 605.88 695.796> 134 113<273.365 358.68> 275 73<-36.0693 192.979> 373 48<266.565 351.537>
LayerCount: 2
Fore
SplineSet
49 -136 m 4
 36 -123 30 -98 30 -69 c 4
 30 -16 51 49 82 70 c 4
 125 99 133 130 134 277 c 4
 134 286 134 295 134 304 c 4
 134 482 115 555 67 555 c 4
 43 555 33 584 33 652 c 6
 33 750 l 5
 137 750 l 6
 282 750 326 710 342 565 c 4
 349 499 370 436 388 425 c 4
 410 412 421 364 421 316 c 4
 421 265 409 214 385 205 c 4
 360 195 348 156 348 79 c 4
 348 -62 270 -152 147 -152 c 4
 102 -152 58 -145 49 -136 c 4
246 -50 m 4
 262 -34 275 32 275 96 c 4
 275 187 286 220 324 244 c 4
 351 260 373 288 373 305 c 4
 373 322 351 357 324 384 c 4
 293 415 275 466 275 524 c 4
 275 638 256 668 172 689 c 4
 154 694 141 696 131 696 c 4
 110 696 105 685 105 657 c 4
 105 630 122 602 142 595 c 4
 165 586 178 549 178 496 c 4
 178 450 196 394 219 371 c 4
 237 352 247 341 247 327 c 4
 247 312 237 294 219 262 c 4
 196 225 178 156 178 109 c 4
 178 56 165 19 142 10 c 4
 122 2 105 -21 105 -42 c 4
 105 -66 134 -79 167 -79 c 4
 195 -79 227 -69 246 -50 c 4
EndSplineSet
Validated: 1
EndChar

StartChar: bar
Encoding: 124 124 3
Width: 230
Flags: W
HStem: -117 49<103.049 120.951> 711 49<103.049 120.951>
VStem: 39 49<107.065 536.218> 136 73<83.7844 559.442>
LayerCount: 2
Fore
SplineSet
39 -117 m 5
 39 175 39 468 39 760 c 5
 96 760 152 760 209 760 c 5
 209 468 209 175 209 -117 c 5
 152 -117 96 -117 39 -117 c 5
136 322 m 4
 136 565 127 711 112 711 c 4
 97 711 88 565 88 322 c 4
 88 78 97 -68 112 -68 c 4
 127 -68 136 78 136 322 c 4
EndSplineSet
Validated: 1
EndChar

StartChar: s
Encoding: 115 115 4
Width: 605
Flags: W
HStem: -22 58<169.725 413.762> 124 52<114.316 175.436> 283 118<249.891 401.387> 459 56<203.018 426.297>
VStem: 30 83<78.2931 145> 54 55<293.586 395.054> 453 108<376 428.086> 513 62<113.368 210.509>
LayerCount: 2
Fore
SplineSet
94 29 m 0xf1
 59 57 30 101 30 126 c 0xf9
 30 164 48 174 121 176 c 0
 156 177 176 181 176 185 c 0
 176 187 172 189 163 191 c 0
 81 211 54 249 54 346 c 0
 54 470 119 515 299 515 c 0
 401 515 452 502 500 464 c 0
 541 431 561 407 561 385 c 0xf6
 561 367 548 349 522 329 c 0
 506 317 498 308 498 303 c 0
 498 299 502 296 510 296 c 0
 547 295 575 230 575 166 c 0
 575 143 571 119 563 99 c 0
 528 14 447 -22 287 -22 c 0
 193 -22 140 -8 94 29 c 0xf1
469 90 m 0
 498 116 513 142 513 165 c 0xf9
 513 214 448 256 324 283 c 0
 236 302 212 318 212 356 c 0
 212 392 222 401 289 401 c 0
 303 401 320 401 340 400 c 0
 351 400 362 399 371 399 c 0
 425 399 453 407 453 417 c 0
 453 428 426 441 370 454 c 0
 356 457 340 459 324 459 c 0
 240 459 134 421 118 379 c 0
 112 365 109 352 109 340 c 0xf6
 109 284 177 251 353 211 c 0
 397 201 419 175 419 148 c 0
 419 118 390 86 336 80 c 0
 329 79 323 79 316 79 c 0
 284 79 253 86 241 98 c 0
 223 116 186 124 157 124 c 0
 133 124 113 119 113 107 c 0
 113 105 114 102 116 99 c 0
 141 58 214 36 289 36 c 0
 358 36 429 54 469 90 c 0
EndSplineSet
Validated: 1
EndChar

StartChar: t
Encoding: 116 116 5
Width: 464
Flags: W
HStem: -24 55<202.462 354.542> 318 73<328.075 366.141> 464 49<52 115 328.01 365.662> 597 86<205.996 297>
VStem: 30 48<394.651 459.832> 273 48<176.74 312.52 519.736 596.988> 364 70<-2 95.9934> 370 48<397.15 457.331>
LayerCount: 2
Fore
SplineSet
143 13 m 0xfe
 123 33 99 110 89 184 c 0
 80 258 63 324 51 332 c 0
 37 340 30 384 30 427 c 0
 30 471 38 513 52 513 c 0
 65 513 82 535 91 562 c 0
 107 613 219 683 284 683 c 0
 310 683 321 659 321 598 c 0
 321 529 330 513 370 513 c 0
 410 513 418 496 418 415 c 0
 418 334 410 318 370 318 c 0xfd
 332 318 321 301 321 245 c 0
 321 189 332 172 367 172 c 0
 398 172 417 148 427 96 c 0
 432 74 434 51 434 32 c 0
 434 16 432 4 429 -2 c 0
 419 -17 375 -24 324 -24 c 0
 252 -24 166 -10 143 13 c 0xfe
363 65 m 0
 364 67 364 68 364 70 c 0xfe
 364 84 346 99 322 105 c 0
 280 116 273 138 273 255 c 0
 273 375 278 391 321 391 c 0
 348 391 370 407 370 427 c 0
 370 448 348 464 321 464 c 0
 284 464 273 480 273 537 c 0
 273 580 271 597 256 597 c 0
 247 597 233 591 212 581 c 0
 179 566 151 533 151 509 c 0
 151 484 135 464 115 464 c 0
 95 464 78 447 78 427 c 0
 78 407 95 391 115 391 c 0
 143 391 151 359 151 246 c 0
 151 145 163 90 191 62 c 0
 212 41 250 31 284 31 c 0
 321 31 355 42 363 65 c 0
EndSplineSet
Validated: 1
EndChar

StartChar: u
Encoding: 117 117 6
Width: 618
Flags: W
HStem: -23.3779 45.4092<422.757 504.709> 460.622 48.7324<112.62 191.061 402.69 505.504>
VStem: 30 72.8428<96.6125 454.822> 199.966 72.8418<175.831 455.555> 340.688 53.5225<197.232 454.727> 347.868 240.589<350.893 509.354> 515.614 72.8428<28.6661 454.582>
LayerCount: 2
Fore
SplineSet
76.6669921875 23.9326171875 m 6xf2
 37.544921875 63.19140625 30 106.219726562 30 290.059570312 c 6
 30 509.354492188 l 5
 151.404296875 509.354492188 l 5
 272.807617188 509.354492188 l 5
 272.807617188 336.760742188 l 6
 272.807617188 209.5625 280.790039062 166.813476562 303.158203125 174.231445312 c 4
 322.374023438 180.602539062 336.142578125 243.921875 340.688476562 346.825195312 c 6xfa
 347.868164062 509.354492188 l 5
 468.162109375 509.354492188 l 5
 588.45703125 509.354492188 l 5xf4
 588.45703125 242.749023438 l 5
 588.45703125 -23.85546875 l 5
 355.895507812 -23.3779296875 l 6
 159.25390625 -22.9736328125 116.125976562 -15.6669921875 76.6669921875 23.931640625 c 6
 76.6669921875 23.9326171875 l 6xf2
297.087890625 58.580078125 m 4
 376.219726562 103.974609375 418.4921875 103.974609375 418.4921875 58.580078125 c 4
 418.4921875 38.2744140625 440.07421875 22.03125 467.052734375 22.03125 c 4
 512.017578125 22.03125 515.614257812 38.2744140625 515.614257812 241.326171875 c 4
 515.614257812 458.998046875 515.165039062 460.622070312 454.913085938 460.622070312 c 4
 396.587890625 460.622070312 394.2109375 454.612304688 394.2109375 307.115234375 c 4
 394.2109375 148.791015625 368.61328125 95.1298828125 293.0859375 95.1298828125 c 4
 230.685546875 95.1298828125 199.965820312 170.965820312 199.965820312 325.005859375 c 4
 199.965820312 444.377929688 194.1484375 460.622070312 151.404296875 460.622070312 c 4
 107.356445312 460.622070312 102.842773438 444.377929688 102.842773438 285.88671875 c 4
 102.842773438 157.485351562 113.498046875 99.3330078125 143.026367188 66.5908203125 c 4
 190.799804688 13.6162109375 216.387695312 12.28515625 297.087890625 58.580078125 c 4
EndSplineSet
Validated: 33
EndChar

StartChar: v
Encoding: 118 118 7
Width: 667
Flags: W
HStem: 0 49.1455<280.93 372.384> 487.324 48.7324<103.815 209.49 457.282 539.929>
LayerCount: 2
Fore
SplineSet
201.900390625 54.8251953125 m 4
 190.271484375 84.9775390625 146.836914062 194.911132812 105.37890625 299.12109375 c 4
 63.919921875 403.331054688 30 499.272460938 30 512.325195312 c 4
 30 525.377929688 84.30078125 536.056640625 150.668945312 536.056640625 c 6
 271.337890625 536.056640625 l 5
 303.333007812 425.94140625 l 5
 335.328125 315.827148438 l 5
 364.67578125 425.94140625 l 5
 394.024414062 536.056640625 l 5
 515.520507812 536.056640625 l 6
 582.34375 536.056640625 637.06640625 527.833007812 637.125 517.782226562 c 4
 637.174804688 507.731445312 592.276367188 387.118164062 537.331054688 249.75390625 c 6
 437.430664062 0 l 5
 330.237304688 0 l 6
 241.525390625 0 219.3984375 9.453125 201.900390625 54.8251953125 c 4
471.28125 268.44140625 m 4
 559.774414062 485.561523438 560.05078125 487.32421875 505.61328125 487.32421875 c 4
 459.225585938 487.32421875 444.465820312 464.702148438 410.229492188 341.126953125 c 4
 383.861328125 245.951171875 357.086914062 194.9296875 333.508789062 194.9296875 c 4
 309.930664062 194.9296875 283.15625 245.951171875 256.788085938 341.126953125 c 4
 222.1484375 466.15625 208.122070312 487.32421875 159.916992188 487.32421875 c 6
 103.549804688 487.32421875 l 5
 149.267578125 371.584960938 l 6
 276.143554688 50.37890625 277.071289062 48.724609375 330.075195312 49.1455078125 c 4
 372.618164062 49.4853515625 398.288085938 89.3486328125 471.28125 268.44140625 c 4
EndSplineSet
EndChar

StartChar: w
Encoding: 119 119 8
Width: 950
Flags: HW
HStem: -16.6777 48.7324<256.903 344.288> 470.646 48.7324<423.809 514.584>
LayerCount: 2
Fore
SplineSet
162.955078125 103.556640625 m 4
 142.157226562 160.512695312 103.016601562 267.418945312 75.9765625 341.126953125 c 4
 5.5048828125 533.224609375 7.810546875 539.959960938 141.079101562 531.299804688 c 4
 254.125976562 523.954101562 255.647460938 522.71875 281.01953125 417.6640625 c 6
 306.670898438 311.454101562 l 5
 336.6015625 423.755859375 l 6
 366.513671875 535.987304688 366.598632812 536.056640625 474.9140625 536.056640625 c 4
 581.279296875 536.056640625 583.8671875 534.143554688 614.022460938 433.139648438 c 6
 644.749023438 330.22265625 l 5
 671.698242188 427.048828125 l 6
 697.705078125 520.489257812 702.60546875 524.1328125 811.911132812 531.299804688 c 4
 950.84375 540.41015625 950.8515625 540.345703125 843.024414062 240.573242188 c 6
 760.874023438 12.18359375 l 5
 650.05859375 4.80859375 l 5
 539.244140625 -2.5654296875 l 5
 510.387695312 102.2734375 l 5
 481.53125 207.11328125 l 5
 446.381835938 103.556640625 l 6
 412.279296875 3.0810546875 408.102539062 0 306.000976562 0 c 4
 204.318359375 0 199.495117188 3.4921875 162.955078125 103.556640625 c 4
400.404296875 184.205078125 m 4
 455.532226562 359.706054688 510.150390625 356.987304688 558.2734375 176.346679688 c 4
 586.344726562 70.9765625 601.671875 48.732421875 646.20703125 48.732421875 c 4
 700.176757812 48.732421875 704.283203125 57.091796875 846.6796875 456.866210938 c 4
 853.034179688 474.706054688 837.418945312 487.32421875 808.986328125 487.32421875 c 4
 770.03515625 487.32421875 753.71875 459.668945312 726.400390625 347.344726562 c 4
 679.194335938 153.247070312 630.482421875 150.953125 573.40234375 340.140625 c 4
 536.758789062 461.592773438 519.7265625 487.32421875 475.981445312 487.32421875 c 4
 432.276367188 487.32421875 415.224609375 461.65625 378.859375 341.126953125 c 4
 354.345703125 259.879882812 320.692382812 194.9296875 303.108398438 194.9296875 c 4
 285.706054688 194.9296875 259.469726562 241.530273438 244.805664062 298.486328125 c 4
 230.141601562 355.442382812 212.594726562 421.23046875 205.8125 444.68359375 c 4
 199.030273438 468.135742188 172.833984375 487.32421875 147.598632812 487.32421875 c 4
 104.838867188 487.32421875 106.888671875 472.396484375 177.708984375 268.028320312 c 4
 241.56640625 83.7509765625 262.017578125 48.732421875 305.776367188 48.732421875 c 4
 347.674804688 48.732421875 366.165039062 75.205078125 400.404296875 184.205078125 c 4
EndSplineSet
EndChar

StartChar: x
Encoding: 120 120 9
Width: 667
Flags: W
HStem: 16 48<114.736 197.71 445.051 564.158> 503 49<101.281 223.438 442.539 541.967>
VStem: 30 84<39.5 113.797> 152 70<243.954 336.987>
LayerCount: 2
Fore
SplineSet
30 54 m 0
 30 74 57 132 91 181 c 0
 124 230 152 280 152 291 c 0
 152 302 124 351 91 400 c 0
 54 455 33 491 33 514 c 0
 33 546 73 552 162 552 c 0
 274 552 296 544 310 501 c 2
 326 450 l 1
 362 501 l 2
 389 541 423 552 517 552 c 0
 586 552 637 541 637 526 c 0
 637 511 606 454 567 397 c 2
 497 295 l 1
 566 198 l 2
 612 133 637 89 637 62 c 0
 637 27 598 16 517 16 c 0
 423 16 390 27 361 67 c 2
 325 119 l 1
 293 67 l 2
 268 26 237 16 146 16 c 0
 57 16 30 25 30 54 c 0
249 138 m 0
 277 178 316 211 335 211 c 0
 353 211 386 178 406 138 c 0
 433 86 462 64 505 64 c 2
 566 64 l 1
 504 155 l 2
 465 213 446 254 446 295 c 0
 446 332 462 370 493 421 c 2
 544 503 l 1
 494 503 l 2
 467 503 426 476 404 442 c 0
 382 409 351 381 334 381 c 0
 317 381 285 409 263 442 c 0
 238 480 201 503 162 503 c 2
 101 503 l 1
 162 422 l 2
 202 370 222 331 222 294 c 0
 222 262 208 230 180 190 c 0
 135 124 114 92 114 77 c 0
 114 66 126 64 148 64 c 0
 175 64 220 97 249 138 c 0
EndSplineSet
Validated: 1
EndChar

StartChar: z
Encoding: 122 122 10
Width: 596
VWidth: 25141
Flags: W
HStem: -9 49<111.675 512.418> 113 49<368.291 512.156> 357 49<133.573 231.722> 479 43<135.055 490.519> 509 20G<56 305>
VStem: 30 75<51.4716 131.542> 56 73<415.475 467.146> 494 67<413.718 466.367> 518 48<52.1094 101.431>
LayerCount: 2
Fore
SplineSet
48 8 m 0xf080
 36 20 30 37 30 56 c 0xf480
 30 106 66 176 132 248 c 2
 233 357 l 1
 145 357 l 2
 60 357 56 360 56 443 c 2
 56 529 l 1xea
 305 522 l 2
 536 516 555 512 561 465 c 0
 561 463 561 461 561 459 c 0xf3
 561 427 524 360 468 288 c 2
 368 162 l 1
 467 162 l 2
 564 162 566 160 566 77 c 2
 566 -9 l 1
 315 -9 l 2
 177 -9 57 -1 48 8 c 0xf080
518 77 m 0
 518 104 488 113 396 113 c 0
 317 113 279 121 279 150 c 0
 279 178 314 225 384 303 c 0
 444 370 494 437 494 452 c 0
 494 469 428 479 311 479 c 0
 166 479 129 471 129 442 c 0xf3
 129 416 156 406 226 406 c 0
 288 406 319 398 319 373 c 0
 319 348 284 304 214 235 c 0
 154 176 105 108 105 84 c 0
 105 45 129 40 311 40 c 0
 479 40 518 47 518 77 c 0
EndSplineSet
Validated: 1
EndChar

StartChar: asciitilde
Encoding: 126 126 11
Width: 618
VWidth: 25256
Flags: W
HStem: 267.709 51.29<339.019 457.353> 322.877 61.5908<125.378 268.851> 412 61.2285<352.298 485.879> 476.376 55.8906<144.163 261.795> 490.753 20G<531.903 557.685>
VStem: 30 51.3047<333.263 424.403> 513.295 74.7051<358.382 454.728>
LayerCount: 2
Fore
SplineSet
30 367 m 0xee
 30 435 44 479 72 500 c 0
 100.35546875 521.510742188 145.680664062 532.266601562 194.888671875 532.266601562 c 0xf6
 246.333984375 532.266601562 302.022460938 520.510742188 347 497 c 0
 378.108398438 481.15234375 401.637695312 473.228515625 422.845703125 473.228515625 c 0
 437.76953125 473.228515625 451.543945312 477.15234375 466 485 c 0
 497.821289062 501.995117188 522.581054688 510.752929688 541.225585938 510.752929688 c 0
 574.143554688 510.752929688 588 483.456054688 588 426 c 0
 588 325.364257812 519.135742188 267.708984375 416.904296875 267.708984375 c 0
 372.8515625 267.708984375 322.603515625 278.4140625 269 301 c 0
 233.693359375 315.626953125 210.8515625 322.876953125 190.338867188 322.876953125 c 0
 170.18359375 322.876953125 152.276367188 315.876953125 127 302 c 0
 92.205078125 282.669921875 69.81640625 271.559570312 55.44140625 271.559570312 c 0
 32.6337890625 271.559570312 30 299.526367188 30 367 c 0xee
429 412 m 0
 382 412 310 430 270 451 c 0
 236.743164062 467.876953125 217.037109375 476.375976562 199.01953125 476.375976562 c 0
 180.73828125 476.375976562 164.1953125 467.626953125 137 450 c 0
 99.7763671875 425.487304688 81.3046875 407.15625 81.3046875 395.474609375 c 0
 81.3046875 385.512695312 94.7373046875 380.387695312 121.427734375 380.387695312 c 0
 132.387695312 380.387695312 145.58203125 381.251953125 161 383 c 0
 168.463867188 383.995117188 176.532226562 384.467773438 184.978515625 384.467773438 c 0
 227.455078125 384.467773438 279.46875 372.516601562 312 355 c 0
 358.578125 329.79296875 374.528320312 318.999023438 391.442382812 318.999023438 c 0
 405.39453125 318.999023438 420.002929688 326.34375 453 339 c 0
 493.658203125 354.359375 513.294921875 370.739257812 513.294921875 384.083984375 c 0
 513.294921875 400.27734375 484.373046875 412 429 412 c 0
EndSplineSet
Validated: 1
EndChar

StartChar: g
Encoding: 103 103 12
Width: 637
VWidth: 18263
Flags: W
HStem: -36.5039 68.9209<285.735 349.419> 519.746 45.2148<441.396 522.764>
VStem: 48.6299 72.8516<-49.2912 5.16908> 534.25 72.8271<60.9387 501.966>
LayerCount: 2
Fore
SplineSet
182.174804688 -145 m 4
 102.70703125 -125.56640625 48.6298828125 -62.0654296875 48.6298828125 11.8115234375 c 0
 48.6298828125 60.078125 60.8369140625 81.1474609375 88.8154296875 81.1474609375 c 0
 125.485351562 81.1474609375 125.314453125 85.224609375 86.7646484375 127.998046875 c 0
 -2.6396484375 227.119140625 17.6484375 488.349609375 118.966796875 542.744140625 c 0
 140.622070312 554.389648438 259.298828125 564.375 382.711914062 564.9609375 c 2
 607.077148438 566.03515625 l 1
 607.077148438 298.017578125 l 2
 607.077148438 -9.794921875 578.390625 -93.583984375 458.517578125 -135.502929688 c 4
 380.319335938 -162.87109375 270.700195312 -166.630859375 182.174804688 -145 c 4
485.690429688 -40.6787109375 m 0
 528.073242188 1.8505859375 534.25 40.546875 534.25 263.88671875 c 0
 534.25 503.486328125 531.173828125 519.74609375 485.690429688 519.74609375 c 0
 458.712890625 519.74609375 437.130859375 503.486328125 437.130859375 483.198242188 c 0
 437.130859375 435.688476562 409.127929688 437.055664062 319.040039062 488.959960938 c 0
 248.141601562 529.780273438 243.161132812 529.487304688 177.438476562 480.415039062 c 0
 79.025390625 406.977539062 69.357421875 253.046875 157.58984375 164.521484375 c 0
 195.28515625 126.6796875 235.91015625 106.977539062 258.346679688 115.595703125 c 0
 279.025390625 123.579101562 322.995117188 136.909179688 356.051757812 145.209960938 c 0
 413.083007812 159.58984375 415.744140625 155.561523438 408.419921875 65.9375 c 0
 401.583984375 -17.75390625 392.770507812 -29.423828125 330.978515625 -36.50390625 c 0
 292.624023438 -40.8984375 249.459960938 -32.6708984375 235.055664062 -18.2177734375 c 0
 202.731445312 14.228515625 121.481445312 16.4501953125 121.481445312 -15.1171875 c 0
 121.481445312 -98.125 408.37109375 -118.291015625 485.690429688 -40.6787109375 c 0
218.551757812 239.66796875 m 0
 183.981445312 330.903320312 212.643554688 419.84375 282.296875 437.397460938 c 0
 371.237304688 459.78515625 416.4765625 406.879882812 407.98046875 290.375976562 c 0
 401.193359375 197.602539062 395.28515625 190.278320312 321.774414062 183.149414062 c 0
 255.514648438 176.752929688 238.9375 185.810546875 218.551757812 239.66796875 c 0
352.145507812 312.958984375 m 0
 352.145507812 381.147460938 281.02734375 373.579101562 271.26171875 304.365234375 c 0
 265.01171875 260.17578125 273.190429688 249.311523438 307.6875 255.9765625 c 0
 332.98046875 260.859375 352.145507812 285.419921875 352.145507812 312.958984375 c 0
350.75390625 54.51171875 m 0
 358.224609375 66.669921875 342.477539062 70.869140625 315.744140625 63.837890625 c 0
 259.0546875 48.9697265625 251.901367188 32.4169921875 302.145507812 32.4169921875 c 0
 321.383789062 32.4169921875 343.258789062 42.353515625 350.75390625 54.51171875 c 0
EndSplineSet
Validated: 33
EndChar

StartChar: j
Encoding: 106 106 13
Width: 395
VWidth: 25229
Flags: W
HStem: 487.474 97.4609<206.579 306.304>
VStem: 128.046 67.7246<138.291 477.579> 135.077 60.6934<591.944 651.028> 317.182 48.5596<96.7198 462.893 591.944 651.028>
LayerCount: 2
Fore
SplineSet
65.716796875 -178.6640625 m 0xb0
 29.5107421875 -168.361328125 23.6025390625 -150.709960938 35.6875 -88.9423828125 c 0
 43.9638671875 -46.6328125 66.546875 -0.1728515625 85.8828125 14.3291015625 c 0
 112.8359375 34.5439453125 122.674804688 116.892578125 128.045898438 367.625 c 2xd0
 135.077148438 694.578125 l 1
 250.409179688 702 l 1
 365.741210938 709.446289062 l 1
 365.741210938 310.715820312 l 2
 365.741210938 24.3876953125 356.927734375 -100.075195312 334.540039062 -130.8125 c 0
 302.508789062 -174.7578125 148.407226562 -202.19921875 65.716796875 -178.6640625 c 0xb0
285.907226562 -48.5859375 m 0
 304.120117188 -12.2578125 316.595703125 108.274414062 316.815429688 249.900390625 c 0
 317.181640625 487.15625 317.083984375 487.473632812 256.463867188 487.473632812 c 0
 195.770507812 487.473632812 195.770507812 487.44921875 195.770507812 244.016601562 c 0
 195.770507812 26.951171875 190.497070312 -2.736328125 147.2109375 -29.8603515625 c 0
 70.1357421875 -78.17578125 86.4443359375 -125.954101562 176.99609375 -117.140625 c 0
 231.805664062 -111.793945312 264.544921875 -91.1884765625 285.907226562 -48.5859375 c 0
317.181640625 621.482421875 m 0
 317.181640625 644.236328125 294.232421875 658.030273438 256.463867188 658.030273438 c 0
 218.6953125 658.030273438 195.770507812 644.236328125 195.770507812 621.482421875 c 0xb0
 195.770507812 598.752929688 218.6953125 584.934570312 256.463867188 584.934570312 c 0
 294.232421875 584.934570312 317.181640625 598.752929688 317.181640625 621.482421875 c 0
EndSplineSet
Validated: 33
EndChar

StartChar: p
Encoding: 112 112 14
Width: 639
VWidth: 21603
Flags: W
HStem: -165 48.7061<115.82 192.072> 492.861 46.3135<115.82 195.681>
VStem: 30 72.8271<-50.5613 427.144> 199.946 72.8516<-111.384 -4.64615> 357.799 60.6777<210.324 328.542>
LayerCount: 2
Fore
SplineSet
30 187.465820312 m 1
 30 539.956054688 l 1
 240.986328125 539.174804688 l 2
 486.518554688 538.247070312 531.000976562 520.180664062 580.48828125 401.333007812 c 0
 664.350585938 199.892578125 559.370117188 5.556640625 366.645507812 5.556640625 c 0
 275.581054688 5.556640625 272.797851562 3.017578125 272.797851562 -79.7216796875 c 2
 272.797851562 -165 l 1
 151.38671875 -165 l 1
 30 -165 l 1
 30 187.465820312 l 1
199.946289062 -20.2490234375 m 2
 199.946289062 95.0341796875 227.973632812 117.470703125 322.67578125 78.0908203125 c 0
 382.172851562 53.3837890625 403.901367188 55.0439453125 454.389648438 88.2470703125 c 0
 567.817382812 162.83203125 565.64453125 385.756835938 450.751953125 461.293945312 c 0
 391.962890625 499.94140625 383.759765625 499.94140625 316.376953125 461.098632812 c 0
 227.94921875 410.1953125 199.946289062 409.047851562 199.946289062 456.313476562 c 0
 199.946289062 476.625976562 178.364257812 492.861328125 151.38671875 492.861328125 c 0
 105.415039062 492.861328125 102.827148438 476.625976562 102.827148438 188.295898438 c 0
 102.827148438 -100.034179688 105.415039062 -116.293945312 151.38671875 -116.293945312 c 0
 191.743164062 -116.293945312 199.946289062 -100.034179688 199.946289062 -20.2490234375 c 2
248.530273438 176.11328125 m 0
 190.180664062 234.658203125 186.884765625 292.739257812 237.763671875 365.615234375 c 0
 313.276367188 473.818359375 418.4765625 417.885742188 418.4765625 269.5703125 c 0
 418.4765625 203.798828125 405.1953125 170.693359375 371.528320312 152.602539062 c 0
 308.857421875 118.959960938 304.682617188 119.765625 248.530273438 176.11328125 c 0
357.798828125 271.586914062 m 0
 357.798828125 338.359375 303.74609375 366.020507812 282.383789062 310.161132812 c 0
 262.291015625 257.59765625 290.245117188 192.119140625 327.4765625 204.5703125 c 0
 344.151367188 210.161132812 357.798828125 240.3125 357.798828125 271.586914062 c 0
EndSplineSet
Validated: 33
EndChar

StartChar: q
Encoding: 113 113 15
Width: 618
VWidth: 24913
Flags: W
HStem: 505.452 36.5479<437.628 513.842>
VStem: 357.808 48.5596<-98.5046 29.8307> 527.754 60.7178<-103.703 423.961>
LayerCount: 2
Fore
SplineSet
357.807617188 -155.094726562 m 1
 357.807617188 -93.1728515625 357.807617188 -31.25 357.807617188 30.671875 c 1
 254.609375 22.4443359375 l 2
 168.37890625 15.5595703125 141.450195312 24.861328125 90.7177734375 79.0361328125 c 0
 39.86328125 133.357421875 30 167.68359375 30 290.2421875 c 0
 30 419.63671875 37.7392578125 443.245117188 96.69921875 494.1484375 c 0
 157.026367188 546.223632812 183.759765625 551.252929688 375.947265625 546.858398438 c 2
 588.471679688 542 l 1
 588.471679688 314.583007812 588.471679688 87.166015625 588.471679688 -140.250976562 c 1
 511.583984375 -145.19921875 434.6953125 -150.146484375 357.807617188 -155.094726562 c 1
479.194335938 505.452148438 m 0
 452.216796875 505.452148438 430.634765625 489.216796875 430.634765625 468.904296875 c 0
 430.634765625 422.688476562 408.344726562 422.95703125 313.862304688 470.247070312 c 0
 256.538085938 498.93359375 226.313476562 501.765625 189.27734375 481.868164062 c 0
 73.1640625 419.514648438 53.2177734375 224.104492188 152.778320312 124.202148438 c 0
 214.5703125 62.1904296875 218.452148438 61.873046875 363.862304688 107.844726562 c 0
 400.141601562 119.319335938 406.3671875 104.79296875 406.3671875 8.796875 c 0
 406.3671875 -94.9384765625 411.079101562 -103.703125 467.060546875 -103.703125 c 2
 527.75390625 -103.703125 l 1
 527.75390625 200.88671875 l 2
 527.75390625 489.216796875 525.166015625 505.452148438 479.194335938 505.452148438 c 0
220.795898438 202.766601562 m 0
 149.262695312 312.336914062 251.728515625 480.452148438 351.728515625 417.5859375 c 0
 412.666015625 379.280273438 423.06640625 212.483398438 367.060546875 171.39453125 c 0
 303.583984375 124.8125 266.499023438 132.771484375 220.795898438 202.766601562 c 0
346.430664062 264.241210938 m 0
 364.521484375 321.443359375 327.729492188 373.591796875 287.080078125 348.396484375 c 0
 257.9296875 330.305664062 251.459960938 254.817382812 276.875 229.3046875 c 0
 305.9765625 200.10546875 329.951171875 212.141601562 346.430664062 264.241210938 c 0
EndSplineSet
Validated: 33
EndChar

StartChar: e
Encoding: 101 101 16
Width: 656
VWidth: 18358
Flags: W
HStem: 515 20G<264.396 400.553>
VStem: 223.404 218.53<299.856 397.3>
LayerCount: 2
Fore
SplineSet
153.23828125 31.5576171875 m 0
 74.380859375 77.28515625 31.0458984375 163.076171875 30.0205078125 275.478515625 c 0
 29.3369140625 350.307617188 45.865234375 386.049804688 111.709960938 452.138671875 c 0
 184.219726562 524.916992188 209.48828125 535 319.302734375 535 c 0
 481.802734375 535 576.309570312 484.8046875 610.684570312 380.3125 c 0
 645.499023438 274.453125 619.424804688 110.805664062 559.024414062 55.947265625 c 0
 497.305664062 -0.107421875 235.049804688 -15.87890625 153.23828125 31.5576171875 c 0
438.296875 74.404296875 m 0
 480.362304688 89.1259765625 514.76171875 111.049804688 514.76171875 123.159179688 c 0
 514.76171875 153.090820312 424.185546875 151.11328125 405.508789062 120.766601562 c 0
 384.756835938 87.0751953125 287.881835938 90.17578125 252.530273438 125.649414062 c 0
 236.514648438 141.713867188 223.404296875 180.092773438 223.404296875 210.927734375 c 0
 223.404296875 264.052734375 232.193359375 266.958007812 393.375 266.958007812 c 0
 585.611328125 266.958007812 604.01953125 289.8828125 504.727539062 405.703125 c 0
 425.186523438 498.500976562 258.072265625 503.090820312 164.6640625 415.004882812 c 0
 82.1201171875 337.197265625 78.2626953125 199.6484375 156.631835938 128.115234375 c 0
 248.16015625 44.5458984375 315.982421875 31.630859375 438.296875 74.404296875 c 0
223.404296875 335.1953125 m 0
 223.404296875 393.764648438 270.1328125 437.514648438 332.657226562 437.514648438 c 0
 395.206054688 437.514648438 441.934570312 393.764648438 441.934570312 335.1953125 c 0
 441.934570312 299.453125 421.6953125 291.323242188 332.657226562 291.323242188 c 0
 243.643554688 291.323242188 223.404296875 299.453125 223.404296875 335.1953125 c 0
362.515625 354.775390625 m 0
 354.434570312 362.880859375 333.51171875 363.735351562 315.982421875 356.704101562 c 0
 296.59765625 348.916015625 302.359375 343.154296875 330.630859375 341.982421875 c 0
 356.241210938 340.932617188 370.572265625 346.669921875 362.515625 354.775390625 c 0
EndSplineSet
Validated: 33
EndChar

StartChar: f
Encoding: 102 102 17
Width: 479
VWidth: 24994
Flags: W
HStem: 497.437 170.581<251.509 348.066>
VStem: 30 72.8271<424.801 497.083> 102.827 230.664<22.3145 171.5> 102.827 48.5596<64.3971 345.824 550.156 587.284> 272.798 68.042<64.2603 326.473>
LayerCount: 2
Fore
SplineSet
102.827148438 176.733398438 m 4x90
 102.827148438 304.736328125 93.9404296875 349.462890625 66.4013671875 360.05859375 c 4
 43.5498046875 368.872070312 30 406.127929688 30 460.131835938 c 4xc0
 30 520.361328125 40.9130859375 546.166992188 66.4013671875 546.166992188 c 4
 86.4453125 546.166992188 102.827148438 566.40625 102.827148438 591.137695312 c 4
 102.827148438 676.123046875 183.588867188 720.1171875 324.775390625 712.01171875 c 4
 468.647460938 703.759765625 462.641601562 716.11328125 429.438476562 497.436523438 c 4
 420.283203125 437.133789062 398.26171875 376.049804688 380.48828125 361.669921875 c 4
 361.323242188 346.166992188 345.209960938 271.875 340.83984375 178.930664062 c 6x98
 333.491210938 22.314453125 l 5xa0
 218.159179688 14.8681640625 l 5
 102.827148438 7.4462890625 l 5
 102.827148438 176.733398438 l 4x90
272.797851562 231.689453125 m 4x98
 272.797851562 384.057617188 278.559570312 406.0546875 321.357421875 417.28515625 c 4
 348.06640625 424.291992188 369.916992188 445.190429688 369.916992188 463.745117188 c 4
 369.916992188 482.275390625 348.06640625 497.436523438 321.357421875 497.436523438 c 4
 251.508789062 497.436523438 261.201171875 567.333984375 334.956054688 595.458984375 c 4
 408.61328125 623.559570312 391.962890625 668.017578125 307.783203125 668.017578125 c 4
 241.865234375 668.017578125 151.38671875 590.478515625 151.38671875 533.984375 c 4x98
 151.38671875 513.891601562 140.473632812 497.436523438 127.119140625 497.436523438 c 4
 113.764648438 497.436523438 102.827148438 481.005859375 102.827148438 460.888671875 c 4xc0
 102.827148438 440.795898438 113.764648438 424.340820312 127.119140625 424.340820312 c 4
 141.1328125 424.340820312 151.38671875 347.192382812 151.38671875 241.6015625 c 4
 151.38671875 62.9150390625 152.75390625 58.8623046875 212.104492188 58.8623046875 c 4
 271.137695312 58.8623046875 272.797851562 63.57421875 272.797851562 231.689453125 c 4x98
EndSplineSet
Validated: 33
EndChar

StartChar: h
Encoding: 104 104 18
Width: 618
VWidth: 25126
Flags: W
HStem: 2.38379 48.7305<115.844 190.956 404.793 506.036> 660.27 48.7305<115.844 191.803>
VStem: 30 72.8516<116.832 594.537> 199.971 72.8516<56.0621 303.129 528.841 655.088> 340.693 48.5596<63.1638 318.338> 347.871 240.601<2.38379 162.765> 515.62 72.8516<56.8114 420.619>
LayerCount: 2
Fore
SplineSet
30 2.3837890625 m 1xf8
 30 237.922851562 30 473.4609375 30 709 c 1
 110.940429688 709 191.881835938 709 272.822265625 709 c 1
 272.822265625 647.96484375 272.822265625 586.9296875 272.822265625 525.89453125 c 1
 378.608398438 534.341796875 l 2
 470.014648438 541.641601562 491.474609375 533.755859375 536.420898438 476.407226562 c 0
 580.1953125 420.572265625 588.471679688 377.65234375 588.471679688 206.192382812 c 2xfa
 588.471679688 2.3837890625 l 1
 508.271484375 2.3837890625 428.071289062 2.3837890625 347.87109375 2.3837890625 c 1xf4
 340.693359375 166.836914062 l 2
 336.73828125 257.315429688 322.578125 331.314453125 309.223632812 331.314453125 c 0
 295.869140625 331.314453125 281.733398438 257.315429688 277.778320312 166.836914062 c 2
 270.600585938 2.3837890625 l 1
 190.400390625 2.3837890625 110.200195312 2.3837890625 30 2.3837890625 c 1xf8
322.724609375 388.467773438 m 0
 378.120117188 380.606445312 382.563476562 369.107421875 389.252929688 215.567382812 c 0
 396.088867188 59.1708984375 399.360351562 51.1142578125 456.025390625 51.1142578125 c 0
 513.984375 51.1142578125 515.620117188 56.119140625 515.620117188 233.291992188 c 0
 515.620117188 399.209960938 510.37109375 418.936523438 456.7578125 454.166015625 c 0
 402.973632812 489.541992188 391.450195312 489.517578125 322.504882812 453.750976562 c 0
 223.603515625 402.408203125 199.970703125 421.377929688 199.970703125 552.041992188 c 0
 199.970703125 644.009765625 192.670898438 660.26953125 151.411132812 660.26953125 c 0
 105.439453125 660.26953125 102.8515625 644.009765625 102.8515625 355.6796875 c 0
 102.8515625 67.349609375 105.439453125 51.1142578125 151.411132812 51.1142578125 c 0
 193.8671875 51.1142578125 199.970703125 67.349609375 199.970703125 180.459960938 c 0
 199.970703125 333.731445312 239.252929688 400.284179688 322.724609375 388.467773438 c 0
EndSplineSet
Validated: 33
EndChar

StartChar: i
Encoding: 105 105 19
Width: 299
VWidth: 25169
Flags: W
HStem: 17.5664 48.7305<109.8 210.826> 504.896 97.4609<109.65 210.826>
VStem: 31.8447 67.7002<165.04 498.853 609.366 668.45> 220.932 48.584<72.3386 498.853 609.366 668.45>
LayerCount: 2
Fore
SplineSet
37.142578125 49.7685546875 m 0
 30.3798828125 67.46875 27.9873046875 223.71875 31.8447265625 396.985351562 c 2
 38.8271484375 712 l 1
 154.159179688 719.421875 l 1
 269.515625 726.868164062 l 1
 269.515625 372.205078125 l 1
 269.515625 17.56640625 l 1
 159.481445312 17.56640625 l 2
 90.6826171875 17.56640625 44.8330078125 29.626953125 37.142578125 49.7685546875 c 0
220.931640625 285.583984375 m 0
 220.931640625 503.259765625 220.4921875 504.895507812 160.23828125 504.895507812 c 0
 99.984375 504.895507812 99.544921875 503.259765625 99.544921875 285.583984375 c 0
 99.544921875 67.9326171875 99.984375 66.296875 160.23828125 66.296875 c 0
 220.4921875 66.296875 220.931640625 67.9326171875 220.931640625 285.583984375 c 0
220.931640625 638.904296875 m 0
 220.931640625 661.658203125 198.006835938 675.452148438 160.23828125 675.452148438 c 0
 122.469726562 675.452148438 99.544921875 661.658203125 99.544921875 638.904296875 c 0
 99.544921875 616.174804688 122.469726562 602.356445312 160.23828125 602.356445312 c 0
 198.006835938 602.356445312 220.931640625 616.174804688 220.931640625 638.904296875 c 0
EndSplineSet
Validated: 33
EndChar

StartChar: k
Encoding: 107 107 20
Width: 654
VWidth: 24742
Flags: W
HStem: -13.6562 48.7305<115.82 194.796 428.801 533.955> 132.535 97.4609<279.528 318.119> 644.229 48.7305<115.82 190.534>
VStem: 30 72.8271<100.807 578.512> 199.946 72.8516<41.1206 132.306 464.504 638.952>
LayerCount: 2
Fore
SplineSet
30 -13.65625 m 1
 30 221.8828125 30 457.420898438 30 692.959960938 c 1
 110.932617188 692.959960938 191.865234375 692.959960938 272.797851562 692.959960938 c 1
 272.797851562 567.349609375 l 2
 272.797851562 447.208007812 274.7265625 443.497070312 317.20703125 482.071289062 c 0
 370.747070312 530.704101562 612.71484375 539.737304688 612.71484375 493.106445312 c 0
 612.71484375 476.993164062 580.732421875 430.38671875 541.596679688 389.541992188 c 2
 470.478515625 315.274414062 l 1
 554.12109375 173.453125 l 2
 600.1171875 95.4501953125 631.46484375 21.4267578125 623.798828125 8.9755859375 c 0
 616.1328125 -3.4755859375 557.197265625 -13.65625 492.841796875 -13.65625 c 0
 385.688476562 -13.65625 373.26171875 -7.4794921875 345.649414062 59.439453125 c 0
 329.047851562 99.6494140625 305.854492188 132.53515625 294.135742188 132.53515625 c 0
 282.392578125 132.53515625 272.797851562 99.6494140625 272.797851562 59.439453125 c 0
 272.797851562 -12.044921875 270.087890625 -13.65625 151.38671875 -13.65625 c 2
 30 -13.65625 l 1
306.904296875 229.99609375 m 0
 324.140625 229.99609375 357.978515625 186.1484375 382.05078125 132.53515625 c 0
 415.7421875 57.6083984375 439.497070312 35.07421875 484.8828125 35.07421875 c 0
 517.353515625 35.07421875 540.229492188 43.3017578125 535.688476562 53.3359375 c 0
 531.171875 63.39453125 496.650390625 130.459960938 459.00390625 202.383789062 c 2
 390.522460938 333.12109375 l 1
 435.241210938 379.971679688 479.959960938 426.822265625 524.677734375 473.672851562 c 1
 465.522460938 473.892578125 l 2
 428.364257812 474.0390625 382.783203125 445.328125 343.061523438 396.841796875 c 0
 247.211914062 279.849609375 199.946289062 313.028320312 199.946289062 497.28125 c 0
 199.946289062 627.994140625 194.575195312 644.229492188 151.38671875 644.229492188 c 0
 105.415039062 644.229492188 102.827148438 627.994140625 102.827148438 339.6640625 c 0
 102.827148438 51.333984375 105.415039062 35.07421875 151.38671875 35.07421875 c 0
 181.733398438 35.07421875 199.946289062 51.333984375 199.946289062 78.384765625 c 0
 199.946289062 135.025390625 266.938476562 229.99609375 306.904296875 229.99609375 c 0
EndSplineSet
Validated: 33
EndChar

StartChar: l
Encoding: 108 108 21
Width: 302
VWidth: 25250
Flags: W
HStem: 0 48.7305<102.852 224.238> 657.886 48.7305<102.852 224.238>
VStem: 30 72.8516<48.7305 657.886> 224.238 48.584<48.7305 657.886>
LayerCount: 2
Fore
SplineSet
30 0 m 1
 30 235.5390625 30 471.077148438 30 706.616210938 c 1
 110.940429688 706.616210938 191.881835938 706.616210938 272.822265625 706.616210938 c 1
 272.822265625 471.077148438 272.822265625 235.5390625 272.822265625 0 c 1
 191.881835938 0 110.940429688 0 30 0 c 1
224.23828125 48.73046875 m 1
 224.23828125 251.782226562 224.23828125 454.833984375 224.23828125 657.885742188 c 1
 183.776367188 657.885742188 143.313476562 657.885742188 102.8515625 657.885742188 c 1
 102.8515625 454.833984375 102.8515625 251.782226562 102.8515625 48.73046875 c 1
 143.313476562 48.73046875 183.776367188 48.73046875 224.23828125 48.73046875 c 1
EndSplineSet
Validated: 1
EndChar

StartChar: m
Encoding: 109 109 22
Width: 909
VWidth: 24915
Flags: W
HStem: 0 48.7305<113.739 191.365 718.306 823.072> 487.305 46.0693<113.739 195.681>
VStem: 30 240.576<0 160.381> 30 72.8271<55.364 480.671> 200.288 77.4658<54.095 311.782> 340.718 53.4912<54.0597 313.626> 347.92 228.394<11.9513 158.531> 515.596 67.8955<54.7152 326.961> 637.007 72.8516<54.6579 333.325> 831.245 48.5596<54.2286 362.078>
LayerCount: 2
Fore
SplineSet
30 533.374023438 m 1xd0c0
 409.760742188 531.298828125 l 2
 887.080078125 528.662109375 879.8046875 533.49609375 879.8046875 219.287109375 c 2
 879.8046875 0 l 1
 798.872070312 0 717.939453125 0 637.006835938 0 c 1
 637.006835938 170.556640625 l 2
 637.006835938 388.989257812 592.963867188 393.994140625 583.491210938 176.635742188 c 2xd1c0
 576.313476562 12.1826171875 l 1
 500.193359375 7.248046875 424.0625 2.32421875 347.919921875 -2.587890625 c 1xc2c0
 340.717773438 163.18359375 l 2
 331.391601562 377.221679688 287.080078125 378.125 277.75390625 164.453125 c 2xccc0
 270.576171875 0 l 1
 30 0 l 1xe0c0
 30 533.374023438 l 1xd0c0
271.9921875 401.782226562 m 0
 368.427734375 432.495117188 394.208984375 393.45703125 394.208984375 216.674804688 c 0
 394.208984375 53.759765625 396.015625 48.73046875 454.90234375 48.73046875 c 0
 513.447265625 48.73046875 515.595703125 54.3701171875 515.595703125 207.6171875 c 0
 515.595703125 352.978515625 520.72265625 368.872070312 575.581054688 393.9453125 c 0
 673.45703125 438.696289062 709.858398438 387.231445312 709.858398438 204.125976562 c 0
 709.858398438 54.6142578125 712.153320312 48.73046875 770.551757812 48.73046875 c 0
 827.729492188 48.73046875 831.245117188 56.2744140625 831.245117188 179.1015625 c 0
 831.245117188 432.958984375 754.487304688 524.340820312 605.9765625 447.265625 c 0
 540.05859375 413.061523438 526.923828125 413.549804688 454.169921875 452.880859375 c 0
 379.365234375 493.286132812 370.698242188 493.432617188 312.348632812 455.078125 c 0
 235.46875 404.516601562 199.946289062 403.149414062 199.946289062 450.756835938 c 0
 199.946289062 471.069335938 178.364257812 487.3046875 151.38671875 487.3046875 c 0
 106.440429688 487.3046875 102.827148438 471.069335938 102.827148438 268.017578125 c 0
 102.827148438 64.9658203125 106.440429688 48.73046875 151.38671875 48.73046875 c 0
 193.0859375 48.73046875 199.995117188 65.087890625 200.288085938 164.453125 c 0xddc0
 200.727539062 319.091796875 220.795898438 385.473632812 271.9921875 401.782226562 c 0
EndSplineSet
Validated: 33
EndChar

StartChar: n
Encoding: 110 110 23
Width: 618
VWidth: 25098
Flags: W
HStem: -0.0244141 48.7305<113.739 191.365 403.227 505.953> 487.305 45.4102<113.739 195.681>
VStem: 30 240.576<0 160.381> 30 72.8271<55.3438 480.671> 200.288 77.4658<54.0711 315.911> 340.669 53.54<54.0597 313.626> 347.847 240.601<-0.0244141 160.38> 515.596 72.8516<54.2551 416.369>
LayerCount: 2
Fore
SplineSet
30 533.203125 m 1xd0
 260.37109375 532.71484375 l 2
 478.315429688 532.275390625 493.403320312 528.881835938 539.619140625 469.946289062 c 0
 579.70703125 418.798828125 588.447265625 371.118164062 588.447265625 203.80859375 c 2xd1
 588.447265625 -0.0244140625 l 1
 508.247070312 -0.0244140625 428.046875 -0.0244140625 347.846679688 -0.0244140625 c 1xc2
 340.668945312 164.453125 l 2
 336.73828125 254.931640625 322.578125 328.930664062 309.223632812 328.930664062 c 0
 295.869140625 328.930664062 281.708984375 254.931640625 277.75390625 164.453125 c 2xcc
 270.576171875 0 l 1
 190.383789062 0 110.192382812 0 30 0 c 1xe0
 30 177.734375 30 355.46875 30 533.203125 c 1xd0
271.9921875 401.782226562 m 0
 368.427734375 432.495117188 394.208984375 393.45703125 394.208984375 216.674804688 c 0
 394.208984375 53.759765625 396.015625 48.73046875 454.90234375 48.73046875 c 0
 514.228515625 48.73046875 515.595703125 52.8076171875 515.595703125 230.908203125 c 0
 515.595703125 397.631835938 510.517578125 416.430664062 455.78125 452.416992188 c 0
 400.971679688 488.452148438 389.448242188 488.500976562 318.500976562 452.978515625 c 0
 222.236328125 404.78515625 199.946289062 404.370117188 199.946289062 450.756835938 c 0
 199.946289062 471.069335938 178.364257812 487.3046875 151.38671875 487.3046875 c 0
 106.440429688 487.3046875 102.827148438 471.069335938 102.827148438 268.017578125 c 0
 102.827148438 64.9658203125 106.440429688 48.7060546875 151.38671875 48.7060546875 c 0
 193.0859375 48.7060546875 199.995117188 65.0634765625 200.288085938 164.453125 c 0xdd
 200.727539062 319.091796875 220.795898438 385.473632812 271.9921875 401.782226562 c 0
EndSplineSet
Validated: 33
EndChar

StartChar: o
Encoding: 111 111 24
Width: 651
VWidth: 25099
Flags: W
HStem: 0 21G<267.45 386.224> 0 21G<267.45 386.224> 474.023 62.0361<218.909 427.634>
LayerCount: 2
Fore
SplineSet
107.623046875 85.9375 m 0xa0
 28.2041015625 165.625 22.90625 180.200195312 34.8203125 286.157226562 c 0
 53.5703125 453.247070312 151.934570312 536.059570312 331.646484375 536.059570312 c 0
 444.073242188 536.059570312 476.592773438 525.146484375 543.731445312 464.916992188 c 0
 614.80078125 401.147460938 622.833007812 380.590820312 621.172851562 266.333007812 c 0
 619.537109375 154.931640625 609.551757812 130.126953125 541.875976562 69.43359375 c 0
 476.32421875 10.6689453125 443.609375 0 328.838867188 0 c 0
 206.060546875 0 185.162109375 8.10546875 107.623046875 85.9375 c 0xa0
481.744140625 110.302734375 m 0
 590.09375 181.54296875 585.186523438 357.739257812 472.784179688 431.640625 c 0
 437.334960938 454.956054688 365.313476562 474.0234375 312.774414062 474.0234375 c 0
 143.12109375 474.0234375 43.8046875 287.670898438 139.99609375 149.877929688 c 0
 213.213867188 44.9951171875 357.0859375 28.3447265625 481.744140625 110.302734375 c 0
247.881835938 144.921875 m 0
 203.741210938 172.94921875 201.71484375 323.315429688 244.78125 375.390625 c 0
 282.720703125 421.264648438 370.611328125 426.318359375 411.7734375 384.985351562 c 0
 449.46875 347.16796875 449.46875 188.891601562 411.7734375 151.07421875 c 0
 377.325195312 116.50390625 297.369140625 113.500976562 247.881835938 144.921875 c 0
391.973632812 266.6015625 m 0
 390.875 307.8125 343.51171875 346.215820312 309.8203125 333.251953125 c 0
 263.62890625 315.478515625 258.74609375 241.284179688 300.982421875 198.901367188 c 0
 324.834960938 174.975585938 337.310546875 177.44140625 361.67578125 210.864257812 c 0
 378.545898438 234.033203125 392.193359375 259.106445312 391.973632812 266.6015625 c 0
EndSplineSet
EndChar

StartChar: r
Encoding: 114 114 25
Width: 473
VWidth: 25000
Flags: W
HStem: 0 48.7305<113.753 192.715> 341.113 48.7305<300.71 350.577> 487.329 46.2891<113.753 195.706>
VStem: 30 72.8516<55.364 480.691> 200.117 72.7051<53.8301 287.107>
LayerCount: 2
Fore
SplineSet
30 0 m 1
 30 178.1328125 30 356.266601562 30 534.399414062 c 1
 236.396484375 533.618164062 l 2
 458.076171875 532.8125 463.056640625 529.19921875 427.485351562 395.947265625 c 0
 417.744140625 359.448242188 394.35546875 341.11328125 357.563476562 341.11328125 c 0
 289.204101562 341.11328125 272.822265625 300.68359375 272.822265625 132.006835938 c 2
 272.822265625 0 l 1
 191.881835938 0 110.940429688 0 30 0 c 1
200.1171875 127.9296875 m 0
 200.361328125 269.677734375 245.72265625 389.84375 298.994140625 389.84375 c 0
 325.5078125 389.84375 353.657226562 406.787109375 361.567382812 427.465820312 c 0
 383.61328125 485.107421875 351.118164062 499.829101562 301.411132812 454.6875 c 0
 245.991210938 404.345703125 199.970703125 402.563476562 199.970703125 450.78125 c 0
 199.970703125 471.069335938 178.388671875 487.329101562 151.411132812 487.329101562 c 0
 106.440429688 487.329101562 102.8515625 471.069335938 102.8515625 268.017578125 c 0
 102.8515625 64.9658203125 106.440429688 48.73046875 151.411132812 48.73046875 c 0
 189.985351562 48.73046875 199.995117188 65.0146484375 200.1171875 127.9296875 c 0
EndSplineSet
Validated: 33
EndChar

StartChar: bracketleft
Encoding: 91 91 26
Width: 399
VWidth: 26374
Flags: W
HStem: -135 48.7549<102.827 292.164> 11.2158 48.7305<259.312 291.345> 547.275 48.7305<259.312 291.855> 693.467 48.7305<102.827 292.164>
VStem: 30 72.8271<-86.2451 693.467> 199.946 48.5596<90.0679 517.144> 297.09 72.8271<-78.3876 4.05321 603.168 685.601>
LayerCount: 2
Fore
SplineSet
30 -135 m 5
 30 157.399414062 30 449.797851562 30 742.197265625 c 5
 143.305664062 742.197265625 256.611328125 742.197265625 369.916992188 742.197265625 c 5
 369.916992188 644.736328125 l 6
 369.916992188 557.016601562 363.837890625 547.275390625 309.223632812 547.275390625 c 4
 248.505859375 547.275390625 248.505859375 547.275390625 248.505859375 303.598632812 c 4
 248.505859375 59.9462890625 248.505859375 59.9462890625 309.223632812 59.9462890625 c 4
 363.837890625 59.9462890625 369.916992188 50.205078125 369.916992188 -37.5146484375 c 6
 369.916992188 -135 l 5
 256.611328125 -135 143.305664062 -135 30 -135 c 5
297.08984375 -37.5146484375 m 4
 297.08984375 -5.0439453125 280.87890625 11.2158203125 248.505859375 11.2158203125 c 4
 202.65625 11.2158203125 199.946289062 27.451171875 199.946289062 303.598632812 c 4
 199.946289062 579.74609375 202.65625 596.005859375 248.505859375 596.005859375 c 4
 280.87890625 596.005859375 297.08984375 612.241210938 297.08984375 644.736328125 c 4
 297.08984375 685.336914062 280.87890625 693.466796875 199.946289062 693.466796875 c 6
 102.827148438 693.466796875 l 5
 102.827148438 433.5625 102.827148438 173.659179688 102.827148438 -86.2451171875 c 5
 199.946289062 -86.2451171875 l 6
 280.87890625 -86.2451171875 297.08984375 -78.1396484375 297.08984375 -37.5146484375 c 4
EndSplineSet
Validated: 1
EndChar

StartChar: bracketright
Encoding: 93 93 27
Width: 375
VWidth: 25327
Flags: W
HStem: -136 194.922<45.8399 131.896> -136 48.7305<91.3287 305.09> 692.442 48.7305<95.7834 305.09>
VStem: 38 48.5596<-79.1968 0.617273> 135.144 67.5537<69.6276 528.331> 305.09 48.5596<-87.2695 692.442>
LayerCount: 2
Fore
SplineSet
38 -38.5390625 m 6x7c
 38 42.6865234375 46.10546875 58.921875 86.5595703125 58.921875 c 4xbc
 131.896484375 58.921875 135.143554688 75.1572265625 135.143554688 302.57421875 c 4
 135.143554688 529.991210938 131.896484375 546.250976562 86.5595703125 546.250976562 c 4
 46.10546875 546.250976562 38 562.486328125 38 643.711914062 c 6
 38 741.172851562 l 5
 143.216796875 741.172851562 248.432617188 741.172851562 353.649414062 741.172851562 c 5
 353.649414062 448.782226562 353.649414062 156.390625 353.649414062 -136 c 5
 248.432617188 -136 143.216796875 -136 38 -136 c 5
 38 -38.5390625 l 6x7c
305.08984375 -87.26953125 m 5x7c
 305.08984375 172.634765625 305.08984375 432.538085938 305.08984375 692.442382812 c 5
 195.836914062 692.442382812 l 6
 70.6904296875 692.442382812 42.58984375 634.922851562 148.083007812 594.6640625 c 4
 209.459960938 571.250976562 209.557617188 570.73828125 202.697265625 296.788085938 c 4
 196.10546875 33.1650390625 193.688476562 22.056640625 141.198242188 14.5859375 c 4
 106.090820312 9.5810546875 86.5595703125 -9.9990234375 86.5595703125 -40.248046875 c 4
 86.5595703125 -79.75 104.064453125 -87.26953125 195.836914062 -87.26953125 c 6
 305.08984375 -87.26953125 l 5x7c
EndSplineSet
Validated: 33
EndChar

StartChar: underscore
Encoding: 95 95 28
Width: 569
VWidth: 24672
Flags: W
HStem: 0 97.4854<36.2599 533.652>
LayerCount: 2
Fore
SplineSet
30 48.7548828125 m 0
 30 94.384765625 46.1865234375 97.4853515625 284.956054688 97.4853515625 c 0
 523.725585938 97.4853515625 539.912109375 94.384765625 539.912109375 48.7548828125 c 0
 539.912109375 3.1005859375 523.725585938 0 284.956054688 0 c 0
 46.1865234375 0 30 3.1005859375 30 48.7548828125 c 0
EndSplineSet
Validated: 1
EndChar

StartChar: W
Encoding: 87 87 29
Width: 1002
VWidth: 19677
Flags: W
HStem: 645.704 48.7324<104.84 208.745 437.803 570.103 789.063 901.359>
VStem: 30 72.8418<537.751 671.308>
LayerCount: 2
Fore
SplineSet
164.76171875 16.9912109375 m 0
 143.465820312 82.1162109375 30 620.981445312 30 656.994140625 c 0
 30 685.62109375 58.24609375 694.436523438 149.974609375 694.436523438 c 2
 269.94921875 694.436523438 l 1
 284.694335938 625.399414062 299.440429688 556.361328125 314.185546875 487.32421875 c 1
 342.778320312 560.421875 l 2
 358.50390625 600.626953125 376.166992188 647.227539062 382.029296875 663.978515625 c 0
 388.600585938 682.759765625 438.415039062 694.436523438 511.969726562 694.436523438 c 2
 631.252929688 694.436523438 l 1
 661.354492188 578.697265625 l 2
 693.154296875 456.430664062 696.930664062 457.970703125 721.112304688 603.063476562 c 0
 736.318359375 694.299804688 736.522460938 694.436523438 856.64453125 694.436523438 c 0
 1001.88671875 694.436523438 1000.16699219 707.859375 908.158203125 292.393554688 c 2
 843.404296875 0 l 1
 759.802734375 -4.8623046875 676.200195312 -9.7236328125 592.598632812 -14.5859375 c 1
 554.106445312 118.288085938 l 2
 532.935546875 191.369140625 514.557617188 265.921875 513.266601562 283.9609375 c 0
 511.974609375 302.000976562 492.348632812 245.489257812 469.65234375 158.379882812 c 2
 428.38671875 0 l 1
 301.763671875 -7.375 l 2
 213.932617188 -12.490234375 171.961914062 -5.025390625 164.76171875 16.9912109375 c 0
388.653320312 127.922851562 m 0
 403.178710938 178.177734375 427.181640625 265.895507812 441.994140625 322.852539062 c 0
 490.970703125 511.182617188 545.739257812 446.083007812 626.486328125 103.555664062 c 0
 639.185546875 49.6875 655.958007812 36.548828125 712.030273438 36.548828125 c 0
 764.486328125 36.548828125 784.862304688 50.140625 794.221679688 91.373046875 c 0
 843.471679688 308.337890625 904.106445312 600.6328125 904.106445312 621.080078125 c 0
 904.106445312 634.623046875 876.790039062 645.704101562 843.404296875 645.704101562 c 0
 799.400390625 645.704101562 782.702148438 632.62890625 782.702148438 598.170898438 c 0
 782.702148438 490.625976562 728.666015625 304.577148438 697.430664062 304.577148438 c 0
 678.37890625 304.577148438 648.364257812 363.01953125 625.475585938 444.682617188 c 0
 603.876953125 521.741210938 581.591796875 598.494140625 575.953125 615.24609375 c 0
 570.313476562 631.998046875 537.698242188 645.704101562 503.473632812 645.704101562 c 0
 469.25 645.704101562 436.875976562 631.998046875 431.532226562 615.24609375 c 0
 426.188476562 598.494140625 404.373046875 521.741210938 383.0546875 444.682617188 c 0
 329.391601562 250.716796875 285.04296875 260.6328125 246.842773438 475.140625 c 0
 219.4375 629.033203125 210.916015625 645.704101562 159.655273438 645.704101562 c 0
 128.408203125 645.704101562 102.841796875 636.212890625 102.841796875 624.612304688 c 0
 102.841796875 613.01171875 130.158203125 482.086914062 163.543945312 333.668945312 c 0
 196.9296875 185.25 224.24609375 57.681640625 224.24609375 50.1826171875 c 0
 224.24609375 42.6845703125 255.294921875 36.548828125 293.244140625 36.548828125 c 0
 352.094726562 36.548828125 366.127929688 49.9892578125 388.653320312 127.922851562 c 0
EndSplineSet
Validated: 33
EndChar

StartChar: X
Encoding: 88 88 30
Width: 812
VWidth: 25204
Flags: W
HStem: 16.4678 48.7324<141.568 245.341 565.49 672.675> 674.354 48.7324<154.53 268.956 551.053 655.601>
LayerCount: 2
Fore
SplineSet
30 40.01171875 m 0
 30 52.9609375 73.705078125 131.4140625 127.122070312 214.352539062 c 0
 180.540039062 297.291015625 224.245117188 374.846679688 224.245117188 386.69921875 c 0
 224.245117188 398.551757812 186.002929688 465.235351562 139.262695312 534.885742188 c 0
 23.6669921875 707.138671875 27.580078125 723.086914062 185.439453125 723.086914062 c 0
 306.12890625 723.086914062 320.465820312 716.958984375 365.033203125 646.322265625 c 2
 413.465820312 569.55859375 l 1
 453.0234375 646.322265625 l 2
 490.086914062 718.249023438 500.958984375 723.086914062 625.500976562 723.086914062 c 0
 705.9296875 723.086914062 758.421875 712.509765625 758.421875 696.301757812 c 0
 758.421875 681.5703125 719.251953125 605.833984375 671.37890625 528 c 0
 574.756835938 370.909179688 574.251953125 375.203125 713.454101562 170.45703125 c 0
 751.540039062 114.4375 782.702148438 56.8720703125 782.702148438 42.53515625 c 0
 782.702148438 27.033203125 725.892578125 16.4677734375 642.5390625 16.4677734375 c 0
 506.651367188 16.4677734375 500.948242188 19.12890625 455.547851562 103.73046875 c 2
 408.717773438 190.993164062 l 1
 358.97265625 103.96875 l 2
 311.041992188 20.1171875 304.137695312 16.9365234375 169.61328125 16.7060546875 c 0
 92.826171875 16.5810546875 30 27.0625 30 40.01171875 c 0
309.227539062 162.665039062 m 0
 342.94921875 216.270507812 386.654296875 260.12890625 406.350585938 260.12890625 c 0
 426.047851562 260.12890625 469.752929688 216.270507812 503.473632812 162.665039062 c 0
 548.47265625 91.1318359375 581.020507812 65.2001953125 625.805664062 65.2001953125 c 0
 684.887695312 65.2001953125 685.686523438 67.3271484375 650.932617188 132.20703125 c 0
 631.19140625 169.060546875 592.740234375 232.108398438 565.486328125 272.3125 c 0
 499.916015625 369.041015625 502.559570312 398.48828125 588.456054688 528.157226562 c 0
 675.932617188 660.2109375 677.540039062 674.354492188 605.067382812 674.354492188 c 0
 564.75 674.354492188 533.389648438 646.772460938 494.250976562 576.889648438 c 0
 464.228515625 523.284179688 424.196289062 479.424804688 405.291015625 479.424804688 c 0
 386.384765625 479.424804688 348.620117188 523.284179688 321.368164062 576.889648438 c 0
 283.678710938 651.02734375 257.409179688 674.354492188 211.611328125 674.354492188 c 0
 178.497070312 674.354492188 151.403320312 669.252929688 151.403320312 663.017578125 c 0
 151.403320312 656.782226562 184.182617188 599.811523438 224.245117188 536.416992188 c 0
 310.25390625 400.318359375 312.952148438 369.287109375 247.21484375 272.3125 c 0
 219.9609375 232.108398438 181.510742188 169.060546875 161.76953125 132.20703125 c 0
 127.015625 67.328125 127.813476562 65.2001953125 186.896484375 65.2001953125 c 0
 231.681640625 65.2001953125 264.229492188 91.1318359375 309.227539062 162.665039062 c 0
EndSplineSet
Validated: 33
EndChar

StartChar: Y
Encoding: 89 89 31
Width: 812
VWidth: 25198
Flags: W
HStem: 0 48.7324<353.867 458.835> 657.888 48.7324<123.274 244.017 568.684 689.428>
VStem: 272.807 72.8428<54.198 307.973> 467.053 72.8418<54.198 307.973>
LayerCount: 2
Fore
SplineSet
272.806640625 147.297851562 m 6
 272.806640625 283.73828125 263.858398438 307.903320312 151.403320312 475.140625 c 4
 84.630859375 574.44140625 30 667.146484375 30 681.153320312 c 4
 30 695.796875 87.103515625 706.620117188 164.362304688 706.620117188 c 4
 292.181640625 706.620117188 301.166992188 702.466796875 348.866210938 621.337890625 c 4
 376.443359375 574.432617188 402.311523438 536.056640625 406.350585938 536.056640625 c 4
 410.389648438 536.056640625 436.2578125 574.432617188 463.834960938 621.337890625 c 4
 511.534179688 702.466796875 520.51953125 706.620117188 648.338867188 706.620117188 c 4
 725.59765625 706.620117188 782.702148438 695.796875 782.702148438 681.153320312 c 4
 782.702148438 667.146484375 728.0703125 574.44140625 661.297851562 475.140625 c 4
 548.84375 307.903320312 539.89453125 283.73828125 539.89453125 147.297851562 c 6
 539.89453125 0 l 5
 450.865234375 0 361.8359375 0 272.806640625 0 c 5
 272.806640625 147.297851562 l 6
467.052734375 177.090820312 m 4
 467.052734375 270.555664062 482.323242188 328.512695312 523.229492188 390.294921875 c 4
 554.125976562 436.959960938 604.185546875 516.258789062 634.47265625 566.514648438 c 6
 689.540039062 657.887695312 l 5
 627.880859375 657.887695312 l 6
 580.477539062 657.887695312 551.41796875 632.537109375 502.190429688 548.239257812 c 4
 466.97265625 487.93359375 423.844726562 438.591796875 406.350585938 438.591796875 c 4
 388.857421875 438.591796875 345.729492188 487.93359375 310.51171875 548.239257812 c 4
 261.283203125 632.537109375 232.223632812 657.887695312 184.8203125 657.887695312 c 6
 123.162109375 657.887695312 l 5
 178.229492188 566.514648438 l 6
 208.515625 516.258789062 258.575195312 436.959960938 289.47265625 390.294921875 c 4
 330.377929688 328.512695312 345.649414062 270.555664062 345.649414062 177.090820312 c 4
 345.649414062 56.419921875 349.284179688 48.732421875 406.350585938 48.732421875 c 4
 463.416992188 48.732421875 467.052734375 56.419921875 467.052734375 177.090820312 c 4
EndSplineSet
Validated: 1
EndChar

StartChar: Z
Encoding: 90 90 32
Width: 739
VWidth: 25169
Flags: W
HStem: 0 48.7324<176.786 582.76> 146.197 48.7314<393.008 631.317> 511.689 73.0986<131.552 349.556> 657.887 48.7324<168.97 595.434>
VStem: 30 72.8418<61.0186 140.117> 78.5615 48.5615<595.277 644.723> 637.019 72.8418<61.0449 136.34>
LayerCount: 2
Fore
SplineSet
30 103.89453125 m 0xfa
 30 158.889648438 67.1884765625 213.95703125 191.80859375 343.495117188 c 2
 353.6171875 511.689453125 l 1
 261.931640625 511.689453125 170.247070312 511.689453125 78.5615234375 511.689453125 c 1
 78.5615234375 576.666015625 78.5615234375 641.642578125 78.5615234375 706.619140625 c 1xf6
 382.833007812 706.619140625 l 2
 631.098632812 706.619140625 689.680664062 699.881835938 701.100585938 670.015625 c 0
 727.45703125 601.090820312 687.03125 523.749023438 538.744140625 359.401367188 c 2
 390.345703125 194.928710938 l 1
 496.850585938 194.928710938 603.35546875 194.928710938 709.860351562 194.928710938 c 1
 709.860351562 129.952148438 709.860351562 64.9765625 709.860351562 0 c 1
 386.118164062 0 l 2
 208.05859375 0 55.0908203125 7.3095703125 46.1875 16.244140625 c 0
 37.2841796875 25.177734375 30 64.62109375 30 103.89453125 c 0xfa
637.018554688 97.46484375 m 0
 637.018554688 141.555664062 620.831054688 146.197265625 467.053710938 146.197265625 c 0
 354.487304688 146.197265625 297.088867188 155.724609375 297.088867188 174.408203125 c 0
 297.088867188 189.923828125 373.572265625 287.622070312 467.053710938 391.515625 c 0
 560.534179688 495.408203125 637.018554688 597.84375 637.018554688 619.149414062 c 0
 637.018554688 652.095703125 598.905273438 657.88671875 382.071289062 657.88671875 c 0
 171.637695312 657.88671875 127.123046875 651.505859375 127.123046875 621.337890625 c 0xf6
 127.123046875 592.889648438 159.58203125 584.788085938 273.569335938 584.788085938 c 0
 483.112304688 584.788085938 483.350585938 550.138671875 275.346679688 326.626953125 c 0
 180.46875 224.674804688 102.841796875 120.44140625 102.841796875 94.99609375 c 0xfa
 102.841796875 52.3583984375 123.779296875 48.732421875 369.9296875 48.732421875 c 0
 620.831054688 48.732421875 637.017578125 51.685546875 637.018554688 97.46484375 c 0
EndSplineSet
Validated: 33
EndChar

StartChar: backslash
Encoding: 92 92 33
Width: 348
VWidth: 25245
Flags: W
HStem: 686.62 20G<80.6128 134.895>
LayerCount: 2
Fore
SplineSet
108.00390625 322.852539062 m 0
 64.8359375 500.420898438 29.7353515625 659.41015625 30.001953125 676.162109375 c 0
 30.27734375 693.35546875 60.9013671875 706.620117188 100.32421875 706.620117188 c 0
 169.465820312 706.620117188 170.915039062 703.596679688 246.008789062 402.682617188 c 0
 341.278320312 20.9189453125 341.702148438 0 254.174804688 0 c 0
 187.47265625 0 185.354492188 4.6787109375 108.00390625 322.852539062 c 0
186.219726562 375.575195312 m 0
 148.688476562 529.999023438 113.459960938 651.80859375 107.93359375 646.263671875 c 0
 102.408203125 640.717773438 128.59375 509.833984375 166.125 355.41015625 c 0
 203.65625 200.987304688 238.884765625 79.177734375 244.411132812 84.72265625 c 0
 249.936523438 90.2685546875 223.750976562 221.15234375 186.219726562 375.575195312 c 0
EndSplineSet
Validated: 33
EndChar

StartChar: a
Encoding: 97 97 34
Width: 645
VWidth: 24899
Flags: W
HStem: 0 21G<262.948 615.497> 0 21G<262.948 615.497>
VStem: 537.945 69.124<50.8294 399.892>
LayerCount: 2
Fore
SplineSet
76.6064453125 264.849609375 m 0xa0
 134.6953125 323.141601562 137.155273438 337.948242188 88.74609375 337.948242188 c 0
 29.8662109375 337.948242188 46.9814453125 427.657226562 116.302734375 482.376953125 c 0
 204.318359375 551.853515625 457.750976562 554.201171875 541.322265625 486.314453125 c 0
 592.491210938 444.747070312 599.547851562 416.15234375 607.069335938 219.875 c 2
 615.497070312 0 l 1
 368.749023438 0 l 2
 157.147460938 0 115.309570312 6.71484375 75.0234375 47.1435546875 c 0
 14.3876953125 107.999023438 15.0791015625 203.099609375 76.6064453125 264.849609375 c 0xa0
289.068359375 92.57421875 m 0
 231.4453125 94.0537109375 222.295898438 104.30078125 222.295898438 167.384765625 c 0
 222.295898438 208.59375 235.5390625 241.323242188 252.647460938 242.407226562 c 0
 271.947265625 243.631835938 273.28515625 248.358398438 256.325195312 255.390625 c 0
 241.655273438 261.473632812 200.681640625 255.396484375 165.272460938 241.88671875 c 0
 81.1982421875 209.809570312 75.123046875 103.110351562 155.524414062 70.6796875 c 0
 222.985351562 43.46875 245.67578125 43.3544921875 307.278320312 69.919921875 c 0
 350.311523438 88.4765625 348.237304688 91.056640625 289.068359375 92.57421875 c 0
537.9453125 211.459960938 m 0
 537.9453125 433.452148438 510.2578125 468.8828125 335.413085938 470.6171875 c 0
 233.409179688 471.627929688 189.096679688 460.678710938 156.439453125 426.38671875 c 0
 114.3828125 382.227539062 115.297851562 381.326171875 185.875 397.405273438 c 0
 366.9921875 438.666992188 383.416015625 438.919921875 414.828125 400.939453125 c 0
 453.962890625 353.6171875 416.842773438 297.634765625 335.8671875 281.814453125 c 0
 301.052734375 275.012695312 310.845703125 270.353515625 364.544921875 268.16796875 c 0
 440.854492188 265.0625 445.025390625 260.549804688 429.51953125 197.842773438 c 0
 420.407226562 160.989257812 401.857421875 126.853515625 388.293945312 121.986328125 c 0
 361.286132812 112.294921875 458.780273438 51.78515625 507.594726562 47.943359375 c 0
 529.138671875 46.248046875 537.9453125 93.705078125 537.9453125 211.459960938 c 0
355.669921875 191.47265625 m 0
 364.17578125 205.284179688 354.432617188 209.369140625 332.822265625 201.048828125 c 0
 290.7578125 184.849609375 283.060546875 167.384765625 317.986328125 167.384765625 c 0
 330.5546875 167.384765625 347.508789062 178.224609375 355.669921875 191.47265625 c 0
EndSplineSet
Validated: 33
EndChar

StartChar: b
Encoding: 98 98 35
Width: 639
VWidth: 25153
Flags: W
HStem: 0.785156 46.2832<115.837 195.701> 656.223 48.7373<115.837 192.152>
VStem: 30 72.8428<112.792 590.499> 199.966 72.8418<543.089 651.267> 357.79 60.7021<206.932 327.811>
LayerCount: 2
Fore
SplineSet
30 704.959960938 m 1
 110.935546875 704.959960938 191.872070312 704.959960938 272.807617188 704.959960938 c 1
 272.807617188 619.678710938 l 2
 272.807617188 536.923828125 275.587890625 534.396484375 366.657226562 534.396484375 c 0
 559.37109375 534.396484375 664.36328125 340.0625 580.48828125 138.612304688 c 0
 531.001953125 19.7587890625 486.516601562 1.69921875 240.993164062 0.78515625 c 2
 30 0 l 1
 30 234.987304688 30 469.971679688 30 704.959960938 c 1
316.375 78.8291015625 m 0
 383.7734375 40.0107421875 391.979492188 40 450.750976562 78.62890625 c 0
 522.9140625 126.077148438 558.784179688 263.57421875 524.513671875 361.36328125 c 0
 494.857421875 445.986328125 388.692382812 497.439453125 319.936523438 460.512695312 c 0
 238.68359375 416.884765625 199.965820312 448.341796875 199.965820312 557.993164062 c 0
 199.965820312 639.978515625 191.935546875 656.22265625 151.404296875 656.22265625 c 0
 105.43359375 656.22265625 102.842773438 639.978515625 102.842773438 351.645507812 c 0
 102.842773438 63.3125 105.43359375 47.068359375 151.404296875 47.068359375 c 0
 178.384765625 47.068359375 199.965820312 63.3125 199.965820312 83.6171875 c 0
 199.965820312 130.907226562 227.954101562 129.754882812 316.375 78.8291015625 c 0
234.271484375 180.909179688 m 0
 158.569335938 296.8515625 257.7734375 448.436523438 369.930664062 388.19921875 c 0
 405.29296875 369.208984375 418.4921875 337.181640625 418.4921875 270.384765625 c 0
 418.4921875 118.068359375 309.77734375 65.2666015625 234.271484375 180.909179688 c 0
357.790039062 266.368164062 m 0
 357.790039062 297.638671875 344.139648438 327.790039062 327.454101562 333.372070312 c 0
 290.229492188 345.822265625 262.267578125 280.348632812 282.364257812 227.79296875 c 0
 303.724609375 171.93359375 357.790039062 199.584960938 357.790039062 266.368164062 c 0
EndSplineSet
Validated: 33
EndChar

StartChar: c
Encoding: 99 99 36
Width: 641
VWidth: 25002
Flags: W
HStem: 536.267 20G<235.395 416.977>
VStem: 30.0244 581.875<332.605 454.819>
LayerCount: 2
Fore
SplineSet
153.239257812 52.8388671875 m 0
 77.9501953125 96.5 31.1025390625 183.247070312 30.0244140625 281 c 0
 28.1064453125 454.819335938 139.234375 556.266601562 331.5546875 556.266601562 c 0
 502.3984375 556.266601562 611.899414062 485.352539062 611.899414062 374.71484375 c 0
 611.899414062 332.60546875 448.573242188 308.032226562 394.388671875 341.989257812 c 0
 302.736328125 399.4296875 222.59765625 286.59375 305.819335938 217.282226562 c 0
 331.9453125 195.5234375 348.5078125 197.961914062 378.409179688 227.967773438 c 0
 403.661132812 253.30859375 448.9375 264.206054688 508.454101562 259.266601562 c 0
 585.873046875 252.841796875 600.859375 242.23046875 606.98046875 189.501953125 c 0
 618.547851562 89.849609375 537.025390625 35.8017578125 361.6484375 26.857421875 c 0
 265.100585938 21.93359375 190.49609375 31.234375 153.239257812 52.8388671875 c 0
539.057617188 165.1640625 m 0
 539.057617188 197.771484375 449.73828125 198.788085938 429.793945312 166.40625 c 0
 412.338867188 138.060546875 297.185546875 134.440429688 255.684570312 160.931640625 c 0
 203.099609375 194.5 191.134765625 308.912109375 233.43359375 373.696289062 c 0
 274.463867188 436.538085938 399.256835938 459.653320312 429.793945312 410.068359375 c 0
 454.2421875 370.374023438 539.584960938 380.341796875 524.008789062 421.072265625 c 0
 505.203125 470.25390625 355.6171875 515.499023438 276.750976562 495.860351562 c 0
 17.67578125 431.346679688 59.2001953125 82.787109375 327.3828125 70.865234375 c 0
 351.180664062 69.810546875 408.543945312 84.8291015625 454.857421875 104.247070312 c 0
 501.16796875 123.666992188 539.057617188 151.079101562 539.057617188 165.1640625 c 0
EndSplineSet
Validated: 33
EndChar

StartChar: d
Encoding: 100 100 37
Width: 618
VWidth: 25262
Flags: W
HStem: 0 36.5498<437.625 513.842>
VStem: 357.79 48.5615<511.339 640.511> 527.755 60.7021<118.048 645.705>
LayerCount: 2
Fore
SplineSet
87.9775390625 51.642578125 m 0
 40.5283203125 102.329101562 30 139.407226562 30 255.845703125 c 0
 30 374.064453125 40.263671875 409.079101562 90.7021484375 462.961914062 c 0
 141.431640625 517.153320312 168.359375 526.455078125 254.596679688 519.573242188 c 2
 357.790039062 511.338867188 l 1
 357.790039062 573.26171875 357.790039062 635.184570312 357.790039062 697.107421875 c 1
 434.678710938 692.15625 511.568359375 687.205078125 588.45703125 682.25390625 c 1
 588.45703125 454.8359375 588.45703125 227.41796875 588.45703125 0 c 1
 367.206054688 -5.14453125 l 2
 158.411132812 -9.9990234375 142.69140625 -6.8017578125 87.9775390625 51.642578125 c 0
430.631835938 73.0986328125 m 0
 430.631835938 52.7939453125 452.21484375 36.5498046875 479.193359375 36.5498046875 c 0
 525.166992188 36.5498046875 527.754882812 52.7939453125 527.754882812 341.126953125 c 2
 527.754882812 645.705078125 l 1
 467.052734375 645.705078125 l 2
 411.071289062 645.705078125 406.3515625 636.959960938 406.3515625 533.21484375 c 0
 406.3515625 411.415039062 416.658203125 415.950195312 255.96875 467.033203125 c 0
 231.290039062 474.87890625 190.02734375 455.19921875 152.775390625 417.815429688 c 0
 67.4560546875 332.1953125 66.287109375 180.666015625 150.30078125 96.357421875 c 0
 218.94921875 27.4658203125 256.759765625 22.1982421875 322.797851562 72.32421875 c 0
 384.010742188 118.784179688 430.631835938 119.119140625 430.631835938 73.0986328125 c 0
225.623046875 163.801757812 m 0
 175.795898438 235.19140625 177.927734375 286.911132812 233.536132812 355.826171875 c 0
 273.877929688 405.822265625 286.706054688 409.061523438 342.798828125 383.4140625 c 0
 395.2109375 359.44921875 406.3515625 338.03125 406.3515625 261.241210938 c 0
 406.3515625 111.635742188 301.495117188 55.1015625 225.623046875 163.801757812 c 0
345.78515625 207.331054688 m 0
 365.583984375 239.48046875 336.927734375 328.943359375 306.83203125 328.943359375 c 0
 274.684570312 328.943359375 252.455078125 263.739257812 269.44921875 219.295898438 c 0
 285.499023438 177.325195312 323.625 171.349609375 345.78515625 207.331054688 c 0
EndSplineSet
Validated: 33
EndChar

StartChar: asciicircum
Encoding: 94 94 38
Width: 582
VWidth: 25268
Flags: W
HStem: 359.774 48.7324<120.565 177.086 416.61 455.657> 725.268 48.7324<267.009 316.833>
LayerCount: 2
Fore
SplineSet
31.087890625 382.668945312 m 0
 23.3330078125 395.26171875 57.86328125 488.461914062 107.821289062 589.782226562 c 0
 197.336914062 771.32421875 200.009765625 774 291.834960938 774 c 0
 384.2890625 774 385.66796875 772.564453125 468.616210938 589.903320312 c 0
 514.595703125 488.650390625 552.216796875 395.450195312 552.216796875 382.791015625 c 0
 552.216796875 370.131835938 505.158203125 359.774414062 447.641601562 359.774414062 c 0
 355.817382812 359.774414062 340.012695312 367.9453125 318.021484375 426.78125 c 2
 292.9765625 493.7890625 l 1
 260.874023438 426.78125 l 2
 234.23828125 371.180664062 213.1484375 359.774414062 136.98046875 359.774414062 c 0
 86.4951171875 359.774414062 38.8427734375 370.077148438 31.087890625 382.668945312 c 0
217.8515625 510.541015625 m 0
 236.4921875 566.659179688 264.90234375 616.975585938 280.986328125 622.35546875 c 0
 297.162109375 627.766601562 332.254882812 582.170898438 359.517578125 520.322265625 c 0
 386.626953125 458.82421875 424.58203125 408.506835938 443.86328125 408.506835938 c 0
 470.034179688 408.506835938 459.192382812 448.658203125 401.095703125 566.887695312 c 0
 358.291015625 653.997070312 309.379882812 725.267578125 292.408203125 725.267578125 c 0
 275.435546875 725.267578125 228.612304688 659.791992188 188.35546875 579.764648438 c 0
 104.299804688 412.6640625 103.358398438 408.506835938 149.561523438 408.506835938 c 0
 168.481445312 408.506835938 199.2109375 454.421875 217.8515625 510.541015625 c 0
EndSplineSet
Validated: 33
EndChar

StartChar: grave
Encoding: 96 96 39
Width: 303
VWidth: 25182
Flags: W
HStem: 724.424 73.0957<63.3931 177.037>
LayerCount: 2
Fore
SplineSet
83.3271484375 658.994140625 m 0
 2.8828125 744.907226562 14.064453125 797.51953125 112.721679688 797.51953125 c 0
 197.21875 797.51953125 273.341796875 722.885742188 273.341796875 640 c 0
 273.341796875 580.649414062 144.630859375 593.515625 83.3271484375 658.994140625 c 0
184.987304688 687.875976562 m 0
 177.296875 707.993164062 159.9140625 724.423828125 146.364257812 724.423828125 c 0
 132.155273438 724.423828125 134.499023438 708.9453125 151.930664062 687.875976562 c 0
 168.556640625 667.783203125 185.939453125 651.328125 190.553710938 651.328125 c 0
 195.192382812 651.328125 192.677734375 667.783203125 184.987304688 687.875976562 c 0
EndSplineSet
Validated: 33
EndChar

StartChar: Q
Encoding: 81 81 40
Width: 790
VWidth: 25959
Flags: W
HStem: 546.104 20G<375.288 402.729> 692.32 20G<271.418 519.478>
VStem: 30 67.627<217.712 487.949> 231.172 315.649<283.854 466.788>
LayerCount: 2
Fore
SplineSet
584.00390625 -13.7294921875 m 0
 557.709960938 1.5537109375 479.0234375 11.4169921875 409.150390625 8.169921875 c 0
 162.348632812 -3.3046875 30 119.15625 30 359 c 0
 30 590.4453125 153.828125 712.3203125 389.008789062 712.3203125 c 0
 649.946289062 712.3203125 753.73046875 590.93359375 735.56640625 306.973632812 c 0
 729.21875 207.974609375 734.663085938 119.3515625 747.87109375 106.094726562 c 0
 760.859375 93.033203125 764.448242188 54.1416015625 755.830078125 19.6689453125 c 0
 738.569335938 -49.3251953125 668.549804688 -62.9482421875 584.00390625 -13.7294921875 c 0
692.5 45.6455078125 m 0
 692.5 54.21484375 674.189453125 74.673828125 651.77734375 91.12890625 c 0
 613.764648438 119.034179688 613.935546875 127.115234375 654.51171875 212.930664062 c 0
 771.455078125 460.220703125 560.932617188 719.3515625 305.512695312 642.544921875 c 0
 161.34765625 599.209960938 97.626953125 512.466796875 97.626953125 359.610351562 c 0
 97.626953125 264.56640625 110.541992188 215.567382812 146.186523438 175.455078125 c 0
 221.650390625 90.54296875 341.279296875 49.7470703125 461.689453125 67.8623046875 c 0
 522.504882812 77.017578125 585.541992188 72.6962890625 611.420898438 57.6083984375 c 0
 662.788085938 27.6279296875 692.5 23.2578125 692.5 45.6455078125 c 0
271.357421875 196.451171875 m 0
 244.990234375 225.69921875 231.171875 283.853515625 231.171875 365.640625 c 0
 231.171875 466.788085938 241.328125 497.403320312 285.126953125 528.189453125 c 0
 314.814453125 549.0390625 361.567382812 566.104492188 389.008789062 566.104492188 c 0
 416.450195312 566.104492188 463.178710938 549.0390625 492.866210938 528.189453125 c 0
 537.397460938 496.890625 546.821289062 467.056640625 546.821289062 357.6328125 c 0
 546.821289062 241.2265625 540.864257812 224.991210938 498.26171875 224.991210938 c 0
 471.284179688 224.991210938 449.702148438 208.755859375 449.702148438 188.443359375 c 0
 449.702148438 135.806640625 320.8203125 141.592773438 271.357421875 196.451171875 c 0
433.784179688 313.39453125 m 0
 505.732421875 295.279296875 515.3515625 322.891601562 474.580078125 430.508789062 c 0
 419.84375 574.991210938 251.240234375 464.053710938 290.009765625 309.073242188 c 0
 305.146484375 248.526367188 308.90625 246.768554688 337.861328125 286.514648438 c 0
 360.737304688 317.88671875 386.860351562 325.2109375 433.784179688 313.39453125 c 0
EndSplineSet
Validated: 33
EndChar

StartChar: K
Encoding: 75 75 41
Width: 788
Flags: W
HStem: 0 48.7549<78.5596 218.173 518.195 657.905> 657.91 48.7305<78.5596 216.92 476.121 642.901>
VStem: 30 48.5596<48.7549 657.91> 225.068 47.7539<54.9386 172.653 524.777 651.582> 467.061 72.8516<381.442 464.751> 661.299 97.1191<17.0532 66.5806>
LayerCount: 2
Fore
SplineSet
30 0 m 1
 30 235.546875 30 471.09375 30 706.640625 c 1
 110.940429688 706.640625 191.881835938 706.640625 272.822265625 706.640625 c 1
 273.424804688 645.719726562 274.026367188 584.797851562 274.62890625 523.876953125 c 1
 352.631835938 615.258789062 l 2
 427.314453125 702.758789062 437.080078125 706.640625 582.392578125 706.640625 c 0
 765.424804688 706.640625 773.823242188 682.299804688 637.03125 548.2421875 c 0
 583.61328125 495.8984375 539.912109375 442.993164062 539.912109375 430.6640625 c 0
 539.912109375 418.310546875 589.08203125 326.953125 649.165039062 227.612304688 c 0
 709.248046875 128.295898438 758.41796875 36.4501953125 758.41796875 23.5107421875 c 0
 758.41796875 10.595703125 689.594726562 0 605.439453125 0 c 2
 452.4609375 0 l 1
 398.26171875 111.962890625 l 2
 353.022460938 205.395507812 338.154296875 219.018554688 308.442382812 194.262695312 c 0
 288.837890625 177.954101562 272.822265625 127.563476562 272.822265625 82.2998046875 c 2
 272.822265625 0 l 1
 191.881835938 0 110.940429688 0 30 0 c 1
225.068359375 127.9296875 m 0
 225.922851562 212.5 295.209960938 316.772460938 350.556640625 316.772460938 c 0
 369.013671875 316.772460938 413.569335938 256.469726562 449.604492188 182.763671875 c 0
 507.368164062 64.55078125 523.701171875 48.7548828125 588.203125 48.7548828125 c 0
 628.413085938 48.7548828125 661.298828125 54.0283203125 661.298828125 60.498046875 c 0
 661.298828125 66.9677734375 617.59765625 143.920898438 564.1796875 231.494140625 c 0
 510.76171875 319.067382812 467.060546875 409.252929688 467.060546875 431.909179688 c 0
 467.060546875 454.565429688 507.514648438 514.672851562 556.977539062 565.502929688 c 2
 646.870117188 657.91015625 l 1
 562.568359375 657.91015625 l 2
 490.375976562 657.91015625 464.399414062 640.356445312 382.075195312 536.059570312 c 0
 329.194335938 469.067382812 272.041015625 414.233398438 255.073242188 414.233398438 c 0
 234.272460938 414.233398438 224.23828125 453.833007812 224.23828125 536.059570312 c 0
 224.23828125 655.200195312 222.626953125 657.91015625 151.411132812 657.91015625 c 2
 78.5595703125 657.91015625 l 1
 78.5595703125 454.858398438 78.5595703125 251.806640625 78.5595703125 48.7548828125 c 1
 151.411132812 48.7548828125 l 2
 217.231445312 48.7548828125 224.3359375 56.3720703125 225.068359375 127.9296875 c 0
EndSplineSet
Validated: 33
EndChar

StartChar: L
Encoding: 76 76 42
Width: 639
Flags: W
HStem: 22.2695 48.7305<117.561 530.416>
VStem: 31.7812 67.5293<169.12 680.155> 243.28 50.2686<469.443 680.155> 257.123 36.4258<241.581 383.593> 536.371 72.8271<81.8475 157.348>
LayerCount: 2
Fore
SplineSet
37.0791015625 54.0322265625 m 0xd8
 30.4140625 71.48828125 28.021484375 227.73828125 31.78125 401.249023438 c 2
 38.5927734375 716.703125 l 1
 123.579101562 721.618164062 208.564453125 726.533203125 293.548828125 731.44921875 c 1
 293.548828125 241.581054688 l 1
 609.198242188 241.581054688 l 1
 609.198242188 22.26953125 l 1
 329.217773438 22.26953125 l 2
 121.551757812 22.26953125 46.087890625 30.47265625 37.0791015625 54.0322265625 c 0xd8
536.37109375 118.534179688 m 0
 536.37109375 159.28125 516.498046875 167.069335938 396.747070312 173.34375 c 2
 257.123046875 180.66796875 l 1xd8
 252.520507812 347.17578125 247.90625 513.671875 243.280273438 680.155273438 c 1xe8
 99.310546875 680.155273438 l 1
 99.310546875 477.103515625 99.310546875 274.051757812 99.310546875 71 c 1
 317.840820312 71 l 2
 518.3046875 71 536.37109375 74.9306640625 536.37109375 118.534179688 c 0
EndSplineSet
Validated: 33
EndChar

StartChar: M
Encoding: 77 77 43
Width: 845
VWidth: 25246
Flags: W
HStem: 1.54199 511.694<231.841 426.445> 659.428 36.5723<568.817 754.814> 662.235 40.8691<99.248 194.603>
VStem: 31.7188 67.5293<147.978 662.235> 606.987 50.708<65.0527 306.132> 754.814 60.7178<131.781 659.428>
LayerCount: 2
Fore
SplineSet
37.5537109375 31.888671875 m 2xdc
 30.5712890625 50.1259765625 27.958984375 207.010742188 31.71875 380.521484375 c 2
 38.5302734375 696 l 1xdc
 198.90625 703.104492188 l 1xbc
 359.2578125 710.233398438 l 1
 391.411132812 558.133789062 l 1
 423.588867188 406.05859375 l 1
 461.845703125 551.029296875 l 1
 500.126953125 696 l 1
 657.817382812 696 l 1
 815.532226562 696 l 1
 815.532226562 354.862304688 l 1
 815.532226562 13.724609375 l 1
 712.333984375 6.25390625 l 1
 609.135742188 -1.2412109375 l 1
 606.987304688 152.4453125 l 1
 604.838867188 306.131835938 l 1
 568.901367188 153.836914062 l 1
 532.939453125 1.5419921875 l 1
 426.4453125 1.5419921875 l 2
 322.856445312 1.5419921875 319.462890625 4.0322265625 301.567382812 92.923828125 c 2
 283.159179688 184.305664062 l 1
 270.122070312 99.02734375 l 2
 257.79296875 18.4853515625 251.298828125 13.3095703125 153.642578125 6.2294921875 c 0
 83.28125 1.126953125 46.171875 9.330078125 37.5537109375 31.888671875 c 2xdc
196.3671875 281.766601562 m 0
 196.3671875 468.55859375 203.203125 513.236328125 231.840820312 513.236328125 c 0
 266.630859375 513.236328125 276.8359375 485.453125 348.198242188 196.48828125 c 0
 373.149414062 95.4384765625 393.14453125 60.7216796875 429.47265625 55.3505859375 c 0
 471.5625 49.125 484.74609375 77.689453125 533.525390625 280.741210938 c 0
 571.245117188 437.723632812 600.493164062 513.236328125 623.540039062 513.236328125 c 0
 650.493164062 513.236328125 657.6953125 464.45703125 657.6953125 281.766601562 c 0
 657.6953125 66.5322265625 661.11328125 50.2724609375 706.254882812 50.2724609375 c 0
 752.2265625 50.2724609375 754.814453125 66.5322265625 754.814453125 354.862304688 c 2
 754.814453125 659.427734375 l 1
 658.623046875 659.427734375 l 2xdc
 567.8515625 659.427734375 561.11328125 654.30078125 538.872070312 568.0703125 c 0
 525.883789062 517.801757812 503.203125 430.08203125 488.432617188 373.1484375 c 0
 447.44140625 215.067382812 402.666015625 242.606445312 349.760742188 458.426757812 c 2
 303.471679688 647.245117188 l 1
 201.34765625 654.740234375 l 1
 99.248046875 662.235351562 l 1xbc
 99.248046875 356.25390625 l 2
 99.248046875 66.5322265625 101.811523438 50.2724609375 147.807617188 50.2724609375 c 0
 192.94921875 50.2724609375 196.3671875 66.5322265625 196.3671875 281.766601562 c 0
EndSplineSet
Validated: 33
EndChar

StartChar: N
Encoding: 78 78 44
Width: 715
VWidth: 25070
Flags: W
HStem: 0 48.999<78.5596 190.956 507.948 637.007> 657.886 48.7305<78.5596 207.618 524.589 637.007>
VStem: 30 48.5596<48.7305 657.886> 637.007 48.5596<48.7305 657.886>
LayerCount: 2
Fore
SplineSet
30 353.3203125 m 1
 30 706.616210938 l 1
 148.872070312 706.616210938 l 2
 265.693359375 706.616210938 269.135742188 704.443359375 349.189453125 578.90625 c 2
 430.634765625 451.196289062 l 1
 437.958984375 578.90625 l 1
 445.307617188 706.616210938 l 1
 565.424804688 706.616210938 l 1
 685.56640625 706.616210938 l 1
 685.56640625 353.3203125 l 1
 685.56640625 0 l 1
 566.694335938 0 l 2
 449.873046875 0 446.430664062 2.197265625 366.376953125 127.709960938 c 2
 284.931640625 255.444335938 l 1
 277.607421875 127.709960938 l 1
 270.258789062 0 l 1
 150.1171875 0 l 1
 30 0 l 1
 30 353.3203125 l 1
199.946289062 219.311523438 m 0
 199.946289062 449.145507812 246.50390625 449.145507812 394.208984375 219.311523438 c 0
 485.712890625 76.904296875 514.326171875 49.21875 570.234375 48.9990234375 c 2
 637.006835938 48.73046875 l 1
 637.006835938 353.3203125 l 1
 637.006835938 657.885742188 l 1
 576.313476562 657.885742188 l 2
 517.329101562 657.885742188 515.595703125 653.02734375 515.595703125 487.329101562 c 0
 515.595703125 257.495117188 469.038085938 257.495117188 321.357421875 487.329101562 c 0
 229.853515625 629.736328125 201.240234375 657.421875 145.33203125 657.641601562 c 2
 78.5595703125 657.885742188 l 1
 78.5595703125 353.3203125 l 1
 78.5595703125 48.73046875 l 1
 139.252929688 48.73046875 l 2
 198.212890625 48.73046875 199.946289062 53.61328125 199.946289062 219.311523438 c 0
EndSplineSet
Validated: 33
EndChar

StartChar: O
Encoding: 79 79 45
Width: 768
VWidth: 25129
Flags: W
HStem: 478.192 85.2783<317.096 452.556>
LayerCount: 2
Fore
SplineSet
68.7275390625 155.389648438 m 0
 17.677734375 254.461914062 16.9697265625 456.903320312 67.3603515625 554.657226562 c 0
 171.803710938 757.342773438 600.954101562 761.883789062 704.25 561.395507812 c 0
 750.392578125 471.869140625 749.5625 239.227539062 702.78515625 148.431640625 c 0
 682.521484375 109.125 633.888671875 60.3212890625 594.728515625 40.0087890625 c 0
 503.95703125 -7.0859375 262.819335938 -6.4267578125 175.392578125 41.1806640625 c 0
 138.844726562 61.078125 90.8466796875 112.469726562 68.7275390625 155.389648438 c 0
606.081054688 150.702148438 m 1
 669.09375 213.495117188 678.908203125 241.034179688 678.908203125 354.852539062 c 0
 678.908203125 460.174804688 667.287109375 498.846679688 620.705078125 548.602539062 c 0
 493.288085938 684.7109375 282.27734375 685.223632812 155.421875 549.725585938 c 0
 107.838867188 498.895507812 96.1689453125 460.736328125 96.1689453125 356 c 0
 96.1689453125 245.379882812 106.837890625 214.374023438 166.286132812 152.09375 c 0
 246.266601562 68.3291015625 298.68359375 51.849609375 436.110351562 67.2548828125 c 0
 501.759765625 74.603515625 556.813476562 101.629882812 606.081054688 150.702148438 c 1
269.899414062 193.79296875 m 0
 243.532226562 223.041015625 229.713867188 281.219726562 229.713867188 362.982421875 c 0
 229.713867188 464.129882812 239.870117188 494.745117188 283.693359375 525.53125 c 0
 313.356445312 546.405273438 360.109375 563.470703125 387.55078125 563.470703125 c 0
 414.9921875 563.470703125 461.720703125 546.405273438 491.408203125 525.53125 c 0
 563.4296875 474.896484375 569.77734375 252.044921875 500.954101562 189.569335938 c 0
 442.018554688 136.029296875 319.97265625 138.275390625 269.899414062 193.79296875 c 0
475.270507812 289.349609375 m 0
 515.211914062 393.036132812 475.661132812 478.192382812 387.55078125 478.192382812 c 0
 331.49609375 478.192382812 310.817382812 463.788085938 292.7265625 412.15234375 c 0
 238.0390625 256.09765625 416.26171875 136.17578125 475.270507812 289.349609375 c 0
EndSplineSet
Validated: 33
EndChar

StartChar: P
Encoding: 80 80 46
Width: 663
VWidth: 25062
Flags: W
HStem: 7.26953 48.7305<101.856 237.671> 250.946 48.7305<293.549 452.453> 372.772 219.287<252.245 408.222> 665.155 36.5479<99.3105 443.33>
VStem: 31.7812 67.5293<154.117 665.155> 244.989 48.5596<61.5789 250.946 454.853 513.251>
LayerCount: 2
Fore
SplineSet
37.0791015625 39.0078125 m 0
 30.4140625 56.48828125 28.021484375 212.73828125 31.78125 386.249023438 c 2
 38.6171875 701.703125 l 1
 271.014648438 708.63671875 l 2
 476.703125 714.764648438 510.907226562 709.637695312 568.451171875 664.227539062 c 0
 623.407226562 620.84375 633.490234375 594.0859375 633.490234375 491.717773438 c 0
 633.490234375 326.947265625 561.029296875 250.946289062 403.924804688 250.946289062 c 2
 293.548828125 250.946289062 l 1
 293.548828125 169.720703125 293.548828125 88.4951171875 293.548828125 7.26953125 c 1
 171.380859375 7.26953125 l 2
 93.40234375 7.26953125 44.8427734375 18.744140625 37.0791015625 39.0078125 c 0
244.989257812 177.826171875 m 2
 244.989257812 299.676757812 l 1
 331.1953125 299.676757812 l 2
 514.154296875 299.676757812 625.287109375 422.870117188 564.032226562 557.806640625 c 0
 528.36328125 636.37109375 445.624023438 665.155273438 255.560546875 665.155273438 c 2
 99.310546875 665.155273438 l 1
 99.310546875 462.103515625 99.310546875 259.051757812 99.310546875 56 c 1
 172.162109375 56 l 2
 243.377929688 56 244.989257812 58.7099609375 244.989257812 177.826171875 c 2
244.989257812 482.416015625 m 0
 244.989257812 582.147460938 250.311523438 592.059570312 303.705078125 592.059570312 c 0
 408.221679688 592.059570312 439.251953125 566.961914062 439.251953125 482.416015625 c 0
 439.251953125 397.845703125 408.221679688 372.772460938 303.705078125 372.772460938 c 0
 250.311523438 372.772460938 244.989257812 382.684570312 244.989257812 482.416015625 c 0
336.053710938 514.325195312 m 0
 309.466796875 519.452148438 293.548828125 507.513671875 293.548828125 482.416015625 c 0
 293.548828125 440.008789062 365.326171875 439.715820312 373.749023438 482.07421875 c 0
 376.385742188 495.306640625 359.41796875 509.80859375 336.053710938 514.325195312 c 0
EndSplineSet
Validated: 33
EndChar

StartChar: R
Encoding: 82 82 47
Width: 734
VWidth: 24883
Flags: W
HStem: 22.1143 48.7305<78.584 216.503 494.888 629.83> 680 48.7305<78.584 481.507>
VStem: 30 48.584<70.8447 680> 224.263 48.5596<462.3 526.806>
LayerCount: 2
Fore
SplineSet
30 728.73046875 m 1
 286.0546875 728.73046875 l 2
 525.556640625 728.73046875 545.966796875 724.873046875 601.704101562 668.940429688 c 0
 674.311523438 596.088867188 681.26953125 466.474609375 616.865234375 386.665039062 c 0
 573.359375 332.734375 573.84765625 328.950195312 640.693359375 207.294921875 c 0
 737.177734375 31.7578125 733.515625 22.1142578125 570.258789062 22.1875 c 2
 430.634765625 22.236328125 l 1
 382.083984375 115.604492188 333.524414062 208.963867188 284.956054688 302.314453125 c 1
 280.10546875 208.915039062 275.254882812 115.514648438 270.405273438 22.1142578125 c 1
 190.270507812 22.1142578125 110.134765625 22.1142578125 30 22.1142578125 c 1
 30 257.653320312 30 493.19140625 30 728.73046875 c 1
282.63671875 338.88671875 m 0
 328.095703125 338.88671875 357.734375 309.174804688 416.401367188 204.877929688 c 0
 480.830078125 90.2783203125 502.045898438 70.8447265625 562.690429688 70.8447265625 c 2
 633.61328125 70.8447265625 l 1
 572.553710938 180.512695312 l 2
 538.959960938 240.815429688 501.484375 290.15625 489.27734375 290.15625 c 0
 443.818359375 290.15625 469.184570312 359.028320312 529.145507812 398.45703125 c 0
 580.146484375 432.001953125 589.887695312 455.219726562 583.784179688 528.6328125 c 0
 573.872070312 647.309570312 506.977539062 679.194335938 266.743164062 679.658203125 c 2
 78.583984375 680 l 1
 78.583984375 476.948242188 78.583984375 273.896484375 78.583984375 70.8447265625 c 1
 151.411132812 70.8447265625 l 2
 223.530273438 70.8447265625 224.262695312 72.2119140625 224.262695312 204.877929688 c 0
 224.262695312 330.146484375 228.071289062 338.88671875 282.63671875 338.88671875 c 0
224.262695312 409.174804688 m 1
 224.262695312 476.020507812 224.262695312 542.866210938 224.262695312 609.711914062 c 1
 324.970703125 602.216796875 l 2
 441.596679688 593.549804688 495.600585938 536.103515625 452.338867188 466.81640625 c 0
 435.541992188 439.936523438 388.447265625 421.381835938 324.970703125 416.669921875 c 2
 224.262695312 409.174804688 l 1
355.805664062 475.5078125 m 0
 414.936523438 498.26171875 401.337890625 533.80859375 333.515625 533.80859375 c 0
 295.747070312 533.80859375 272.822265625 520.014648438 272.822265625 497.260742188 c 0
 272.822265625 457.9296875 295.063476562 452.094726562 355.805664062 475.5078125 c 0
EndSplineSet
Validated: 33
EndChar

StartChar: S
Encoding: 83 83 48
Width: 702
VWidth: 24904
Flags: W
VStem: 256.56 60.6934<514.97 559.915>
LayerCount: 2
Fore
SplineSet
34.513671875 279.823242188 m 0
 42.9609375 301.91796875 79.044921875 316.810546875 124.11328125 316.810546875 c 2
 199.577148438 316.810546875 l 1
 124.89453125 379.896484375 l 2
 24.69921875 464.491210938 24.3330078125 562.66015625 123.844726562 662.513671875 c 0
 194.279296875 733.192382812 204.948242188 736.024414062 366.764648438 726.844726562 c 0
 552.409179688 716.322265625 625.700195312 671.668945312 638.224609375 561.390625 c 0
 643.83984375 511.952148438 632.21875 498.841796875 572.208984375 486.952148438 c 0
 503.092773438 473.255859375 502.165039062 471.571289062 554.264648438 453.846679688 c 0
 629.313476562 428.333984375 688.493164062 306.922851562 669.083984375 218.2265625 c 0
 660.587890625 179.359375 620.79296875 119.862304688 580.705078125 86 c 0
 519.547851562 34.3642578125 483.610351562 24.57421875 357.877929688 25.404296875 c 0
 275.456054688 25.94140625 179.459960938 41.9326171875 144.572265625 60.9755859375 c 0
 74.40625 99.2568359375 12.5166015625 222.303710938 34.513671875 279.823242188 c 0
383.708007812 439.759765625 m 0
 275.08984375 471.9375 256.559570312 486.146484375 256.559570312 537.220703125 c 0
 256.559570312 586.219726562 270.109375 598.353515625 331.461914062 604.359375 c 0
 377.067382812 608.827148438 418.620117188 596.913085938 437.638671875 573.915039062 c 0
 454.826171875 553.114257812 495.255859375 536.122070312 527.482421875 536.122070312 c 0
 577.7265625 536.122070312 582.51171875 542.762695312 561.100585938 582.899414062 c 0
 481.4375 732.2890625 123.014648438 684.071289062 123.014648438 523.939453125 c 0
 123.014648438 450.306640625 190.055664062 396.25390625 334.977539062 353.065429688 c 0
 466.325195312 313.9296875 502.262695312 268.690429688 462.00390625 193.2265625 c 0
 428.336914062 130.067382812 305.436523438 131.092773438 250.919921875 194.984375 c 0
 210.319335938 242.591796875 98.7470703125 263.563476562 98.7470703125 223.59765625 c 0
 98.7470703125 192.127929688 202.775390625 103.7734375 256.559570312 89.564453125 c 0
 355.973632812 63.294921875 498.234375 97.083984375 553.99609375 160.243164062 c 0
 661.369140625 281.776367188 605.0703125 374.208007812 383.708007812 439.759765625 c 0
414.396484375 243.71484375 m 0
 414.396484375 257.118164062 411.588867188 268.080078125 408.146484375 268.080078125 c 0
 404.728515625 268.080078125 365.12890625 278.67578125 320.158203125 291.615234375 c 0
 239.93359375 314.7109375 239.201171875 314.247070312 281.583984375 267.25 c 0
 326.75 217.201171875 414.396484375 201.649414062 414.396484375 243.71484375 c 0
377.970703125 536.122070312 m 0
 369.71875 549.525390625 352.677734375 560.487304688 340.104492188 560.487304688 c 0
 327.555664062 560.487304688 317.252929688 549.525390625 317.252929688 536.122070312 c 0
 317.252929688 522.71875 334.293945312 511.756835938 355.119140625 511.756835938 c 0
 375.944335938 511.756835938 386.22265625 522.71875 377.970703125 536.122070312 c 0
EndSplineSet
Validated: 33
EndChar

StartChar: T
Encoding: 84 84 49
Width: 715
VWidth: 24846
Flags: W
HStem: 496.704 73.0986<83.4255 220.412> 667.268 48.7324<132.82 557.329>
VStem: 30 48.5615<577.744 654.955> 224.245 72.8428<64.2777 496.397> 423.714 69.3799<266.557 496.704> 612.737 72.8418<579.413 655.113>
LayerCount: 2
Fore
SplineSet
224.245117188 6.8330078125 m 1
 224.245117188 170.123046875 224.245117188 333.4140625 224.245117188 496.704101562 c 1
 159.497070312 496.704101562 94.748046875 496.704101562 30 496.704101562 c 1
 30 569.802734375 30 642.901367188 30 716 c 1
 248.526367188 716 467.052734375 716 685.579101562 716 c 1
 685.579101562 642.901367188 685.579101562 569.802734375 685.579101562 496.704101562 c 1
 621.416992188 496.704101562 557.255859375 496.704101562 493.09375 496.704101562 c 1
 488.4609375 338.323242188 483.828125 179.942382812 479.193359375 21.5634765625 c 1
 394.2109375 16.6533203125 309.227539062 11.7431640625 224.245117188 6.8330078125 c 1
423.713867188 307.866210938 m 2
 430.631835938 557.619140625 l 1
 521.684570312 565.181640625 l 2
 593.016601562 571.106445312 612.737304688 582.981445312 612.737304688 620.005859375 c 0
 612.737304688 663.913085938 593.78125 667.267578125 345.649414062 667.267578125 c 0
 94.7490234375 667.267578125 78.5615234375 664.313476562 78.5615234375 618.53515625 c 0
 78.5615234375 578.147460938 94.7490234375 569.802734375 173.088867188 569.802734375 c 0
 290.517578125 569.802734375 297.087890625 554.198242188 297.087890625 275.415039062 c 0
 297.087890625 60.6923828125 297.79296875 58.1123046875 356.942382812 58.1123046875 c 0
 416.213867188 58.1123046875 416.859375 60.5302734375 423.713867188 307.866210938 c 2
EndSplineSet
Validated: 1
EndChar

StartChar: U
Encoding: 85 85 50
Width: 715
VWidth: 25052
Flags: W
HStem: 667.268 48.7324<73.8691 224.24 493.088 641.701>
VStem: 30 43.8691<476.264 667.268> 30.5352 51.7471<225.224 628.71> 224.24 48.5674<299.495 667.268> 442.772 43.3662<304.293 667.268> 633.287 52.293<244.96 628.452> 641.701 43.8789<475.119 667.268>
LayerCount: 2
Fore
SplineSet
30.53515625 441.879882812 m 2xbc
 30 716 l 1
 110.935546875 716 191.872070312 716 272.807617188 716 c 1
 272.807617188 510.879882812 l 2
 272.807617188 267.186523438 284.40625 228.67578125 357.790039062 228.67578125 c 0
 431.17578125 228.67578125 442.772460938 267.186523438 442.772460938 510.879882812 c 2
 442.772460938 716 l 1
 523.708007812 716 604.64453125 716 685.580078125 716 c 1xda
 685.580078125 461.30078125 l 2
 685.580078125 178.861328125 665.2109375 109.697265625 564.430664062 49.9560546875 c 0
 485.647460938 3.2529296875 239.569335938 -4.2939453125 163.543945312 37.6611328125 c 0
 47.9765625 101.436523438 31.103515625 152.71484375 30.53515625 441.879882812 c 2xbc
561.8046875 142.088867188 m 0
 619.275390625 199.725585938 625.619140625 225.838867188 633.287109375 436.302734375 c 2xbc
 641.701171875 667.267578125 l 1
 592.163085938 667.267578125 542.625976562 667.267578125 493.087890625 667.267578125 c 1
 486.138671875 430.227539062 l 2
 479.301757812 197.0078125 478.12890625 192.815429688 413.393554688 170.024414062 c 0
 368.78515625 154.318359375 327.741210938 155.940429688 285.919921875 175.0625 c 0
 226.155273438 202.389648438 224.240234375 210.461914062 224.240234375 435.265625 c 2
 224.240234375 667.267578125 l 1
 174.116210938 667.267578125 123.993164062 667.267578125 73.869140625 667.267578125 c 1xda
 82.2822265625 437.706054688 l 2xb8
 89.673828125 236.0625 97.7080078125 200.662109375 148.345703125 146.609375 c 0
 249.668945312 38.455078125 456.220703125 36.1962890625 561.8046875 142.088867188 c 0
EndSplineSet
Validated: 33
EndChar

StartChar: V
Encoding: 86 86 51
Width: 811
VWidth: 25212
Flags: W
HStem: 641.673 48.7324<105.056 232.07>
LayerCount: 2
Fore
SplineSet
251.680664062 37.3896484375 m 0
 135.147460938 350.643554688 30 649.717773438 30 667.93359375 c 0
 30 680.29296875 89.521484375 690.405273438 162.266601562 690.405273438 c 2
 294.533203125 690.405273438 l 1
 333.342773438 564.513671875 372.151367188 438.622070312 410.959960938 312.729492188 c 1
 448.33984375 438.622070312 485.719726562 564.513671875 523.100585938 690.405273438 c 1
 652.90234375 690.405273438 l 2
 741.1796875 690.405273438 782.328125 680.662109375 781.532226562 659.947265625 c 0
 780.899414062 643.196289062 728.254882812 486.947265625 664.569335938 312.729492188 c 2
 548.77734375 -4.03125 l 1
 410.654296875 -11.3427734375 l 2
 285.481445312 -17.96875 270.576171875 -13.400390625 251.680664062 37.3896484375 c 0
510.666015625 99.5244140625 m 0
 523.911132812 136.37890625 573.931640625 274.145507812 621.823242188 405.674804688 c 2
 708.8984375 644.81640625 l 1
 643.705078125 637.153320312 l 2
 584.159179688 630.153320312 572.557617188 609.971679688 509.721679688 404.102539062 c 0
 468.264648438 268.271484375 428.171875 178.71484375 408.825195312 178.71484375 c 0
 389.236328125 178.71484375 350.158203125 268.970703125 308.599609375 410.194335938 c 0
 243.495117188 631.431640625 237.463867188 641.672851562 172.272460938 641.672851562 c 2
 104.065429688 641.672851562 l 1
 178.889648438 440.651367188 l 2
 220.04296875 330.08984375 269.963867188 193.030273438 289.823242188 136.07421875 c 0
 322.483398438 42.4150390625 333.611328125 32.517578125 406.258789062 32.517578125 c 0
 471.860351562 32.517578125 490.999023438 44.7998046875 510.666015625 99.5244140625 c 0
EndSplineSet
Validated: 33
EndChar

StartChar: at
Encoding: 64 64 52
Width: 770
VWidth: 22077
Flags: W
HStem: 703.668 124.26<389.985 474.987>
VStem: 606.989 133.345<375.922 547.068>
LayerCount: 2
Fore
SplineSet
225.333984375 40 m 4
 97.33984375 103.30859375 40.09375 206.002929688 30.90625 388.791015625 c 4
 17.32421875 659.024414062 157.286132812 827.927734375 394.798828125 827.927734375 c 4
 623.126953125 827.927734375 740.333984375 712.215820312 740.333984375 486.80078125 c 4
 740.333984375 397.622070312 725.474609375 330.369140625 695.918945312 285.779296875 c 4
 655.201171875 224.349609375 654.909179688 218.772460938 692.407226562 218.772460938 c 4
 774.5078125 218.772460938 722.584960938 115.314453125 610.780273438 56.126953125 c 4
 485.274414062 -10.3134765625 339.395507812 -16.4169921875 225.333984375 40 c 4
474.984375 145.673828125 m 4
 510.977539062 161.1953125 492.125976562 166.961914062 402.142578125 167.954101562 c 4
 315.260742188 168.912109375 291.095703125 162.577148438 317.159179688 145.673828125 c 4
 360.784179688 117.3828125 409.376953125 117.3828125 474.984375 145.673828125 c 4
487.083007812 413.483398438 m 4
 517.704101562 575.51171875 517.712890625 615.419921875 487.133789062 596.44921875 c 4
 473.779296875 588.166015625 462.852539062 533.409179688 462.852539062 474.765625 c 4
 462.852539062 416.123046875 452.473632812 340.747070312 439.788085938 307.264648438 c 4
 423.412109375 264.040039062 425.171875 242.940429688 445.858398438 234.502929688 c 4
 500.58203125 212.182617188 517.380859375 218.747070312 490.065429688 251.77734375 c 4
 470.5234375 275.396484375 469.677734375 321.381835938 487.083007812 413.483398438 c 4
389.577148438 387.755859375 m 4
 419.323242188 498.612304688 400.606445312 574.698242188 353.28515625 535.287109375 c 4
 291.819335938 484.095703125 282.383789062 243.060546875 343.325195312 280.857421875 c 4
 354.916992188 288.046875 375.73046875 336.150390625 389.577148438 387.755859375 c 4
250.1796875 444.137695312 m 4
 254.944335938 494.380859375 251.049804688 527.275390625 241.52734375 517.236328125 c 4
 222.296875 496.963867188 211.704101562 403.334960938 220.166015625 328.420898438 c 4
 226.71484375 270.4375 237.740234375 312.946289062 250.1796875 444.137695312 c 4
606.989257812 497.548828125 m 4
 605.197265625 612.709960938 576.775390625 562.565429688 552.559570312 401.518554688 c 4
 539.137695312 312.260742188 540.877929688 308.037109375 573.216796875 351.352539062 c 4
 592.637695312 377.366210938 607.8359375 443.155273438 606.989257812 497.548828125 c 4
474.984375 681.73046875 m 4
 483.928710938 696.254882812 457.537109375 705.116210938 409.645507812 703.66796875 c 4
 334.10546875 701.384765625 332.930664062 700.072265625 390.001953125 681.73046875 c 4
 423.387695312 671.000976562 452.790039062 661.12890625 455.340820312 659.79296875 c 4
 457.891601562 658.458007812 466.73046875 668.329101562 474.984375 681.73046875 c 4
EndSplineSet
Validated: 33
EndChar

StartChar: question
Encoding: 63 63 53
Width: 597
VWidth: 24801
Flags: W
HStem: 24 48.7324<222.524 333.702>
VStem: 168.85 48.5615<78.7288 164.201> 338.814 69.6768<78.7288 164.201> 508.779 58.2744<479.475 578.172>
LayerCount: 2
Fore
SplineSet
168.849609375 181.533203125 m 2
 168.849609375 323.310546875 176.458007812 347.760742188 244.922851562 426.012695312 c 0
 286.763671875 473.834960938 314.96484375 519.014648438 307.591796875 526.413085938 c 0
 300.219726562 533.811523438 281.786132812 516.609375 266.627929688 488.188476562 c 0
 243.357421875 444.552734375 225.104492188 439.000976562 149.327148438 452.506835938 c 0
 26.802734375 474.345703125 10.6201171875 495.205078125 47.287109375 584.037109375 c 0
 91.748046875 691.75390625 160.462890625 730.620117188 306.442382812 730.620117188 c 0
 475.1484375 730.620117188 567.053710938 657.39453125 567.053710938 522.977539062 c 0
 567.053710938 448.248046875 551.666015625 417.958984375 485.571289062 362.586914062 c 0
 409.662109375 298.991210938 404.390625 285.079101562 408.491210938 159.162109375 c 2
 412.892578125 24 l 1
 331.544921875 24 250.197265625 24 168.849609375 24 c 1
 168.849609375 181.533203125 l 2
338.814453125 121.465820312 m 0
 338.814453125 157.202148438 322.626953125 170.197265625 278.11328125 170.197265625 c 0
 233.598632812 170.197265625 217.411132812 157.202148438 217.411132812 121.465820312 c 0
 217.411132812 85.7275390625 233.598632812 72.732421875 278.11328125 72.732421875 c 0
 322.626953125 72.732421875 338.814453125 85.7275390625 338.814453125 121.465820312 c 0
321.06640625 234.913085938 m 0
 304.626953125 241.586914062 271.848632812 241.993164062 248.223632812 235.815429688 c 0
 224.599609375 229.637695312 238.049804688 224.176757812 278.11328125 223.6796875 c 0
 318.17578125 223.184570312 337.504882812 228.23828125 321.06640625 234.913085938 c 0
409.733398438 390.434570312 m 0
 464.208984375 444.55859375 508.779296875 502.424804688 508.779296875 519.02734375 c 0
 508.779296875 573.920898438 438.076171875 651.700195312 373.357421875 668 c 0
 259.833007812 696.59375 96.0078125 612.190429688 96.0078125 525.109375 c 0
 96.0078125 493.963867188 195.723632812 514.119140625 208.630859375 547.874023438 c 0
 217.25390625 570.424804688 254.159179688 584.422851562 304.991210938 584.422851562 c 0
 374.904296875 584.422851562 387.375976562 575.891601562 387.375976562 528.06640625 c 0
 387.375976562 497.0703125 354.596679688 440.194335938 314.534179688 401.676757812 c 0
 274.470703125 363.158203125 241.69140625 322.73046875 241.69140625 311.8359375 c 0
 241.69140625 263.857421875 318.487304688 299.77734375 409.733398438 390.434570312 c 0
EndSplineSet
Validated: 33
EndChar

StartChar: A
Encoding: 65 65 54
Width: 811
VWidth: 24981
Flags: W
HStem: 0 48.7324<105.837 224.525 573.03 705.899> 97.4648 48.7324<318.77 486.531> 243.662 48.7324<383.905 411.876> 491.69 20G<389.495 416.333> 657.888 36.5498<329.864 482.371>
LayerCount: 2
Fore
SplineSet
30 30.4580078125 m 0
 30.125 47.2099609375 83.7001953125 203.458007812 149.048828125 377.676757812 c 2
 267.86328125 694.4375 l 1
 360.565429688 694.4375 453.268554688 694.4375 545.970703125 694.4375 c 1
 663.174804688 377.676757812 l 2
 727.63671875 203.458007812 780.848632812 47.2099609375 781.423828125 30.4580078125 c 0
 782.135742188 9.701171875 740.458007812 0 650.561523438 0 c 0
 539.978515625 0 516.162109375 7.87890625 503.240234375 48.732421875 c 0
 491.666992188 85.328125 466.502929688 97.46484375 402.208007812 97.46484375 c 0
 337.008789062 97.46484375 313.560546875 85.8427734375 303.889648438 48.732421875 c 0
 293.174804688 7.61328125 270.770507812 0 160.478515625 0 c 0
 71.9716796875 0 29.841796875 9.8349609375 30 30.4580078125 c 0
241.2578125 97.46484375 m 0
 252.169921875 139.340820312 274.376953125 146.197265625 399.08203125 146.197265625 c 0
 523.788085938 146.197265625 545.995117188 139.340820312 556.907226562 97.46484375 c 0
 565.87890625 63.0361328125 590.026367188 48.732421875 639.180664062 48.732421875 c 2
 708.754882812 48.732421875 l 1
 621.939453125 286.302734375 l 2
 574.19140625 416.966796875 524.150390625 554.026367188 510.737304688 590.880859375 c 0
 490.849609375 645.522460938 471.543945312 657.887695312 406.118164062 657.887695312 c 0
 340.69140625 657.887695312 321.385742188 645.522460938 301.498046875 590.880859375 c 0
 288.0859375 554.026367188 238.043945312 416.966796875 190.295898438 286.302734375 c 2
 103.48046875 48.732421875 l 1
 166.01953125 48.732421875 l 2
 208.138671875 48.732421875 232.705078125 64.64453125 241.2578125 97.46484375 c 0
310.869140625 264.986328125 m 0
 289.131835938 300.28125 371.731445312 511.690429688 407.258789062 511.690429688 c 0
 425.407226562 511.690429688 451.634765625 470.572265625 465.54296875 420.317382812 c 0
 508.362304688 265.590820312 501.163085938 243.662109375 407.55078125 243.662109375 c 0
 361.598632812 243.662109375 318.091796875 253.2578125 310.869140625 264.986328125 c 0
418.2578125 341.126953125 m 0
 418.2578125 367.9296875 414.069335938 389.859375 408.94921875 389.859375 c 0
 400.119140625 389.859375 365.82421875 292.39453125 396.250976562 292.39453125 c 0
 408.354492188 292.39453125 418.2578125 314.32421875 418.2578125 341.126953125 c 0
EndSplineSet
Validated: 33
EndChar

StartChar: B
Encoding: 66 66 55
Width: 691
VWidth: 25011
Flags: W
HStem: 0 53.4199<154.606 500.423> 0 42.7715<78.5615 224.462> 511.69 72.7256<277.911 378.491> 657.887 48.7324<78.5615 478.78>
VStem: 30 48.5615<42.7715 657.887> 224.246 48.5615<199.961 262.996 440.186 502.75> 395.721 59.1924<210.615 252.342>
LayerCount: 2
Fore
SplineSet
30 0 m 5x7e
 30 235.540039062 30 471.079101562 30 706.619140625 c 5
 280.71484375 706.619140625 l 6
 511.390625 706.619140625 535.650390625 702.111328125 584.224609375 650.225585938 c 4
 640.704101562 589.892578125 656.671875 443.694335938 611.708007812 398.573242188 c 4
 594.149414062 380.951171875 597.8671875 363.623046875 623.848632812 341.983398438 c 4
 646.982421875 322.716796875 661.298828125 270.693359375 661.298828125 205.897460938 c 4
 661.298828125 121.598632812 648.736328125 91.0859375 597.322265625 50.5009765625 c 4
 541.9453125 6.7880859375 499.518554688 0 281.672851562 0 c 6xbe
 30 0 l 5x7e
567.59375 120.015625 m 4
 627.9375 194.799804688 624.505859375 235.043945312 552.036132812 302.443359375 c 4
 478.799804688 370.5546875 478.25 376.728515625 539.895507812 438.590820312 c 4
 602.76171875 501.678710938 601.107421875 525.576171875 528.858398438 598.079101562 c 4
 475.458007812 651.666992188 448.944335938 657.88671875 273.911132812 657.88671875 c 6
 78.5615234375 657.88671875 l 5
 78.5615234375 452.848632812 78.5615234375 247.809570312 78.5615234375 42.771484375 c 5x7e
 300.505859375 53.419921875 l 6
 495.71484375 62.7861328125 527.887695312 70.8076171875 567.59375 120.015625 c 4
224.24609375 143.52734375 m 5
 224.24609375 202.162109375 224.24609375 260.795898438 224.24609375 319.430664062 c 5
 339.579101562 312.00390625 l 6
 449.895507812 304.900390625 454.913085938 301.397460938 454.913085938 231.478515625 c 4
 454.913085938 161.559570312 449.895507812 158.056640625 339.579101562 150.953125 c 6
 224.24609375 143.52734375 l 5
395.720703125 231.478515625 m 4
 395.720703125 244.879882812 368.065429688 259.314453125 334.263671875 263.5546875 c 4
 290.463867188 269.049804688 272.807617188 259.833984375 272.807617188 231.478515625 c 4
 272.807617188 203.123046875 290.463867188 193.907226562 334.263671875 199.40234375 c 4
 368.065429688 203.642578125 395.720703125 218.077148438 395.720703125 231.478515625 c 4
224.24609375 485.922851562 m 6
 224.24609375 581.295898438 227.033203125 584.775390625 303.158203125 584.416015625 c 4
 413.075195312 583.895507812 448.033203125 555.018554688 438.646484375 472.497070312 c 4
 431.37109375 408.538085938 421.118164062 401.3515625 327.439453125 394.549804688 c 6
 224.24609375 387.056640625 l 5
 224.24609375 485.922851562 l 6
355.6640625 453.327148438 m 4
 405.083007812 472.358398438 381.00390625 511.690429688 319.935546875 511.690429688 c 4
 294.014648438 511.690429688 272.807617188 495.243164062 272.807617188 475.140625 c 4
 272.807617188 435.83984375 295.047851562 429.985351562 355.6640625 453.327148438 c 4
EndSplineSet
Validated: 33
EndChar

StartChar: C
Encoding: 67 67 56
Width: 734
VWidth: 22135
Flags: W
VStem: 30.001 655.419<432.568 604.758>
LayerCount: 2
Fore
SplineSet
180.1328125 40 m 0
 80.5224609375 95.46875 30.1748046875 201.260742188 30.0009765625 355.463867188 c 0
 29.71875 604.7578125 133.015625 713.655273438 369.771484375 713.655273438 c 0
 560.74609375 713.655273438 685.419921875 628.901367188 685.419921875 499.075195312 c 0
 685.419921875 432.568359375 494.224609375 399.51953125 451.184570312 458.586914062 c 0
 407.71484375 518.245117188 314.198242188 494.07421875 287.00390625 416.151367188 c 0
 237.143554688 273.280273438 370.084960938 161.151367188 451.330078125 277.552734375 c 0
 481.84765625 321.276367188 501.842773438 326.270507812 587.94140625 311.672851562 c 0
 643.4140625 302.268554688 694.294921875 280.208007812 701.0078125 262.651367188 c 0
 720.8046875 210.880859375 641.711914062 83.904296875 564.811523438 43.9970703125 c 0
 478.587890625 -0.748046875 257.431640625 -3.0458984375 180.1328125 40 c 0
485.94921875 81.95703125 m 0
 527.124023438 96.361328125 578.311523438 134.947265625 599.69921875 167.704101562 c 0
 636.700195312 224.374023438 635.895507812 228.275390625 583.090820312 248.196289062 c 0
 541.676757812 263.8203125 521.9609375 259.065429688 505.389648438 229.45703125 c 0
 457.1953125 143.346679688 342.856445312 126.020507812 268.490234375 193.55859375 c 0
 209.54296875 247.092773438 206.826171875 459.19921875 264.271484375 522.8984375 c 0
 313.73828125 577.750976562 413.444335938 580.366210938 486.8984375 528.735351562 c 0
 549.7109375 484.584960938 618.497070312 499.259765625 598.150390625 552.470703125 c 0
 590.665039062 572.044921875 546.448242188 606.200195312 499.890625 628.37109375 c 0
 334.513671875 707.124023438 127.146484375 612.870117188 89.736328125 441.9453125 c 0
 35.013671875 191.915039062 247.749023438 -1.3720703125 485.94921875 81.95703125 c 0
EndSplineSet
Validated: 33
EndChar

StartChar: D
Encoding: 68 68 57
Width: 702
VWidth: 25265
Flags: W
HStem: 0 53.2998<78.5615 232.523> 8.375 44.9248<78.5615 412.618> 544.989 20G<224.245 366.143> 660.024 51.1611<78.5615 438.559>
VStem: 30 48.5615<53.2998 662.455> 224.245 242.808<193.958 512.477> 224.245 48.5615<207.182 507.007>
LayerCount: 2
Fore
SplineSet
30 0 m 1xb8
 30 237.061523438 30 474.124023438 30 711.185546875 c 1
 260.283203125 711.185546875 l 2
 477.768554688 711.185546875 494.763671875 707.423828125 566.068359375 643.48828125 c 0
 702.408203125 521.240234375 709.181640625 212.157226562 578.399414062 80.8154296875 c 0
 519.495117188 21.658203125 496.041015625 16.107421875 272.303710938 8.375 c 2x78
 30 0 l 1xb8
546.446289062 561.100585938 m 0
 489.217773438 638.022460938 429.069335938 656.84375 230.315429688 660.024414062 c 2
 78.5615234375 662.455078125 l 1
 78.5615234375 459.403320312 78.5615234375 256.3515625 78.5615234375 53.2998046875 c 1
 225.025390625 53.2998046875 l 2xb8
 305.580078125 53.2998046875 408.655273438 68.8828125 454.079101562 87.9296875 c 0
 612.963867188 154.548828125 662.004882812 405.77734375 546.446289062 561.100585938 c 0
224.245117188 150.763671875 m 1x3a
 224.245117188 288.838867188 224.245117188 426.9140625 224.245117188 564.989257812 c 1x3a
 307.493164062 564.989257812 l 2
 424.79296875 564.989257812 467.052734375 512.4765625 467.052734375 366.716796875 c 0x3c
 467.052734375 193.958007812 437.7421875 150.763671875 320.513671875 150.763671875 c 2
 224.245117188 150.763671875 l 1x3a
389.178710938 236.053710938 m 0
 393.087890625 239.428710938 402.512695312 280.69140625 410.123046875 327.748046875 c 0
 420.90234375 394.412109375 412.630859375 424.672851562 372.663085938 464.78125 c 0
 290.70703125 547.025390625 272.806640625 527.567382812 272.806640625 356.234375 c 0
 272.806640625 201.536132812 274.624023438 196.772460938 327.438476562 213.064453125 c 0
 357.486328125 222.333007812 385.268554688 232.677734375 389.178710938 236.053710938 c 0
EndSplineSet
Validated: 33
EndChar

StartChar: E
Encoding: 69 69 58
Width: 663
VWidth: 25117
Flags: W
HStem: 0 48.7324<130.143 556.884> 146.197 48.7324<297.896 579.224> 272.957 68.1699<307.292 531.95> 280.212 182.746<450.643 597.537> 414.226 48.7324<294.358 531.92> 511.69 68.1699<296.684 546.911> 657.888 36.5498<99.3115 233.804> 688.12 20G<534.341 633.487>
VStem: 31.7793 67.5322<146.837 657.888> 244.996 48.5615<206.34 255.459> 560.646 72.8418<597.358 645.517> 584.926 48.5615<60.3291 136.34>
LayerCount: 2
Fore
SplineSet
37.0869140625 31.7470703125 m 4xe4d0
 30.41015625 49.20703125 28.0234375 205.455078125 31.779296875 378.96484375 c 6
 38.609375 694.4375 l 5xe6d0
 236.90234375 698.998046875 435.1953125 703.55859375 633.487304688 708.120117188 c 5
 633.487304688 642.643554688 633.487304688 577.166992188 633.487304688 511.690429688 c 5
 463.522460938 511.690429688 l 6
 366.399414062 511.690429688 293.557617188 501.248046875 293.557617188 487.32421875 c 4
 293.557617188 473.556640625 362.842773438 462.958007812 452.848632812 462.958007812 c 6xd5d0
 612.139648438 462.958007812 l 5xccd0
 607.115234375 402.041992188 602.090820312 341.126953125 597.06640625 280.211914062 c 5xd4d0
 445.311523438 272.95703125 l 6
 332.141601562 267.547851562 293.557617188 256.706054688 293.557617188 230.31640625 c 4
 293.557617188 202.749023438 331.112304688 194.9296875 463.522460938 194.9296875 c 6
 633.487304688 194.9296875 l 5
 633.487304688 129.953125 633.487304688 64.9765625 633.487304688 0 c 5
 341.359375 0 l 6
 123.728515625 0 46.1318359375 8.0966796875 37.0869140625 31.7470703125 c 4xe4d0
584.92578125 97.46484375 m 4
 584.92578125 141.555664062 568.740234375 146.197265625 414.9609375 146.197265625 c 6
 244.99609375 146.197265625 l 5
 244.99609375 211.173828125 244.99609375 276.150390625 244.99609375 341.126953125 c 5
 390.6796875 341.126953125 l 6
 503.991210938 341.126953125 536.364257812 349.249023438 536.364257812 377.676757812 c 4
 536.364257812 406.146484375 503.821289062 414.225585938 389.143554688 414.225585938 c 6
 241.918945312 414.225585938 l 5
 249.529296875 493.416015625 l 6
 257.135742188 572.602539062 257.143554688 572.606445312 408.890625 579.860351562 c 4
 522.063476562 585.26953125 560.645507812 596.111328125 560.645507812 622.500976562 c 4xeee0
 560.645507812 650.956054688 515.4609375 657.887695312 329.978515625 657.887695312 c 6
 99.3115234375 657.887695312 l 5
 99.3115234375 454.8359375 99.3115234375 251.784179688 99.3115234375 48.732421875 c 5
 342.119140625 48.732421875 l 6
 568.740234375 48.732421875 584.92578125 51.9814453125 584.92578125 97.46484375 c 4
EndSplineSet
Validated: 33
EndChar

StartChar: F
Encoding: 70 70 59
Width: 594
VWidth: 25245
Flags: W
HStem: 0 48.7305<78.5596 216.481> 268.018 48.7549<272.822 459.335> 389.868 168.115<224.238 357.448> 389.868 73.0957<273.45 462.069> 511.694 194.922<337.568 418.501 511.104 564.18> 657.886 48.7305<78.5596 509.38>
VStem: 30 48.5596<48.7305 657.886> 224.238 48.584<54.4918 268.018 473.73 499.994>
LayerCount: 2
Fore
SplineSet
30 0 m 5xdb
 30 235.5390625 30 471.077148438 30 706.616210938 c 5xd7
 208.059570312 706.616210938 386.120117188 706.616210938 564.1796875 706.616210938 c 5
 564.1796875 641.642578125 564.1796875 576.66796875 564.1796875 511.694335938 c 5
 418.500976562 511.694335938 l 6
 337.568359375 511.694335938 272.822265625 500.854492188 272.822265625 487.329101562 c 4
 272.822265625 473.92578125 327.241210938 462.963867188 393.745117188 462.963867188 c 4
 502.485351562 462.963867188 516.23046875 456.811523438 529.926757812 402.099609375 c 4
 556.513671875 295.727539062 528.6328125 268.017578125 394.965820312 268.017578125 c 6
 272.822265625 268.017578125 l 5
 272.822265625 178.678710938 272.822265625 89.3388671875 272.822265625 0 c 5
 191.881835938 0 110.940429688 0 30 0 c 5xdb
224.23828125 182.739257812 m 6
 224.23828125 316.772460938 l 5
 345.649414062 316.772460938 l 6
 437.373046875 316.772460938 467.060546875 325.68359375 467.060546875 353.3203125 c 4
 467.060546875 380.932617188 437.373046875 389.868164062 345.649414062 389.868164062 c 6
 224.23828125 389.868164062 l 5
 224.23828125 445.90625 224.23828125 501.9453125 224.23828125 557.983398438 c 5xe7
 363.618164062 565.307617188 l 6
 473.579101562 571.069335938 504.70703125 581.616210938 511.103515625 615.258789062 c 4
 518.305664062 653.3203125 495.576171875 657.885742188 298.872070312 657.885742188 c 6
 78.5595703125 657.885742188 l 5
 78.5595703125 454.833984375 78.5595703125 251.782226562 78.5595703125 48.73046875 c 5
 151.411132812 48.73046875 l 6
 223.505859375 48.73046875 224.23828125 50.09765625 224.23828125 182.739257812 c 6
EndSplineSet
Validated: 33
EndChar

StartChar: G
Encoding: 71 71 60
Width: 771
VWidth: 25163
Flags: W
HStem: 363.391 49.5117<430.788 482.96 650.588 671.34>
VStem: 30.0801 68.1152<189.655 463.92> 377.443 48.5596<301.217 352.2>
LayerCount: 2
Fore
SplineSet
30.080078125 340.465820312 m 0
 33.4736328125 565.563476562 162.6484375 680.138671875 413.063476562 680.138671875 c 0
 606.178710938 680.138671875 714.845703125 613.09765625 716.603515625 492.858398438 c 0
 717.189453125 450.79296875 700.758789062 437.51171875 638.454101562 429.748046875 c 0
 560.768554688 420.055664062 560.939453125 419.860351562 650.587890625 416.02734375 c 2
 741.65234375 412.12109375 l 1
 741.65234375 297.619140625 741.65234375 183.1171875 741.65234375 68.615234375 c 1
 638.454101562 21.59375 l 2
 496.583984375 -43.0302734375 269.557617188 -42.17578125 167.62890625 23.3759765625 c 0
 73.537109375 83.8740234375 27.8095703125 189.293945312 30.080078125 340.465820312 c 0
663.991210938 235.65625 m 2
 671.33984375 363.390625 l 1
 548.659179688 363.390625 l 2
 458.3515625 363.390625 426.002929688 354.162109375 426.002929688 328.454101562 c 0
 426.002929688 308.483398438 454.518554688 290.221679688 492.555664062 285.802734375 c 0
 573.244140625 276.4765625 596.92578125 198.498046875 533.25390625 151.793945312 c 0
 472.389648438 107.140625 329.372070312 111.73046875 276.149414062 160.045898438 c 0
 217.213867188 213.5859375 214.479492188 425.6953125 271.92578125 489.391601562 c 0
 317.702148438 540.124023438 451.3203125 548.913085938 520.241210938 505.724609375 c 0
 544.997070312 490.221679688 584.572265625 484.97265625 608.180664062 494.0546875 c 0
 648.87890625 509.728515625 648.927734375 513.024414062 609.23046875 557.04296875 c 0
 515.138671875 661.388671875 270.387695312 640.856445312 156.3984375 519.103515625 c 0
 109.938476562 469.469726562 98.1953125 430.578125 98.1953125 326.4765625 c 0
 98.1953125 215.856445312 108.864257812 184.850585938 168.3125 122.5703125 c 0
 206.88671875 82.189453125 261.500976562 44.1279296875 289.723632812 38 c 0
 362.086914062 22.27734375 521.92578125 43.419921875 594.923828125 78.380859375 c 0
 647.70703125 103.649414062 657.716796875 126.4765625 663.991210938 235.65625 c 2
474.5625 192.809570312 m 0
 502.931640625 211.217773438 496.2421875 216.515625 444.215820312 216.80859375 c 0
 382.545898438 217.150390625 377.443359375 224.669921875 377.443359375 314.66015625 c 0
 377.443359375 404.552734375 382.619140625 412.169921875 444.215820312 412.90234375 c 0
 508.15625 413.634765625 508.986328125 415.172851562 463.844726562 449.450195312 c 0
 402.272460938 496.178710938 386.891601562 494.689453125 328.883789062 436.486328125 c 0
 210.5 317.6875 338.087890625 104.30859375 474.5625 192.809570312 c 0
EndSplineSet
Validated: 33
EndChar

StartChar: H
Encoding: 72 72 61
Width: 715
VWidth: 25128
Flags: W
HStem: 0 48.7305<78.5596 216.481 499.088 637.007> 268.042 48.7305<272.798 442.769> 426.416 60.9131<279.315 436.252> 657.886 48.7305<78.5596 215.136 500.453 637.007>
VStem: 30 48.5596<48.7305 657.886> 224.238 48.5596<54.4928 268.042> 442.769 48.5596<54.4928 268.042> 637.007 48.584<48.7305 657.886>
LayerCount: 2
Fore
SplineSet
30 0 m 1
 30 235.5390625 30 471.077148438 30 706.616210938 c 1
 110.932617188 706.616210938 191.865234375 706.616210938 272.797851562 706.616210938 c 1
 272.797851562 596.97265625 l 2
 272.797851562 487.915039062 273.237304688 487.329101562 357.783203125 487.329101562 c 0
 442.329101562 487.329101562 442.768554688 487.915039062 442.768554688 596.97265625 c 2
 442.768554688 706.616210938 l 1
 523.708984375 706.616210938 604.650390625 706.616210938 685.590820312 706.616210938 c 1
 685.590820312 471.077148438 685.590820312 235.5390625 685.590820312 0 c 1
 604.650390625 0 523.708984375 0 442.768554688 0 c 1
 442.768554688 89.34765625 442.768554688 178.694335938 442.768554688 268.041992188 c 1
 386.111328125 268.041992188 329.455078125 268.041992188 272.797851562 268.041992188 c 1
 272.797851562 178.694335938 272.797851562 89.34765625 272.797851562 0 c 1
 191.865234375 0 110.932617188 0 30 0 c 1
224.23828125 182.763671875 m 2
 224.23828125 316.772460938 l 1
 313.268554688 316.772460938 402.297851562 316.772460938 491.328125 316.772460938 c 1
 491.328125 182.763671875 l 2
 491.328125 50.09765625 492.060546875 48.73046875 564.1796875 48.73046875 c 2
 637.006835938 48.73046875 l 1
 637.006835938 251.782226562 637.006835938 454.833984375 637.006835938 657.885742188 c 1
 565.498046875 657.885742188 l 2
 497.431640625 657.885742188 493.647460938 652.34375 486.591796875 542.163085938 c 2
 479.194335938 426.416015625 l 1
 398.26171875 426.416015625 317.329101562 426.416015625 236.396484375 426.416015625 c 1
 228.999023438 542.163085938 l 2
 221.943359375 652.34375 218.159179688 657.885742188 150.068359375 657.885742188 c 2
 78.5595703125 657.885742188 l 1
 78.5595703125 454.833984375 78.5595703125 251.782226562 78.5595703125 48.73046875 c 1
 151.411132812 48.73046875 l 2
 223.505859375 48.73046875 224.23828125 50.09765625 224.23828125 182.763671875 c 2
EndSplineSet
Validated: 1
EndChar

StartChar: I
Encoding: 73 73 62
Width: 314
VWidth: 25163
Flags: W
HStem: 0 21G<30 72.4863> 0 21G<30 72.4863> 691.719 20G<30 72.4922>
VStem: 30 48.5596<51.2695 660.425> 224.238 60.7178<51.2695 660.425>
LayerCount: 2
Fore
SplineSet
30 0 m 1xb8
 30 237.239257812 30 474.479492188 30 711.71875 c 1
 114.984375 706.802734375 199.969726562 701.887695312 284.956054688 696.97265625 c 1
 284.956054688 469.555664062 284.956054688 242.138671875 284.956054688 14.7216796875 c 1
 199.958007812 9.8271484375 114.97265625 4.919921875 30 0 c 1xb8
224.23828125 51.26953125 m 1
 224.23828125 254.321289062 224.23828125 457.373046875 224.23828125 660.424804688 c 1
 175.678710938 660.424804688 127.119140625 660.424804688 78.5595703125 660.424804688 c 1
 78.5595703125 457.373046875 78.5595703125 254.321289062 78.5595703125 51.26953125 c 1
 127.119140625 51.26953125 175.678710938 51.26953125 224.23828125 51.26953125 c 1
EndSplineSet
Validated: 1
EndChar

StartChar: J
Encoding: 74 74 63
Width: 617
VWidth: 25000
Flags: W
HStem: 625.129 48.7305<393.591 539.294>
VStem: 344.592 48.999<271.67 625.129> 539.025 48.7061<236.341 625.129>
LayerCount: 2
Fore
SplineSet
30.041015625 177.350585938 m 0
 29.3330078125 247.614257812 36.779296875 254.62109375 127.868164062 269.245117188 c 0
 236.315429688 286.627929688 272.08203125 274.8359375 272.08203125 221.662109375 c 0
 272.08203125 166.486328125 313.415039062 180.646484375 329.625976562 241.364257812 c 0
 337.682617188 271.515625 344.420898438 381.159179688 344.591796875 485.041015625 c 2
 344.93359375 673.859375 l 1
 425.866210938 673.859375 506.798828125 673.859375 587.731445312 673.859375 c 1
 587.731445312 391.779296875 l 2
 587.731445312 112.482421875 587.047851562 108.991210938 516.759765625 38.4833984375 c 0
 455.797851562 -22.6982421875 427.55078125 -32.634765625 316.442382812 -32 c 0
 245.32421875 -31.609375 165.24609375 -18.6943359375 138.537109375 -3.3134765625 c 0
 63.537109375 39.8505859375 30.8955078125 94.1962890625 30.041015625 177.350585938 c 0
417.833984375 52.5703125 m 0
 505.456054688 98.029296875 538.854492188 207.16015625 539.025390625 448.46875 c 2
 539.293945312 625.12890625 l 1
 490.7265625 625.12890625 442.158203125 625.12890625 393.590820312 625.12890625 c 1
 393.590820312 398.541992188 l 2
 393.590820312 254.767578125 382.946289062 161.237304688 364.46484375 142.682617188 c 0
 320.250976562 98.322265625 252.721679688 107.6484375 223.64453125 162.189453125 c 0
 197.5703125 211.06640625 116.051757812 228.693359375 92.541015625 190.509765625 c 0
 74.083984375 160.553710938 147.86328125 64.5087890625 208.01953125 40.1435546875 c 0
 285.567382812 8.7392578125 339.555664062 11.98046875 417.833984375 52.5703125 c 0
EndSplineSet
Validated: 33
EndChar

StartChar: greater
Encoding: 62 62 64
Width: 606
VWidth: 22134
Flags: W
VStem: 30 48.5596<99.113 147.866 458.256 507.539> 515.107 61.2061<263.463 343.925>
LayerCount: 2
Fore
SplineSet
30 105.517578125 m 0
 30 210.888671875 31.1474609375 212.329101562 152.607421875 258.642578125 c 2
 275.21484375 305.395507812 l 1
 152.607421875 349.633789062 l 2
 30.5859375 393.676757812 30 394.384765625 30 501.07421875 c 0
 30 571.069335938 40.546875 607.983398438 60.3466796875 607.397460938 c 0
 77.0458984375 606.909179688 199.970703125 559.252929688 333.515625 501.46484375 c 2
 576.313476562 396.435546875 l 1
 576.313476562 334.619140625 576.313476562 272.802734375 576.313476562 210.986328125 c 1
 333.515625 105.932617188 l 2
 199.970703125 48.1689453125 77.0458984375 0.48828125 60.3466796875 0 c 0
 40.5712890625 -0.5615234375 30 36.181640625 30 105.517578125 c 0
515.107421875 303.7109375 m 0
 514.86328125 342.08984375 468.452148438 371.459960938 296.674804688 441.967773438 c 0
 111.689453125 517.895507812 78.5595703125 525.268554688 78.5595703125 490.576171875 c 0
 78.5595703125 463.110351562 126.459960938 431.030273438 224.23828125 392.96875 c 0
 304.365234375 361.791992188 369.94140625 321.630859375 369.94140625 303.7109375 c 0
 369.94140625 285.791015625 304.365234375 245.629882812 224.23828125 214.453125 c 0
 125.874023438 176.171875 78.5595703125 144.384765625 78.5595703125 116.528320312 c 0
 78.5595703125 81.4208984375 110.932617188 88.623046875 296.9921875 165.161132812 c 0
 469.84375 236.23046875 515.375976562 265.13671875 515.107421875 303.7109375 c 0
EndSplineSet
Validated: 33
EndChar

StartChar: zero
Encoding: 48 48 65
Width: 625
VWidth: 23375
Flags: W
LayerCount: 2
Fore
SplineSet
122.657226562 63.6494140625 m 0
 -7.8359375 194.58203125 1.44140625 543.263671875 138.2578125 651.271484375 c 0
 232.520507812 725.661132812 436.573242188 721.071289062 527.61328125 642.506835938 c 0
 593.53125 585.59765625 595.728515625 576.02734375 595.728515625 348 c 0
 595.728515625 119.948242188 593.53125 110.377929688 527.61328125 53.4931640625 c 0
 473.389648438 6.69140625 432.129882812 -5.3203125 325.416015625 -5.3203125 c 0
 210.645507812 -5.3203125 181.495117188 4.591796875 122.657226562 63.6494140625 c 0
425.3671875 67.62890625 m 0
 538.94140625 110.963867188 592.701171875 329.884765625 532.3984375 503.46875 c 0
 480.909179688 651.735351562 262.940429688 695.094726562 157.422851562 578.078125 c 0
 94.1416015625 507.912109375 80.0546875 270.729492188 133.033203125 167.897460938 c 0
 190.918945312 55.568359375 297.73046875 18.9228515625 425.3671875 67.62890625 c 0
248.51171875 145.75390625 m 0
 209.83984375 184.572265625 209.83984375 511.427734375 248.51171875 550.24609375 c 0
 293.116210938 594.997070312 384.668945312 585.036132812 412.76953125 532.350585938 c 0
 426.587890625 506.422851562 437.916015625 423.463867188 437.916015625 348 c 0
 437.916015625 272.536132812 426.587890625 189.577148438 412.76953125 163.649414062 c 0
 384.668945312 110.963867188 293.116210938 101.002929688 248.51171875 145.75390625 c 0
374.439453125 267.140625 m 0
 391.504882812 352.736328125 370.997070312 499.831054688 339.258789062 519.508789062 c 0
 287.330078125 551.7109375 244.092773438 329.030273438 282.69140625 228.151367188 c 0
 307.3984375 163.551757812 358.08203125 185.084960938 374.439453125 267.140625 c 0
EndSplineSet
Validated: 33
EndChar

StartChar: one
Encoding: 49 49 66
Width: 484
VWidth: 25074
Flags: W
HStem: 0 21G<224.238 262.682> 0 21G<224.238 262.682>
VStem: 30 48.5596<424.066 481.408> 224.238 48.5596<57.3028 380.177> 394.209 60.6934<51.3916 581.86>
LayerCount: 2
Fore
SplineSet
224.23828125 198.852539062 m 2xb8
 224.23828125 378.857421875 220.209960938 396.020507812 181.7578125 379.809570312 c 0
 158.369140625 369.946289062 114.66796875 356.54296875 84.6142578125 350 c 0
 35.0048828125 339.208984375 30 347.16796875 30 436.767578125 c 0
 30 513.793945312 40.5712890625 538.793945312 78.2177734375 550.78125 c 0
 104.731445312 559.228515625 159.19921875 599.0234375 199.23828125 639.208984375 c 0
 258.784179688 698.950195312 288.69140625 710.888671875 363.471679688 704.6875 c 2
 454.90234375 697.094726562 l 1
 454.90234375 469.677734375 454.90234375 242.260742188 454.90234375 14.84375 c 1
 378.014648438 9.8955078125 301.125976562 4.9482421875 224.23828125 0 c 1
 224.23828125 198.852539062 l 2xb8
394.208984375 355.95703125 m 2
 394.208984375 638.110351562 390.83984375 660.546875 348.432617188 660.546875 c 0
 323.26171875 660.546875 285.859375 634.814453125 265.327148438 603.369140625 c 0
 244.794921875 571.923828125 194.379882812 532.202148438 153.266601562 515.13671875 c 0
 112.177734375 498.046875 78.5595703125 467.7734375 78.5595703125 447.875976562 c 0
 78.5595703125 422.802734375 91.62109375 417.1875 121.040039062 429.58984375 c 0
 269.770507812 492.333984375 272.797851562 488.940429688 272.797851562 261.352539062 c 0
 272.797851562 53.6376953125 273.45703125 51.3916015625 333.491210938 51.3916015625 c 2
 394.208984375 51.3916015625 l 1
 394.208984375 355.95703125 l 2
EndSplineSet
Validated: 33
EndChar

StartChar: two
Encoding: 50 50 67
Width: 642
VWidth: 24998
Flags: W
HStem: 0 194.946<385.679 612.739> 0 48.7793<118.895 547.748> 146.24 49.0479<387.94 559.161>
VStem: 30 72.8271<26.8921 114.754> 564.18 48.5596<60.4481 137.277>
LayerCount: 2
Fore
SplineSet
249.213867188 356.274414062 m 0x58
 369.404296875 448.2421875 403.510742188 511.71875 332.734375 511.71875 c 0
 312.299804688 511.71875 289.27734375 495.288085938 281.586914062 475.170898438 c 0
 265.7421875 433.740234375 66.9384765625 422.705078125 42.79296875 461.9140625 c 0
 19.2578125 500.146484375 94.599609375 651.782226562 152.631835938 682.958984375 c 0
 185.029296875 700.366210938 269.526367188 707.885742188 364.326171875 701.831054688 c 0
 549.848632812 689.965820312 613.081054688 636.1328125 612.202148438 490.747070312 c 0
 611.591796875 391.9921875 562.055664062 314.35546875 454.12109375 242.944335938 c 2
 382.075195312 195.288085938 l 1x78
 458.962890625 195.173828125 535.8515625 195.060546875 612.739257812 194.946289062 c 1
 612.739257812 129.963867188 612.739257812 64.982421875 612.739257812 0 c 1x98
 321.357421875 0 l 2
 40.1806640625 0 30 1.8310546875 30 51.953125 c 0
 30 133.7890625 117.841796875 255.737304688 249.213867188 356.274414062 c 0x58
564.1796875 97.509765625 m 0
 564.1796875 140.33203125 547.993164062 146.240234375 430.634765625 146.240234375 c 0
 263.618164062 146.240234375 259.150390625 177.197265625 408.125 302.172851562 c 0
 535.249023438 408.7890625 568.330078125 475.87890625 532.612304688 554.58984375 c 0
 478.168945312 674.462890625 190.034179688 678.41796875 126.948242188 560.15625 c 0
 89.375 489.697265625 192.377929688 465.649414062 239.912109375 533.764648438 c 0
 281.342773438 593.115234375 374.970703125 600.903320312 418.232421875 548.583984375 c 0
 467.524414062 488.96484375 426.948242188 404.663085938 300.01953125 303.051757812 c 0
 194.916992188 218.896484375 102.827148438 106.958007812 102.827148438 63.28125 c 0
 102.827148438 55.2978515625 206.635742188 48.779296875 333.515625 48.779296875 c 0
 547.993164062 48.779296875 564.1796875 52.197265625 564.1796875 97.509765625 c 0
EndSplineSet
Validated: 33
EndChar

StartChar: three
Encoding: 51 51 68
Width: 632
VWidth: 25245
Flags: W
LayerCount: 2
Fore
SplineSet
149.1796875 -3.6865234375 m 0
 88.3154296875 20.9228515625 6.0400390625 162.866210938 36.58203125 190.576171875 c 0
 47.7392578125 200.708007812 97.8369140625 215.185546875 147.885742188 222.802734375 c 0
 221.665039062 233.984375 243.662109375 227.661132812 264.072265625 189.428710938 c 0
 299.814453125 122.412109375 365.78125 127.880859375 355.991210938 197.045898438 c 0
 351.010742188 232.275390625 328.720703125 254.663085938 293.61328125 259.66796875 c 0
 249.545898438 265.942382812 238.974609375 283.0078125 238.974609375 347.924804688 c 0
 238.974609375 422.94921875 232.431640625 429.443359375 141.85546875 443.969726562 c 0
 30.771484375 461.791992188 14.3896484375 513.427734375 90.048828125 607.202148438 c 0
 126.767578125 652.709960938 164.780273438 665.234375 290.366210938 673.193359375 c 0
 421.713867188 681.494140625 455.551757812 674.926757812 512.119140625 630.126953125 c 0
 582.333984375 574.560546875 604.94140625 446.118164062 553.598632812 394.604492188 c 0
 536.044921875 376.977539062 539.755859375 359.643554688 565.732421875 338.012695312 c 0
 610.849609375 300.439453125 615 123.120117188 572.055664062 67.0166015625 c 0
 555.795898438 45.751953125 518.61328125 15.6005859375 489.438476562 0 c 0
 427.890625 -32.8857421875 226.865234375 -35.0830078125 149.1796875 -3.6865234375 c 0
506.064453125 294.067382812 m 0
 454.599609375 326.318359375 441.171875 397.241210938 481.772460938 422.436523438 c 0
 517.026367188 444.287109375 511.533203125 545.922851562 473.3984375 577.685546875 c 0
 414.145507812 627.026367188 299.228515625 635.107421875 206.943359375 596.411132812 c 0
 116.391601562 558.447265625 86.6064453125 507.71484375 154.84375 507.71484375 c 0
 175.3515625 507.71484375 218.3203125 524.951171875 250.3515625 545.99609375 c 0
 295.541992188 575.708007812 319.78515625 578.247070312 358.75 557.32421875 c 0
 426.9140625 520.703125 421.958007812 444.287109375 348.227539062 395.825195312 c 0
 271.689453125 345.483398438 270.6640625 312.79296875 345.639648438 312.79296875 c 0
 440.073242188 312.79296875 472.104492188 140.454101562 386.264648438 94.3359375 c 0
 319.150390625 58.30078125 294.052734375 62.5732421875 237.094726562 119.750976562 c 0
 187.241210938 169.750976562 117.563476562 168.432617188 117.563476562 117.456054688 c 0
 117.563476562 73.1689453125 270.004882812 19.23828125 360.385742188 31.54296875 c 0
 411.215820312 38.4765625 467.294921875 68.45703125 499.985351562 106.201171875 c 0
 567.587890625 184.27734375 569.833984375 254.1015625 506.064453125 294.067382812 c 0
331.552734375 481.8359375 m 0
 337.607421875 500.09765625 328.500976562 509.228515625 310.288085938 503.149414062 c 0
 292.758789062 497.290039062 273.642578125 478.100585938 267.807617188 460.498046875 c 0
 261.728515625 442.236328125 270.834960938 433.081054688 289.047851562 439.184570312 c 0
 306.577148438 445.043945312 325.693359375 464.233398438 331.552734375 481.8359375 c 0
EndSplineSet
Validated: 33
EndChar

StartChar: four
Encoding: 52 52 69
Width: 667
VWidth: 24849
Flags: W
HStem: 16.1689 165.585<350.775 394.468 495.859 558.289> 138 43.7539<91.6186 339.261> 288.953 43.9766<274.716 340.767> 674.056 48.7324<408.905 480.546>
VStem: 30.2891 48.2725<198.368 290.458> 175.684 97.123<299.879 345.362> 491.333 72.8408<71.9864 133.812 338.302 668.007> 588.456 48.5605<192.733 263.003>
LayerCount: 2
Fore
SplineSet
187.82421875 138 m 2x7f
 30 138 l 1
 30.2890625 241.555664062 l 2
 30.546875 333.643554688 48.3125 366.026367188 190.686523438 533.950195312 c 0
 345.428710938 716.462890625 354.366210938 722.788085938 457.483398438 722.788085938 c 2
 564.173828125 722.788085938 l 1
 564.173828125 527.859375 l 2
 564.173828125 370.83203125 571.255859375 332.9296875 600.595703125 332.9296875 c 0
 626.899414062 332.9296875 637.016601562 305.85546875 637.016601562 235.46484375 c 0
 637.016601562 165.073242188 626.899414062 138 600.595703125 138 c 0x7f
 577.93359375 138 564.173828125 114.987304688 564.173828125 77.083984375 c 0
 564.173828125 21.1318359375 555.271484375 16.1689453125 454.911132812 16.1689453125 c 0xbf
 354.55078125 16.1689453125 345.647460938 21.1318359375 345.647460938 77.083984375 c 0
 345.6484375 135.8125 339.983398438 138 187.82421875 138 c 2x7f
491.333007812 125.81640625 m 0
 491.333007812 170.48828125 504.283203125 186.732421875 539.89453125 186.732421875 c 0
 568.141601562 186.732421875 588.456054688 202.9765625 588.456054688 225.5625 c 0
 588.456054688 246.918945312 566.603515625 270.127929688 539.89453125 277.13671875 c 0
 496.513671875 288.520507812 491.333007812 310.373046875 491.333007812 481.96875 c 0
 491.333007812 652.384765625 486.282226562 674.055664062 446.56640625 674.055664062 c 0
 389.19140625 674.055664062 78.5615234375 307.09375 78.5615234375 239.315429688 c 0
 78.5615234375 194.102539062 95.302734375 188.22265625 242.456054688 181.75390625 c 0
 391.374023438 175.208007812 407.059570312 169.5390625 414.109375 119.725585938 c 0
 424.864257812 43.736328125 491.333007812 48.98046875 491.333007812 125.81640625 c 0
175.68359375 308.171875 m 0
 175.68359375 322.826171875 218.719726562 380.9921875 271.319335938 437.428710938 c 0
 382.291992188 556.497070312 426.426757812 542.1328125 414.077148438 390.963867188 c 0
 406.374023438 296.668945312 405.998046875 296.357421875 291.017578125 288.953125 c 0
 219.228515625 284.331054688 175.68359375 291.586914062 175.68359375 308.171875 c 0
345.6484375 372.461914062 m 0
 345.6484375 404.83984375 339.056640625 406.504882812 309.227539062 381.662109375 c 0
 289.196289062 364.978515625 272.806640625 347.188476562 272.806640625 342.12890625 c 0
 272.806640625 337.069335938 289.196289062 332.9296875 309.227539062 332.9296875 c 0
 329.259765625 332.9296875 345.6484375 350.71875 345.6484375 372.461914062 c 0
EndSplineSet
Validated: 33
EndChar

StartChar: five
Encoding: 53 53 70
Width: 647
VWidth: 24997
Flags: W
HStem: 511.07 48.7207<457.551 527.772> 657.256 48.7441<180.025 528.22>
VStem: 534.118 48.5615<569.595 646.767>
LayerCount: 2
Fore
SplineSet
32.931640625 206.29296875 m 0
 52.40234375 257.211914062 256.3515625 257.369140625 275.811523438 206.4921875 c 0
 295.395507812 155.27734375 356.12890625 160.884765625 370.287109375 215.21484375 c 0
 389.500976562 288.94921875 345.631835938 345.314453125 291.611328125 316.301757812 c 0
 236.147460938 286.513671875 121.192382812 284.897460938 76.5693359375 313.27734375 c 0
 49.5966796875 330.432617188 49.1220703125 366.306640625 73.8310546875 520.016601562 c 2
 103.728515625 706 l 1
 263.37890625 706 423.029296875 706 582.6796875 706 c 1
 582.6796875 608.53515625 l 2
 582.6796875 520.04296875 576.919921875 511.0703125 520.115234375 511.0703125 c 2
 457.55078125 511.0703125 l 1
 529.374023438 450.421875 l 2
 611.990234375 380.66015625 635.177734375 295.942382812 603.333984375 180.20703125 c 0
 569.86328125 58.55859375 479.348632812 -0.92578125 330.528320312 0.9248046875 c 0
 262.21875 1.7744140625 182.380859375 12.1494140625 153.112304688 23.98046875 c 0
 85.2080078125 51.4169921875 14.64453125 158.467773438 32.931640625 206.29296875 c 0
509.973632812 371.336914062 m 0
 465.432617188 428.161132812 439.7734375 437.959960938 335.512695312 437.959960938 c 0
 234.022460938 437.959960938 215.775390625 444.501953125 228.01171875 476.501953125 c 0
 236.118164062 497.700195312 242.75 525.112304688 242.75 537.416992188 c 0
 242.75 549.72265625 308.307617188 559.791015625 388.43359375 559.791015625 c 0
 517.931640625 559.791015625 534.118164062 565.205078125 534.118164062 608.5234375 c 0
 534.118164062 652.884765625 517.931640625 657.255859375 353.649414062 657.255859375 c 0
 154.270507812 657.255859375 163.686523438 665.415039062 132.680664062 465.775390625 c 2
 116.188476562 359.576171875 l 1
 240.888671875 376.787109375 l 2
 390.901367188 397.4921875 436.995117188 368.624023438 436.995117188 253.969726562 c 0
 436.995117188 169.881835938 385.395507812 96.8330078125 325.998046875 96.8330078125 c 0
 306.919921875 96.8330078125 268.614257812 119.610351562 240.873046875 147.44921875 c 0
 191.026367188 197.470703125 121.346679688 196.1328125 121.346679688 145.154296875 c 0
 121.346679688 101.137695312 273.731445312 46.9296875 362.702148438 59.2958984375 c 0
 408.64453125 65.6826171875 465.741210938 90.4853515625 489.5859375 114.412109375 c 0
 561.362304688 186.44140625 569.9609375 294.806640625 509.973632812 371.336914062 c 0
EndSplineSet
Validated: 33
EndChar

StartChar: six
Encoding: 54 54 71
Width: 646
VWidth: 25229
Flags: W
LayerCount: 2
Fore
SplineSet
160.825195312 21 m 0
 79.0498046875 65.6015625 30 184.365234375 30 337.76953125 c 0
 30 584.940429688 128.442382812 691.080078125 357.6875 691.080078125 c 0
 456.663085938 691.080078125 493.317382812 679.120117188 540.999023438 631.271484375 c 0
 614.938476562 557.071289062 617.040039062 506.149414062 546.922851562 487.748046875 c 2
 493.25 473.663085938 l 1
 545.123046875 417.899414062 l 2
 656.38671875 298.29296875 633.98828125 88.73828125 502.657226562 20.5859375 c 0
 415.40234375 -24.6943359375 244.2265625 -24.486328125 160.825195312 21 c 0
497.404296875 119.806640625 m 0
 565.481445312 197.439453125 566.891601562 275.6953125 501.711914062 358.849609375 c 0
 450.212890625 424.55078125 327.705078125 448.400390625 297.087890625 398.685546875 c 0
 288.564453125 384.845703125 309.149414062 374.319335938 344.737304688 374.319335938 c 0
 464.208984375 374.319335938 491.739257812 165.190429688 380.155273438 105.262695312 c 0
 302.4921875 63.5517578125 212.10546875 133.866210938 212.10546875 235.993164062 c 0
 212.10546875 279.909179688 225.216796875 328.998046875 241.2421875 345.080078125 c 0
 263.904296875 367.821289062 263.904296875 374.319335938 241.2421875 374.319335938 c 0
 193.625 374.319335938 208.03515625 509.266601562 260.765625 557.155273438 c 0
 301.30859375 593.975585938 319.724609375 596.637695312 371.170898438 573.114257812 c 0
 445.46875 539.142578125 503.473632812 536.620117188 503.473632812 567.358398438 c 0
 503.473632812 602.724609375 344.849609375 646.131835938 277.5546875 629.182617188 c 0
 119.623046875 589.405273438 41.2666015625 352.211914062 126.5078125 171.948242188 c 0
 196.668945312 23.5732421875 389.272460938 -3.5029296875 497.404296875 119.806640625 c 0
378.124023438 227.274414062 m 0
 386.252929688 283.073242188 341.518554688 333.430664062 304.317382812 310.357421875 c 0
 280.59375 295.64453125 278.640625 193.83984375 301.640625 170.759765625 c 0
 331.23828125 141.057617188 369.705078125 169.479492188 378.124023438 227.274414062 c 0
346.291992188 515.810546875 m 0
 338.815429688 523.3125 319.223632812 515.826171875 302.752929688 499.173828125 c 0
 278.952148438 475.109375 281.740234375 472.310546875 316.345703125 485.533203125 c 0
 340.291992188 494.68359375 353.767578125 508.30859375 346.291992188 515.810546875 c 0
EndSplineSet
Validated: 33
EndChar

StartChar: seven
Encoding: 55 55 72
Width: 640
VWidth: 24829
Flags: W
HStem: 0 48.7324<234.35 307.176> 487.324 73.0986<106.297 290.755> 688.166 20G<515.007 610.106>
VStem: 561.545 48.5615<557.277 645.794>
LayerCount: 2
Fore
SplineSet
148.7734375 46.1650390625 m 0
 148.7734375 114.532226562 243.470703125 409.844726562 270.836914062 426.81640625 c 0
 324.73828125 460.248046875 287.74609375 487.32421875 188.168945312 487.32421875 c 0
 65.1748046875 487.32421875 20.3818359375 527.0078125 31.6865234375 625.956054688 c 2
 39.509765625 694.436523438 l 1
 229.708007812 699.013671875 419.907226562 703.58984375 610.106445312 708.166015625 c 1
 610.106445312 612.912109375 l 2
 610.106445312 555.874023438 594.734375 504.854492188 571.791992188 485.74609375 c 0
 510.369140625 434.590820312 416.171875 228.358398438 399.935546875 109.497070312 c 2
 384.98046875 0 l 1
 266.876953125 0 l 2
 167.151367188 0 148.7734375 7.1826171875 148.7734375 46.1650390625 c 0
343.895507812 176.655273438 m 0
 380.309570312 331.9375 441.791015625 459.290039062 510.400390625 521.557617188 c 0
 538.532226562 547.087890625 561.544921875 588.206054688 561.544921875 612.931640625 c 0
 561.544921875 653.473632812 538.901367188 657.887695312 330.87890625 657.887695312 c 0
 116.399414062 657.887695312 100.211914062 654.467773438 100.211914062 609.155273438 c 0
 100.211914062 565.890625 116.399414062 560.422851562 244.462890625 560.422851562 c 0
 323.802734375 560.422851562 395.030273438 550.166992188 402.75 537.6328125 c 0
 410.470703125 525.099609375 383.662109375 462.4296875 343.178710938 398.368164062 c 0
 225.84765625 212.70703125 190.475585938 48.732421875 267.755859375 48.732421875 c 0
 303.419921875 48.732421875 320.70703125 77.7763671875 343.895507812 176.655273438 c 0
EndSplineSet
Validated: 33
EndChar

StartChar: eight
Encoding: 56 56 73
Width: 635
VWidth: 25170
Flags: W
HStem: 641.246 60.916<216.246 440.498>
LayerCount: 2
Fore
SplineSet
51.2021484375 306 m 0
 74.419921875 353.1484375 77.56640625 392.202148438 61.7373046875 436.802734375 c 0
 6.15625 593.416015625 117.337890625 702.162109375 333.036132812 702.162109375 c 0
 524.297851562 702.162109375 634.056640625 588.141601562 580.041015625 445.567382812 c 0
 562.224609375 398.5390625 562.032226562 369.645507812 579.43359375 352.194335938 c 0
 621.958984375 309.517578125 608.98828125 128.190429688 558.974609375 66.2109375 c 0
 521.01953125 19.1708984375 485.25390625 8.0693359375 346.518554688 0.2666015625 c 0
 204.876953125 -7.701171875 169.908203125 -1.3662109375 114.795898438 42.2421875 c 0
 33.54296875 106.525390625 7.0625 216.368164062 51.2021484375 306 c 0
431.528320312 71.203125 m 0
 559.256835938 115.88671875 592.701171875 226.782226562 504.997070312 314.796875 c 0
 454.823242188 365.146484375 454.708984375 367.436523438 498.334960938 448.728515625 c 0
 542.241210938 530.546875 542.131835938 532.022460938 488.004882812 586.33984375 c 0
 447.944335938 626.541015625 404.889648438 641.24609375 327.252929688 641.24609375 c 0
 162.9765625 641.24609375 58.265625 515.041992188 155.41015625 434.133789062 c 0
 203.697265625 393.918945312 201.374023438 370.610351562 143.26953125 312.302734375 c 0
 -4.3056640625 164.20703125 202.62890625 -8.8720703125 431.528320312 71.203125 c 0
258.603515625 119.325195312 m 0
 204.739257812 150.809570312 201.704101562 294.3359375 253.985351562 337.876953125 c 0
 280.990234375 360.368164062 310.600585938 362.845703125 357.178710938 346.51171875 c 0
 436.850585938 318.573242188 460.259765625 195.294921875 397.794921875 132.612304688 c 0
 352.62109375 87.2783203125 318.93359375 84.0625 258.603515625 119.325195312 c 0
357.416015625 235.020507812 m 0
 362.459960938 269.413085938 352.336914062 287.936523438 328.498046875 287.936523438 c 0
 280.645507812 287.936523438 260.7109375 253.555664062 279.727539062 203.823242188 c 0
 300.194335938 150.299804688 347.795898438 169.415039062 357.416015625 235.020507812 c 0
232.299804688 426.01171875 m 0
 197.833984375 460.599609375 218.21484375 555.37890625 265.591796875 580.823242188 c 0
 365.6328125 634.552734375 478.198242188 528.346679688 409.391601562 445.147460938 c 0
 379.637695312 409.168945312 261.774414062 396.43359375 232.299804688 426.01171875 c 0
361.796875 508.669921875 m 0
 361.796875 521.280273438 345.407226562 531.598632812 325.375 531.598632812 c 0
 287.828125 531.598632812 277.13671875 502.846679688 304.482421875 475.40625 c 0
 323.881835938 455.939453125 361.796875 477.9453125 361.796875 508.669921875 c 0
EndSplineSet
Validated: 33
EndChar

StartChar: nine
Encoding: 57 57 74
Width: 635
VWidth: 24846
Flags: W
HStem: 0 21G<246.869 365.208> 0 21G<246.869 365.208> 686.619 20G<220.021 366.268>
LayerCount: 2
Fore
SplineSet
47.1767578125 169.456054688 m 0xa0
 47.1767578125 209.368164062 62.896484375 219.3671875 126.088867188 219.655273438 c 2
 205.001953125 220.013671875 l 1
 144.780273438 250.591796875 l 2
 59.90234375 293.688476562 18.9189453125 384.600585938 32.583984375 499.467773438 c 0
 49.607421875 642.5546875 134.135742188 706.619140625 305.907226562 706.619140625 c 0
 426.62890625 706.619140625 449.046875 698.06640625 523.079101562 623.774414062 c 0
 602.670898438 543.903320312 605.633789062 534.192382812 605.633789062 353.309570312 c 0
 605.633789062 172.42578125 602.670898438 162.71484375 523.079101562 82.8447265625 c 0
 448.692382812 8.1953125 426.965820312 0 303.450195312 0 c 0
 190.287109375 0 155.9765625 10.4326171875 106.776367188 59.8076171875 c 0
 73.9970703125 92.7021484375 47.1767578125 142.043945312 47.1767578125 169.456054688 c 0xa0
463.170898438 112.573242188 m 0
 625.366210938 259.874023438 553.073242188 609.2109375 352.584960938 646.955078125 c 0
 154.426757812 684.259765625 11.4990234375 474.395507812 144.299804688 341.126953125 c 0
 195.099609375 290.150390625 324.86328125 274.830078125 350.685546875 316.760742188 c 0
 359.072265625 330.375 340.41796875 341.126953125 308.416015625 341.126953125 c 0
 233.963867188 341.126953125 192.771484375 384.263671875 193.235351562 461.740234375 c 0
 193.697265625 540.962890625 215.916015625 574.036132812 282.672851562 594.934570312 c 0
 382.138671875 626.072265625 471.720703125 484.794921875 412.297851562 390.502929688 c 0
 397.732421875 367.388671875 399.004882812 348.806640625 415.872070312 338.346679688 c 0
 457.052734375 312.805664062 416.334960938 150.56640625 361.321289062 121.0234375 c 0
 324.666992188 101.3359375 296.321289062 105.34765625 241.201171875 138.021484375 c 0
 187.94921875 169.58984375 161.9375 173.641601562 141.862304688 153.49609375 c 0
 121.786132812 133.350585938 132.8515625 116.000976562 184.115234375 87.2392578125 c 0
 266.6796875 40.9169921875 397.329101562 52.7783203125 463.170898438 112.573242188 c 0
357.268554688 214.744140625 m 0
 363.182617188 232.549804688 352.08203125 237.995117188 328.435546875 228.888671875 c 0
 307.286132812 220.745117188 289.984375 203.376953125 289.984375 190.291992188 c 0
 289.984375 158.265625 345.168945312 178.3203125 357.268554688 214.744140625 c 0
358.045898438 470.2421875 m 0
 354.000976562 497.639648438 337.041015625 524.568359375 320.354492188 530.083007812 c 0
 283.904296875 542.12890625 255.022460938 477.321289062 274.333007812 426.819335938 c 0
 294.767578125 373.380859375 366.828125 410.758789062 358.045898438 470.2421875 c 0
EndSplineSet
Validated: 33
EndChar

StartChar: less
Encoding: 60 60 75
Width: 605
VWidth: 25232
Flags: W
LayerCount: 2
Fore
SplineSet
260.666992188 109.694335938 m 2
 30 212 l 1
 30 275.55078125 30 339.102539062 30 402.653320312 c 1
 271.909179688 508.498046875 l 2
 404.958007812 566.711914062 527.87890625 608.926757812 545.067382812 602.307617188 c 0
 585.154296875 586.870117188 585.846679688 431.736328125 545.96484375 399.97265625 c 0
 529.271484375 386.677734375 472.384765625 361.807617188 419.549804688 344.708007812 c 2
 323.485351562 313.616210938 l 1
 451.408203125 256.961914062 l 2
 576.19921875 201.693359375 579.14453125 198.057617188 571.752929688 108.424804688 c 0
 566.85546875 49.0654296875 551.282226562 14.9228515625 527.75390625 11.9658203125 c 0
 507.72265625 9.4482421875 387.533203125 53.4267578125 260.666992188 109.694335938 c 2
503.473632812 122.815429688 m 0
 503.473632812 156.426757812 464.794921875 183.092773438 357.790039062 223.250976562 c 0
 277.663085938 253.321289062 212.10546875 291.698242188 212.10546875 308.532226562 c 0
 212.10546875 325.366210938 277.663085938 363.743164062 357.790039062 393.814453125 c 0
 439.015625 424.296875 503.473632812 463.345703125 503.473632812 482.06640625 c 0
 503.473632812 529.76953125 482.602539062 525.494140625 269.083007812 434.05859375 c 0
 14.0498046875 324.844726562 15.9873046875 293.022460938 284.947265625 173.30859375 c 0
 398.459960938 122.784179688 494.065429688 80.4580078125 497.404296875 79.25 c 0
 500.7421875 78.0400390625 503.473632812 97.646484375 503.473632812 122.815429688 c 0
EndSplineSet
Validated: 33
EndChar

StartChar: parenleft
Encoding: 40 40 76
Width: 363
VWidth: 24507
Flags: W
VStem: 29.9434 303.057
LayerCount: 2
Fore
SplineSet
157.586914062 -118 m 4
 61.208984375 -7.6923828125 30.3994140625 93.8857421875 29.943359375 302.826171875 c 4
 29.5556640625 478.05078125 39.162109375 529.37890625 91.470703125 631.76953125 c 4
 147.046875 740.5546875 162.7265625 753.873046875 243.224609375 760.653320312 c 4
 292.6015625 764.813476562 333 761.033203125 333 752.252929688 c 4
 333 743.473632812 309.690429688 659.272460938 281.197265625 565.139648438 c 4
 222.873046875 372.436523438 228.549804688 157.373046875 296.258789062 -5.24609375 c 4
 317.305664062 -55.79296875 329.059570312 -111.434570312 322.384765625 -128.895507812 c 4
 304.846679688 -174.75390625 201.1875 -167.901367188 157.586914062 -118 c 4
220.23828125 612.985351562 m 4
 274.677734375 762.26171875 226.810546875 740.418945312 148.78515625 580.381835938 c 4
 59.6484375 397.549804688 59.6259765625 215.034179688 148.78515625 38.595703125 c 4
 225.674804688 -113.672851562 269.000976562 -127.91796875 217.467773438 16.013671875 c 4
 169.041992188 151.083007812 170.588867188 476.850585938 220.23828125 612.985351562 c 4
EndSplineSet
Validated: 33
EndChar

StartChar: parenright
Encoding: 41 41 77
Width: 366
VWidth: 25274
Flags: W
HStem: -164 73.0986<106.804 139.889>
VStem: 102.347 72.8428<101.203 496.713>
LayerCount: 2
Fore
SplineSet
29.5048828125 -118.331054688 m 4
 29.5048828125 -93.212890625 45.89453125 -26.0458984375 65.92578125 30.9296875 c 4
 85.95703125 87.9052734375 102.346679688 208.517578125 102.346679688 298.958007812 c 4
 102.346679688 389.3984375 85.95703125 510.010742188 65.92578125 566.986328125 c 4
 10.150390625 725.630859375 16.8642578125 761.916015625 102.004882812 761.916015625 c 4
 192.0859375 761.916015625 281.057617188 638.373046875 321.3515625 457.337890625 c 4
 381.130859375 188.774414062 248.91015625 -164 88.47265625 -164 c 4
 47.0107421875 -164 29.5048828125 -150.442382812 29.5048828125 -118.331054688 c 4
208.295898438 52.2509765625 m 4
 290.177734375 235.350585938 291.879882812 389.779296875 213.87109375 557.909179688 c 4
 181.987304688 626.624023438 143.849609375 690.318359375 129.124023438 699.452148438 c 4
 94.162109375 721.13671875 95.5771484375 700.768554688 139.033203125 557.022460938 c 4
 158.918945312 491.235351562 175.189453125 375.106445312 175.189453125 298.958007812 c 4
 175.189453125 222.809570312 158.918945312 106.680664062 139.033203125 40.8935546875 c 4
 96.080078125 -101.190429688 97.30859375 -90.9013671875 123.313476562 -90.9013671875 c 4
 134.84375 -90.9013671875 173.0859375 -26.482421875 208.295898438 52.2509765625 c 4
EndSplineSet
Validated: 33
EndChar

StartChar: comma
Encoding: 44 44 78
Width: 300
VWidth: 25040
Flags: W
HStem: -28.1074 49.5078<68.6152 136.715>
VStem: 221.697 48.5654<-33.8718 137.984>
LayerCount: 2
Fore
SplineSet
67.740234375 -62.8671875 m 4
 110.416015625 -30.4169921875 110.455078125 -28.8466796875 68.615234375 -28.107421875 c 4
 31.5703125 -27.451171875 25.9404296875 -9.435546875 32.1943359375 88.4072265625 c 6
 39.595703125 204.146484375 l 5
 116.484375 209.09765625 193.374023438 214.048828125 270.262695312 219 c 5
 270.262695312 63.5322265625 l 6
 270.262695312 -67.4716796875 261.421875 -100.272460938 214.067382812 -144.916015625 c 4
 142.307617188 -212.567382812 60.015625 -213.72265625 39.029296875 -147.374023438 c 4
 28.1875 -113.09765625 37.423828125 -85.923828125 67.740234375 -62.8671875 c 4
221.697265625 60.6494140625 m 4
 221.697265625 132.493164062 213.806640625 143.231445312 160.99609375 143.231445312 c 4
 112.434570312 143.231445312 100.293945312 131.048828125 100.293945312 82.31640625 c 4
 100.293945312 44.4130859375 114.053710938 21.400390625 136.71484375 21.400390625 c 4
 174.782226562 21.400390625 186.323242188 -49.1845703125 154.92578125 -89.9814453125 c 4
 144.91015625 -102.99609375 155.823242188 -93.009765625 179.206054688 -67.7890625 c 4
 202.576171875 -42.568359375 221.697265625 15.228515625 221.697265625 60.6494140625 c 4
EndSplineSet
Validated: 33
EndChar

StartChar: dollar
Encoding: 36 36 79
Width: 670
VWidth: 24899
Flags: W
HStem: 147.385 159.619<311.569 441.278> 495 106.779<385.968 429.042>
VStem: 54.2676 267.09<314.89 520.627> 276.715 121.387<-80.821 -38.6182 738.282 782.449>
LayerCount: 2
Fore
SplineSet
272.797851562 -27.615234375 m 2xd0
 272.797851562 -27.615234375 256.611328125 21.115234375 222.358398438 21.115234375 c 0
 157.685546875 21.115234375 30 148.532226562 30 213.083007812 c 0
 30 250.338867188 50.947265625 266.525390625 114.790039062 278.537109375 c 0
 161.420898438 287.326171875 216.62109375 287.936523438 237.446289062 279.928710938 c 0
 259.19921875 271.5546875 269.013671875 275.583007812 260.493164062 289.42578125 c 0
 252.314453125 302.682617188 229.4140625 313.522460938 209.565429688 313.522460938 c 0
 140.083007812 313.522460938 54.267578125 427.975585938 54.267578125 520.626953125 c 0xe0
 54.267578125 620.48046875 141.71875 727.731445312 223.139648438 727.731445312 c 0
 250.458984375 727.731445312 272.797851562 738.693359375 272.797851562 752.096679688 c 5
 253.967773438 789 292.569335938 786 325.967773438 786 c 0
 359.341796875 786 397.967773438 782.71875 397.967773438 771 c 4
 397.967773438 759.256835938 430.404296875 716.3515625 469.854492188 708.427734375 c 0
 549.46875 692.436523438 629.717773438 591.166992188 607.916015625 534.16015625 c 0
 598.541015625 509.6484375 559.33203125 497.026367188 489.922851562 496.220703125 c 2
 385.967773438 495 l 1
 485.772460938 446.391601562 l 2
 582.623046875 399.19921875 641.021484375 319.340820312 640.826171875 234.35546875 c 0
 640.655273438 153.59375 546.270507812 33.7451171875 470.928710938 18.6328125 c 0
 421.099609375 8.623046875 398.1015625 -10.3955078125 398.1015625 -41.669921875 c 0
 398.1015625 -74.1650390625 380.572265625 -87.3486328125 337.408203125 -87.3486328125 c 0
 292.901367188 -87.3486328125 276.71484375 -74.3603515625 276.71484375 -38.6181640625 c 2
 272.797851562 -27.615234375 l 2xd0
530.561523438 161.49609375 m 0
 619.404296875 278.903320312 531.611328125 381.076171875 266.71875 468.52734375 c 0
 241.303710938 476.901367188 224.23828125 507.028320312 224.23828125 543.478515625 c 0
 224.23828125 598.141601562 233.637695312 604.147460938 315.278320312 601.779296875 c 0
 365.375976562 600.314453125 419.526367188 588.7421875 435.639648438 576.046875 c 0
 466.206054688 551.950195312 515.595703125 569.674804688 515.595703125 604.733398438 c 0
 515.595703125 615.915039062 475.043945312 641.305664062 425.458984375 661.154296875 c 0
 351.533203125 690.744140625 319.84375 691.891601562 249.409179688 667.575195312 c 0
 83.02734375 610.12890625 73.9697265625 457.809570312 232.24609375 378.512695312 c 0
 281.245117188 353.952148438 321.357421875 325.314453125 321.357421875 314.889648438 c 0
 321.357421875 304.440429688 347.3828125 300.900390625 379.21875 307.00390625 c 0
 448.579101562 320.309570312 476.850585938 282.931640625 457.099609375 204.000976562 c 0
 444.721679688 154.46484375 428.168945312 146.212890625 343.696289062 147.384765625 c 0
 282.978515625 148.21484375 239.814453125 161.740234375 231.904296875 182.39453125 c 0
 215.620117188 224.997070312 95.087890625 228.122070312 108.125 185.592773438 c 0
 113.251953125 168.844726562 166.059570312 131.466796875 225.483398438 102.536132812 c 0
 324.213867188 54.46484375 340.595703125 52.90234375 415.986328125 84.5185546875 c 0
 461.372070312 103.537109375 512.91015625 138.180664062 530.561523438 161.49609375 c 0
EndSplineSet
Validated: 33
EndChar

StartChar: percent
Encoding: 37 37 80
Width: 916
VWidth: 25084
Flags: W
HStem: 29.5312 50.293<699.544 747.092> 370.669 414.233<576.521 719.526> 395.034 46.9883<167.09 288.401> 478.57 65.9688<203.524 243.35> 710.089 74.8135<126.037 158.586>
VStem: 30 50.9287<525.27 652.359> 165.914 33.1064<547.346 639.313> 247.604 39.6963<547.346 640.367> 831.27 55.1758<163.942 285.425>
LayerCount: 2
Fore
SplineSet
247.604492188 593.26953125 m 0x9780
 247.604492188 620.076171875 236.666992188 642 223.3125 642 c 0
 209.958007812 642 199.020507812 620.076171875 199.020507812 593.26953125 c 0
 199.020507812 566.462890625 209.958007812 544.5390625 223.3125 544.5390625 c 0
 236.666992188 544.5390625 247.604492188 566.462890625 247.604492188 593.26953125 c 0x9780
200.3125 60 m 0
 200.5078125 76.748046875 243.989257812 170.205078125 296.943359375 267.690429688 c 0
 371.259765625 404.53125 382.612304688 439.248046875 346.748046875 419.985351562 c 0
 321.186523438 406.264648438 261.323242188 395.034179688 213.715820312 395.034179688 c 0
 95.4052734375 395.034179688 30 464.418945312 30 589.956054688 c 0
 30 719.912109375 94.74609375 784.90234375 224.262695312 784.90234375 c 0xaf80
 350.556640625 784.90234375 418.0859375 719.619140625 419.672851562 596.059570312 c 2
 420.844726562 504.677734375 l 1
 492.890625 644.790039062 l 2
 556.220703125 767.885742188 573.75 784.90234375 637.421875 784.90234375 c 0xc780
 677.265625 784.90234375 709.858398438 773.647460938 709.858398438 759.926757812 c 0
 709.858398438 746.181640625 672.456054688 660.366210938 626.704101562 569.228515625 c 2
 543.549804688 403.505859375 l 1
 669.233398438 413.979492188 l 2
 827.65625 427.163085938 886.4453125 374.819335938 886.4453125 220.571289062 c 0
 886.4453125 92.5927734375 819.2578125 29.53125 682.905273438 29.53125 c 0
 559.443359375 29.53125 491.743164062 95.888671875 490.180664062 218.374023438 c 2
 489.008789062 309.755859375 l 1
 416.938476562 169.643554688 l 2
 353.6328125 46.5478515625 336.079101562 29.53125 272.431640625 29.53125 c 0
 230.463867188 29.53125 200.1171875 42.373046875 200.3125 60 c 0
782.709960938 127.016601562 m 0
 809.418945312 153.798828125 831.26953125 197.670898438 831.26953125 224.477539062 c 0
 831.26953125 285.219726562 748.823242188 370.668945312 690.229492188 370.668945312 c 0xc780
 579.291992188 370.668945312 513.349609375 238.491210938 581.831054688 153.45703125 c 0
 624.458007812 100.502929688 624.897460938 101.137695312 624.897460938 217.055664062 c 0
 624.897460938 325.673828125 629.267578125 334.12109375 685.590820312 334.12109375 c 0
 739.66796875 334.12109375 747.114257812 322.79296875 753.779296875 230.288085938 c 0
 760.200195312 141.030273438 753.388671875 123.330078125 705.1953125 103.920898438 c 0
 663.203125 87.0263671875 659.809570312 80.9716796875 691.669921875 79.82421875 c 0
 715.034179688 78.9697265625 756.000976562 100.209960938 782.709960938 127.016601562 c 0
709.858398438 229.3359375 m 0
 709.858398438 268.715820312 702.680664062 275.747070312 682.856445312 255.825195312 c 0
 667.98828125 240.908203125 663.178710938 216.787109375 672.138671875 202.236328125 c 0
 697.260742188 161.440429688 709.858398438 170.522460938 709.858398438 229.3359375 c 0
323.7265625 490.752929688 m 4
 377.950195312 545.171875 384.444335938 592.974609375 347.1640625 662.920898438 c 4
 306.34375 739.458984375 287.30078125 717.657226562 287.30078125 594.366210938 c 0
 287.30078125 487.090820312 282.833007812 478.5703125 226.607421875 478.5703125 c 0
 170.381835938 478.5703125 165.9140625 487.090820312 165.9140625 594.366210938 c 0
 165.9140625 658.038085938 158.1015625 710.11328125 148.555664062 710.088867188 c 0
 124.727539062 710.040039062 80.9287109375 624.249023438 80.9287109375 577.642578125 c 0
 80.9287109375 523.833984375 168.794921875 442.022460938 226.607421875 442.022460938 c 0xbf80
 253.31640625 442.022460938 297.017578125 463.946289062 323.7265625 490.752929688 c 4
EndSplineSet
Validated: 33
EndChar

StartChar: exclam
Encoding: 33 33 81
Width: 297
VWidth: 24614
Flags: W
HStem: 38 48<105.452 215.714> 696 48<106.89 226>
VStem: 30 237<397 744> 37 62<361.593 690.277> 48 51<92.0117 175.071> 221 41<93.107 176.893>
LayerCount: 2
Fore
SplineSet
48 44 m 0xcc
 46 47 42 206 37 397 c 2xd0
 30 744 l 1
 148 744 l 1
 267 744 l 1xe0
 265 391 l 1
 262 38 l 1
 156 38 l 2
 98 38 49 40 48 44 c 0xcc
221 135 m 0xcc
 221 171 204 184 160 184 c 0
 115 184 99 171 99 135 c 0
 99 99 115 86 160 86 c 0
 204 86 221 99 221 135 c 0xcc
180 324 m 0
 186 334 199 422 208 519 c 2
 226 696 l 1
 162 696 l 2
 103 696 99 689 99 577 c 0xd0
 99 415 124 304 156 304 c 0
 164 304 172 310 180 324 c 0
EndSplineSet
Validated: 1
EndChar

StartChar: numbersign
Encoding: 35 35 82
Width: 668
VWidth: 25063
Flags: W
HStem: 304.407 48.7305<82.6158 126.803> 401.868 48.7305<82.7321 126.867> 523.694 21G<336.702 397.529>
VStem: 30 48.5596<235.997 298.796 457.576 515.768> 248.53 146.021<310.411 444.126>
LayerCount: 2
Fore
SplineSet
64.814453125 97.302734375 m 1
 74.775390625 150.57421875 71.2353515625 182.581054688 55.390625 182.581054688 c 0
 41.42578125 182.581054688 30 220.959960938 30 267.859375 c 0
 30 336.90234375 39.2529296875 353.137695312 78.5595703125 353.137695312 c 0
 105.268554688 353.137695312 127.119140625 364.099609375 127.119140625 377.502929688 c 0
 127.119140625 390.90625 105.268554688 401.868164062 78.5595703125 401.868164062 c 0
 39.423828125 401.868164062 30 418.103515625 30 485.53515625 c 0
 30 558.362304688 38.5205078125 570.203125 95.8203125 576.916992188 c 0
 142.939453125 582.434570312 165.620117188 601.916992188 175.678710938 645.520507812 c 0
 187.2265625 695.520507812 206.440429688 707.825195312 282.83203125 714.197265625 c 0
 374.384765625 721.790039062 375.751953125 720.666992188 364.887695312 646.423828125 c 0
 353.071289062 565.61328125 383.662109375 576.013671875 398.139648438 657.703125 c 0
 404.70703125 694.8125 429.169921875 708.2890625 500.60546875 714.197265625 c 0
 592.573242188 721.765625 594.233398438 720.447265625 583.662109375 648.108398438 c 0
 576.77734375 601.0625 584.4921875 569.8125 604.951171875 561.951171875 c 0
 657.270507812 541.809570312 644.55078125 423.645507812 588.471679688 408.923828125 c 0
 525.556640625 392.419921875 526.411132812 362.366210938 590.25390625 345.618164062 c 0
 628.901367188 335.461914062 638.764648438 316.418945312 632.734375 263.586914062 c 0
 626.533203125 209.241210938 610.981445312 193.15234375 558.930664062 187.122070312 c 0
 505.219726562 180.920898438 490.05859375 163.953125 477.314453125 95.740234375 c 0
 462.6171875 17.2001953125 455.732421875 12 366.1328125 12 c 2
 270.600585938 12 l 1
 285.6640625 103.381835938 l 2
 296.870117188 171.375 294.135742188 185.413085938 274.995117188 158.215820312 c 0
 260.859375 138.098632812 249.116210938 96.9853515625 248.896484375 66.833984375 c 0
 248.579101562 18.93359375 235.932617188 12 148.701171875 12 c 2
 48.8720703125 12 l 1
 64.814453125 97.302734375 l 1
200.068359375 148.03515625 m 0
 210.395507812 207.947265625 225.190429688 220.349609375 294.16015625 226.990234375 c 2
 375.99609375 234.8515625 l 1
 359.248046875 145.227539062 l 2
 346.430664062 76.6728515625 349.995117188 58.1181640625 374.43359375 66.296875 c 0
 391.987304688 72.15625 411.860351562 108.923828125 418.598632812 148.03515625 c 0
 428.193359375 203.674804688 445.356445312 220.7890625 497.529296875 226.84375 c 0
 574.04296875 235.681640625 590.083007812 304.407226562 515.620117188 304.407226562 c 0
 479.536132812 304.407226562 467.060546875 320.642578125 467.060546875 367.590820312 c 0
 467.060546875 410.315429688 482.807617188 434.924804688 515.620117188 443.54296875 c 0
 564.594726562 456.384765625 584.98046875 523.694335938 539.887695312 523.694335938 c 0
 526.533203125 523.694335938 515.620117188 556.604492188 515.620117188 596.790039062 c 0
 515.620117188 691.296875 475.60546875 691.296875 454.926757812 596.790039062 c 0
 441.596679688 535.92578125 427.045898438 523.694335938 368.012695312 523.694335938 c 0
 305.390625 523.694335938 297.08984375 532.263671875 297.08984375 596.790039062 c 0
 297.08984375 691.296875 257.075195312 691.296875 236.396484375 596.790039062 c 0
 223.06640625 535.92578125 208.515625 523.694335938 149.482421875 523.694335938 c 0
 102.631835938 523.694335938 78.5595703125 511.291992188 78.5595703125 487.146484375 c 0
 78.5595703125 464.416992188 101.484375 450.598632812 139.27734375 450.598632812 c 0
 204.12109375 450.598632812 207.34375 444.153320312 184.663085938 359.216796875 c 0
 176.044921875 326.990234375 151.19140625 304.407226562 124.287109375 304.407226562 c 0
 99.140625 304.407226562 78.5595703125 287.952148438 78.5595703125 267.859375 c 0
 78.5595703125 247.7421875 96.162109375 231.311523438 117.6953125 231.311523438 c 0
 149.458007812 231.311523438 153.73046875 214.807617188 140.400390625 143.469726562 c 0
 127.875976562 76.501953125 131.5625 58.1669921875 155.903320312 66.296875 c 0
 173.45703125 72.15625 193.330078125 108.923828125 200.068359375 148.03515625 c 0
248.530273438 377.502929688 m 0
 248.530273438 445.251953125 254.951171875 450.598632812 336.34765625 450.598632812 c 0
 415.571289062 450.598632812 422.724609375 445.227539062 409.516601562 395.7890625 c 0
 401.459960938 365.61328125 394.721679688 332.727539062 394.55078125 322.668945312 c 0
 394.35546875 312.634765625 361.4453125 304.407226562 321.381835938 304.407226562 c 0
 256.611328125 304.407226562 248.530273438 312.537109375 248.530273438 377.502929688 c 0
EndSplineSet
Validated: 33
EndChar

StartChar: ampersand
Encoding: 38 38 83
Width: 787
VWidth: 24988
Flags: W
HStem: 159.338 48.7305<294.36 359.917>
VStem: 279.91 68.6279<530.314 587.141>
LayerCount: 2
Fore
SplineSet
96.8779296875 88 m 0
 11.7705078125 155.1875 7.05859375 306.286132812 87.52734375 386.706054688 c 0
 131.399414062 430.553710938 140.725585938 463.512695312 134.866210938 553.91796875 c 0
 128.73828125 648.131835938 136.575195312 672.86328125 182.7421875 705.333984375 c 0
 254.739257812 755.919921875 465.896484375 756.432617188 537.380859375 706.188476562 c 0
 607.9375 656.603515625 610.842773438 520.006835938 542.80078125 451.745117188 c 0
 494.241210938 402.990234375 494.241210938 402.990234375 565.090820312 402.990234375 c 0
 672.952148438 402.990234375 712.771484375 379.2109375 712.771484375 314.782226562 c 0
 712.771484375 282.53125 726.345703125 234.313476562 742.922851562 207.653320312 c 0
 798.098632812 119.030273438 679.397460938 1.037109375 590.872070312 56.505859375 c 0
 555.813476562 78.5029296875 528.34765625 80.1875 495.266601562 62.4384765625 c 0
 469.75390625 48.7177734375 384.060546875 37.51171875 304.861328125 37.51171875 c 0
 195.92578125 37.51171875 145.266601562 49.81640625 96.8779296875 88 c 0
458.694335938 124.352539062 m 0
 548.708984375 155.016601562 577.639648438 156.505859375 607.05859375 131.994140625 c 0
 636.575195312 107.43359375 647.732421875 108.239257812 664.944335938 136.193359375 c 0
 679.177734375 159.2890625 673.831054688 177.819335938 648.904296875 191.80859375 c 0
 623.220703125 206.237304688 616.360351562 231.994140625 626.931640625 274.279296875 c 0
 640.969726562 330.3828125 636.892578125 334.435546875 580.715820312 320.275390625 c 0
 511.453125 302.819335938 421.389648438 347.887695312 421.389648438 399.987304688 c 0
 421.389648438 418.6640625 448.708984375 459.362304688 482.083007812 490.416992188 c 0
 552.859375 556.237304688 556.716796875 580.48046875 504.666015625 632.702148438 c 0
 448.171875 689.416015625 356.86328125 704.772460938 276.052734375 671.178710938 c 0
 189.553710938 635.216796875 167.092773438 576.76953125 206.448242188 490.099609375 c 0
 233.279296875 430.993164062 229.153320312 419.274414062 158.645507812 354.650390625 c 0
 116.189453125 315.758789062 81.47265625 273.229492188 81.47265625 260.16796875 c 0
 81.47265625 200.280273438 119.094726562 151.256835938 188.284179688 121.032226562 c 0
 286.55078125 78.1123046875 324.34375 78.576171875 458.694335938 124.352539062 c 0
212.33203125 194.127929688 m 0
 190.237304688 251.8671875 212.405273438 335.4609375 257.278320312 363.708007812 c 0
 291.702148438 385.36328125 313.772460938 376.037109375 376.052734375 313.561523438 c 0
 476.077148438 213.170898438 457.986328125 159.337890625 324.270507812 159.337890625 c 0
 261.208984375 159.337890625 220.828125 171.88671875 212.33203125 194.127929688 c 0
336.282226562 256.9453125 m 0
 287.966796875 310.534179688 261.477539062 304.796875 284.084960938 245.666015625 c 0
 291.995117188 224.987304688 316.897460938 208.068359375 339.407226562 208.068359375 c 0
 376.78515625 208.068359375 376.4921875 212.340820312 336.282226562 256.9453125 c 0
301.1015625 486.950195312 m 0
 285.0859375 506.310546875 275.540039062 547.423828125 279.91015625 578.307617188 c 0
 286.184570312 622.716796875 303.127929688 634.484375 360.696289062 634.484375 c 0
 419.4609375 634.484375 435.159179688 622.985351562 441.897460938 574.938476562 c 0
 447.048828125 538.317382812 433.572265625 503.112304688 406.912109375 483.556640625 c 0
 351.809570312 443.126953125 336.94140625 443.590820312 301.1015625 486.950195312 c 0
383.938476562 547.521484375 m 0
 391.62890625 559.997070312 386.794921875 577.086914062 373.220703125 585.509765625 c 0
 359.646484375 593.908203125 348.538085938 583.703125 348.538085938 562.829101562 c 0
 348.538085938 520.03125 363.11328125 513.708007812 383.938476562 547.521484375 c 0
EndSplineSet
Validated: 33
EndChar

StartChar: period
Encoding: 46 46 84
Width: 305
VWidth: 24628
Flags: W
HStem: 16 49<110.81 221.19>
VStem: 227 48<70.8097 180.942>
LayerCount: 2
Fore
SplineSet
37 132 m 5
 45 248 l 5
 160 255 l 5
 275 262 l 5
 275 139 l 5
 275 16 l 5
 153 16 l 5
 30 16 l 5
 37 132 l 5
227 126 m 4
 227 174 215 187 166 187 c 4
 117 187 105 174 105 126 c 4
 105 77 117 65 166 65 c 4
 215 65 227 77 227 126 c 4
EndSplineSet
Validated: 1
EndChar

StartChar: slash
Encoding: 47 47 85
Width: 346
VWidth: 25232
Flags: W
HStem: 0 21G<59.7759 137.303> 0 21G<59.7759 137.303>
LayerCount: 2
Fore
SplineSet
38.2548828125 95.9716796875 m 0x80
 47.1416015625 148.754882812 83.6162109375 304.98046875 119.309570312 443.188476562 c 0
 180.588867188 680.46875 187.913085938 694.873046875 250.974609375 702.1484375 c 0
 334.543945312 711.791992188 336.448242188 677.075195312 268.11328125 389.868164062 c 0
 171.702148438 -15.33203125 178.46484375 0 96.140625 0 c 0
 23.4111328125 0 22.3857421875 1.6845703125 38.2548828125 95.9716796875 c 0x80
115.793945312 102.026367188 m 2
 108.0546875 121.459960938 102.29296875 115.698242188 101.12109375 87.3046875 c 0
 100.071289062 61.62109375 105.80859375 47.2412109375 113.889648438 55.322265625 c 0
 121.946289062 63.427734375 122.80078125 84.4482421875 115.793945312 102.026367188 c 2
140.0859375 199.487304688 m 0
 132.322265625 218.9453125 126.584960938 213.159179688 125.413085938 184.765625 c 0
 124.36328125 159.08203125 130.100585938 144.702148438 138.157226562 152.807617188 c 0
 146.23828125 160.888671875 147.092773438 181.909179688 140.0859375 199.487304688 c 0
164.353515625 296.97265625 m 0
 156.614257812 316.40625 150.852539062 310.620117188 149.680664062 282.250976562 c 0
 148.655273438 256.567382812 154.368164062 242.163085938 162.44921875 250.268554688 c 0
 170.505859375 258.349609375 171.360351562 279.370117188 164.353515625 296.97265625 c 0
188.645507812 394.43359375 m 0
 180.881835938 413.8671875 175.14453125 408.081054688 173.97265625 379.711914062 c 0
 172.922851562 354.028320312 178.66015625 339.624023438 186.716796875 347.729492188 c 0
 194.797851562 355.810546875 195.65234375 376.831054688 188.645507812 394.43359375 c 0
212.913085938 491.89453125 m 0
 205.173828125 511.328125 199.412109375 505.56640625 198.240234375 477.172851562 c 0
 197.21484375 451.489257812 202.927734375 437.084960938 211.008789062 445.190429688 c 0
 219.065429688 453.295898438 219.944335938 474.291992188 212.913085938 491.89453125 c 0
237.205078125 589.35546875 m 0
 229.44140625 608.7890625 223.704101562 603.02734375 222.532226562 574.633789062 c 0
 221.482421875 548.950195312 227.219726562 534.5703125 235.276367188 542.651367188 c 0
 243.357421875 550.756835938 244.211914062 571.77734375 237.205078125 589.35546875 c 0
EndSplineSet
Validated: 33
EndChar

StartChar: plus
Encoding: 43 43 86
Width: 594
VWidth: 24602
Flags: W
HStem: 98 47<283.83 333.282> 269 48<401.193 509.43> 415 49<401.193 509.43> 587 47<283.83 333.282>
VStem: 30 73<327.149 404.884> 346 48<152.57 261.807 470.193 579.43> 516 48<324.861 407.178>
LayerCount: 2
Fore
SplineSet
200 183 m 0
 200 265 196 269 115 269 c 0
 32 269 30 271 30 366 c 0
 30 461 32 464 115 464 c 0
 196 464 200 468 200 549 c 0
 200 632 202 634 297 634 c 0
 392 634 394 632 394 549 c 0
 394 468 398 464 479 464 c 0
 562 464 564 461 564 366 c 0
 564 271 562 269 479 269 c 0
 398 269 394 265 394 183 c 0
 394 100 392 98 297 98 c 0
 202 98 200 100 200 183 c 0
346 232 m 0
 346 313 350 317 431 317 c 0
 499 317 516 327 516 366 c 0
 516 405 499 415 431 415 c 0
 350 415 346 419 346 500 c 0
 346 558 328 587 310 587 c 0
 292 587 273 561 268 506 c 0
 262 437 251 426 182 419 c 0
 123 414 103 400 103 366 c 0
 103 332 123 318 182 313 c 0
 251 306 262 296 268 226 c 0
 273 171 292 145 310 145 c 0
 328 145 346 174 346 232 c 0
EndSplineSet
Validated: 1
EndChar

StartChar: hyphen
Encoding: 45 45 87
Width: 379
VWidth: 25059
Flags: W
HStem: 307 197<30 182> 307 182<201 334> 307 48<83.3775 267.621> 450 47<103.775 270.568>
VStem: 30 52<360.701 428.335>
LayerCount: 2
Fore
SplineSet
30 405 m 1x88
 30 504 l 1x88
 182 497 l 1x18
 334 489 l 1x48
 341 398 l 1
 349 307 l 1
 189 307 l 1x28
 30 307 l 1
 30 405 l 1x88
273 406 m 0
 273 439 265 450 225 450 c 0
 214 450 199 450 182 448 c 0
 118 443 89 428 83 398 c 0
 82 393 82 389 82 386 c 0
 82 361 104 355 174 355 c 0x38
 258 355 273 363 273 406 c 0
EndSplineSet
Validated: 1
EndChar

StartChar: asterisk
Encoding: 42 42 88
Width: 443
VWidth: 24779
Flags: W
HStem: 427 118<203.519 266.145>
VStem: 79.2676 306.314<457.814 538.401>
LayerCount: 2
Fore
SplineSet
85.267578125 461 m 0
 81.267578125 471 79.267578125 484 79.267578125 497 c 0
 79.267578125 510 81.267578125 523 85.267578125 533 c 0
 87.6015625 538.705078125 88.724609375 543.940429688 88.724609375 548.564453125 c 0
 88.724609375 561.771484375 79.5615234375 570 63.267578125 570 c 0
 40.1123046875 570 30 573.877929688 30 593.770507812 c 0
 30 607.383789062 34.7353515625 628.497070312 43.267578125 661 c 0
 52.267578125 693 77.267578125 716 103.267578125 716 c 0
 129.267578125 716 149.267578125 732 149.267578125 752 c 0
 149.267578125 777 173.267578125 789 222.267578125 789 c 0
 276.267578125 789 295.267578125 778 295.267578125 744 c 0
 295.267578125 715.875 310.208984375 701.8125 342.563476562 701.8125 c 0
 344.720703125 701.8125 346.955078125 701.875 349.267578125 702 c 0
 350.5859375 702.030273438 351.876953125 702.045898438 353.141601562 702.045898438 c 0
 393.118164062 702.045898438 406.451171875 686.436523438 412.267578125 637 c 0
 413.166992188 628.006835938 413.645507812 620.081054688 413.645507812 613.129882812 c 0
 413.645507812 581.434570312 403.69140625 570 378.267578125 570 c 0
 360.0546875 570 351.284179688 567.868164062 351.284179688 560.913085938 c 0
 351.284179688 555.267578125 357.065429688 546.442382812 368.267578125 533 c 0
 379.959960938 518.735351562 385.58203125 505.400390625 385.58203125 493.327148438 c 0
 385.58203125 453.772460938 325.23046875 427.766601562 220.267578125 427 c 0
 135.267578125 427 94.267578125 437 85.267578125 461 c 0
266.267578125 588 m 0
 261.459960938 612.51953125 249.0234375 624.557617188 236.18359375 624.557617188 c 0
 222.317382812 624.557617188 207.978515625 610.518554688 202.267578125 583 c 0
 201.584960938 579.997070312 201.256835938 577.106445312 201.256835938 574.352539062 c 0
 201.256835938 556.930664062 214.40625 545 234.267578125 545 c 0
 255.525390625 545 267.383789062 556.568359375 267.383789062 576.630859375 c 0
 267.383789062 580.163085938 267.015625 583.958007812 266.267578125 588 c 0
EndSplineSet
Validated: 1
EndChar

StartChar: quotedbl
Encoding: 34 34 89
Width: 521
VWidth: 24812
Flags: W
HStem: 502 48<114.525 170.377 339.043 392.572> 745 49<82.21 193.102 327.841 412.778>
VStem: 30 51<594.188 742.68> 271 50<563.703 611> 416 75<574.765 742.523>
LayerCount: 2
Fore
SplineSet
45 540 m 0
 37 561 30 627 30 686 c 2
 30 794 l 1
 184 794 338 794 491 794 c 1
 491 724 l 2
 491 685 484 620 476 578 c 0
 462 508 453 502 367 502 c 0
 286 502 273 509 271 556 c 2
 270 611 l 1
 248 556 l 2
 231 515 206 502 143 502 c 0
 89 502 54 515 45 540 c 0
185 605 m 0
 195 642 200 670 200 691 c 0
 200 731 181 745 139 745 c 0
 97 745 81 743 81 711 c 0
 81 694 86 667 94 626 c 0
 103 578 123 552 143 552 c 0
 159 552 175 569 185 605 c 0
414 656 m 0
 415 672 416 685 416 695 c 0
 416 737 405 745 371 745 c 0
 331 745 321 730 321 664 c 0
 321 589 342 550 365 550 c 0
 386 550 408 585 414 656 c 0
EndSplineSet
Validated: 1
EndChar

StartChar: quotesingle
Encoding: 39 39 90
Width: 290
VWidth: 24814
Flags: W
HStem: 510 49<116.414 182.663>
VStem: 31 59<587.185 747.725> 208 52<591.917 752.054>
LayerCount: 2
Fore
SplineSet
49 551 m 0
 40 574 32 637 31 691 c 2
 30 791 l 1
 145 798 l 1
 260 805 l 1
 260 713 l 2
 259 546 240 510 147 510 c 0
 92 510 59 524 49 551 c 0
188 602 m 0
 188 625 195 669 203 699 c 0
 206 711 208 721 208 729 c 0
 208 750 194 754 154 754 c 0
 103 754 90 742 90 695 c 0
 90 611 115 559 154 559 c 0
 172 559 188 578 188 602 c 0
EndSplineSet
Validated: 1
EndChar

StartChar: colon
Encoding: 58 58 91
Width: 305
VWidth: 24628
Flags: W
HStem: 16 49<110.81 221.19> 337 49<110.81 221.19>
VStem: 30 245<16 132 337 453> 45 230<146.5 248 467.5 569> 227 48<70.8097 180.942 391.81 501.942>
LayerCount: 2
Fore
SplineSet
37 453 m 5xe0
 45 569 l 5xd0
 160 576 l 5
 275 583 l 5
 275 460 l 5xc8
 275 337 l 5
 153 337 l 5
 30 337 l 5
 37 453 l 5xe0
227 447 m 4xc8
 227 495 215 508 166 508 c 4
 117 508 105 495 105 447 c 4
 105 398 117 386 166 386 c 4
 215 386 227 398 227 447 c 4xc8
37 132 m 1
 45 248 l 1xd0
 160 255 l 1
 275 262 l 1
 275 139 l 1xc8
 275 16 l 1
 153 16 l 1
 30 16 l 1xe0
 37 132 l 1
227 126 m 0xc8
 227 174 215 187 166 187 c 0
 117 187 105 174 105 126 c 0
 105 77 117 65 166 65 c 0
 215 65 227 77 227 126 c 0xc8
EndSplineSet
Validated: 1
EndChar

StartChar: semicolon
Encoding: 59 59 92
Width: 305
VWidth: 24628
Flags: W
HStem: -28.1074 49.5078<68.6152 136.715> 337 49<110.81 221.19>
VStem: 221.697 48.5654<-33.8718 137.984 389.827 503.987>
LayerCount: 2
Fore
SplineSet
67.740234375 -62.8671875 m 4
 110.416015625 -30.4169921875 110.455078125 -28.8466796875 68.615234375 -28.107421875 c 4
 31.5703125 -27.451171875 25.9404296875 -9.435546875 32.1943359375 88.4072265625 c 6
 39.595703125 204.146484375 l 5
 116.484375 209.09765625 193.374023438 214.048828125 270.262695312 219 c 5
 270.262695312 63.5322265625 l 6
 270.262695312 -67.4716796875 261.421875 -100.272460938 214.067382812 -144.916015625 c 4
 142.307617188 -212.567382812 60.015625 -213.72265625 39.029296875 -147.374023438 c 4
 28.1875 -113.09765625 37.423828125 -85.923828125 67.740234375 -62.8671875 c 4
221.697265625 60.6494140625 m 4
 221.697265625 132.493164062 213.806640625 143.231445312 160.99609375 143.231445312 c 4
 112.434570312 143.231445312 100.293945312 131.048828125 100.293945312 82.31640625 c 4
 100.293945312 44.4130859375 114.053710938 21.400390625 136.71484375 21.400390625 c 4
 174.782226562 21.400390625 186.323242188 -49.1845703125 154.92578125 -89.9814453125 c 4
 144.91015625 -102.99609375 155.823242188 -93.009765625 179.206054688 -67.7890625 c 4
 202.576171875 -42.568359375 221.697265625 15.228515625 221.697265625 60.6494140625 c 4
37 453 m 1
 45 569 l 1
 160 576 l 1
 275 583 l 1
 275 460 l 1
 275 337 l 1
 153 337 l 1
 30 337 l 1
 37 453 l 1
227 447 m 0
 227 495 215 508 166 508 c 0
 117 508 105 495 105 447 c 0
 105 398 117 386 166 386 c 0
 215 386 227 398 227 447 c 0
EndSplineSet
Validated: 33
EndChar

StartChar: equal
Encoding: 61 61 94
Width: 586
VWidth: 25059
Flags: W
HStem: 117.59 179.27<320.458 532.45> 117.59 47.2793<138.973 428.236> 256.475 48.2646<165.206 296.975> 388.955 179.27<295.017 507.01> 388.955 47.2793<113.533 402.795> 527.84 48.2646<139.765 271.535>
VStem: 29.7305 81.6396<444.635 502.115> 55.1709 81.6396<173.269 230.749>
LayerCount: 2
Fore
SplineSet
55.1708984375 214.119140625 m 1x41
 55.1708984375 311.634765625 l 1
 293.810546875 304.739257812 l 1x61
 532.450195312 296.859375 l 1x81
 543.440429688 207.224609375 l 1
 556 117.58984375 l 1
 304.80078125 117.58984375 l 1
 55.1708984375 117.58984375 l 1
 55.1708984375 214.119140625 l 1x41
436.680664062 215.104492188 m 0
 436.680664062 247.609375 424.120117188 258.444335938 361.3203125 258.444335938 c 0
 344.05078125 258.444335938 320.5 258.444335938 293.810546875 256.474609375 c 0
 193.330078125 251.549804688 147.80078125 236.774414062 138.380859375 207.224609375 c 0
 136.810546875 202.299804688 136.810546875 198.359375 136.810546875 195.404296875 c 0
 136.810546875 170.779296875 171.350585938 164.869140625 281.25 164.869140625 c 0
 413.130859375 164.869140625 436.680664062 172.75 436.680664062 215.104492188 c 0
29.73046875 485.484375 m 1x0a
 29.73046875 583 l 1
 268.370117188 576.104492188 l 1x0e
 507.009765625 568.224609375 l 1x12
 518 478.58984375 l 1
 530.559570312 388.955078125 l 1
 279.360351562 388.955078125 l 1
 29.73046875 388.955078125 l 1
 29.73046875 485.484375 l 1x0a
411.240234375 486.469726562 m 0
 411.240234375 518.974609375 398.6796875 529.809570312 335.879882812 529.809570312 c 0
 318.610351562 529.809570312 295.059570312 529.809570312 268.370117188 527.83984375 c 0
 167.889648438 522.915039062 122.360351562 508.139648438 112.940429688 478.58984375 c 0
 111.370117188 473.665039062 111.370117188 469.724609375 111.370117188 466.76953125 c 0
 111.370117188 442.14453125 145.91015625 436.234375 255.809570312 436.234375 c 0
 387.690429688 436.234375 411.240234375 444.115234375 411.240234375 486.469726562 c 0
EndSplineSet
Validated: 1
EndChar
